<?xml version="1.0" encoding="utf-8" standalone="no"?>
<!DOCTYPE svg PUBLIC "-//W3C//DTD SVG 1.1//EN"
  "http://www.w3.org/Graphics/SVG/1.1/DTD/svg11.dtd">
<!-- Created with matplotlib (http://matplotlib.org/) -->
<svg height="864pt" version="1.1" viewBox="0 0 1008 864" width="1008pt" xmlns="http://www.w3.org/2000/svg" xmlns:xlink="http://www.w3.org/1999/xlink">
 <defs>
  <style type="text/css">
*{stroke-linecap:butt;stroke-linejoin:round;}
  </style>
 </defs>
 <g id="figure_1">
  <g id="patch_1">
   <path d="
M0 864
L1008 864
L1008 0
L0 0
z
" style="fill:#ffffff;"/>
  </g>
  <g id="axes_1">
   <g id="patch_2">
    <path d="
M126 365.4
L465.652 365.4
L465.652 86.4
L126 86.4
z
" style="fill:#ffffff;"/>
   </g>
   <g id="line2d_1">
    <path clip-path="url(#p0c87766784)" d="
M126.34 225.9
L151.134 225.786
L173.212 225.468
L191.213 224.993
L205.479 224.4
L216.687 223.719
L225.518 222.971
L232.651 222.159
L238.765 221.242
L243.859 220.248
L247.935 219.237
L251.332 218.189
L254.389 217.025
L257.106 215.753
L259.483 214.392
L261.521 212.978
L263.219 211.571
L264.918 209.891
L266.616 207.851
L267.975 205.875
L269.333 203.491
L270.692 200.558
L271.711 197.875
L272.73 194.633
L273.749 190.639
L274.768 185.594
L275.787 179.025
L276.466 173.419
L277.145 166.399
L277.825 157.352
L278.504 145.253
L279.183 128.246
L279.862 102.586
L280.202 84.145
L280.542 59.4124
L281.045 -1
M282.278 -1
L282.313 865
M283.117 865
L283.259 694.419
L283.599 546.157
L283.938 469.551
L284.618 391.222
L285.297 351.393
L285.976 327.279
L286.655 311.113
L287.335 299.521
L288.014 290.803
L289.033 281.143
L290.052 274.102
L291.071 268.742
L292.09 264.526
L293.109 261.123
L294.467 257.49
L295.826 254.601
L297.185 252.248
L298.543 250.296
L300.242 248.277
L301.94 246.612
L303.978 244.964
L306.016 243.603
L308.393 242.287
L311.11 241.052
L314.167 239.919
L317.564 238.893
L321.64 237.898
L326.395 236.974
L332.169 236.093
L338.962 235.291
L347.114 234.555
L357.303 233.865
L370.21 233.228
L386.513 232.657
L407.911 232.142
L436.442 231.689
L465.313 231.385
L465.313 231.385" style="fill:none;stroke:#0000ff;stroke-linecap:square;"/>
   </g>
   <g id="line2d_2">
    <path clip-path="url(#p0c87766784)" d="
M126.34 225.9
L146.719 226.015
L165.4 226.338
L181.363 226.826
L194.949 227.459
L206.158 228.202
L215.329 229.028
L222.801 229.91
L229.254 230.888
L234.689 231.929
L239.444 233.064
L243.52 234.265
L246.916 235.482
L249.973 236.798
L252.69 238.198
L255.068 239.653
L257.445 241.388
L259.483 243.162
L261.182 244.901
L262.88 246.942
L264.578 249.371
L265.937 251.675
L267.295 254.39
L268.654 257.638
L270.013 261.594
L271.031 265.175
L272.05 269.453
L273.069 274.654
L274.088 281.111
L275.107 289.342
L276.126 300.194
L276.806 309.574
L277.485 321.48
L278.164 337.091
L278.843 358.451
L279.523 389.454
L280.202 438.532
L280.542 475.631
L280.881 527.993
L281.221 607.472
L281.561 742.498
L281.709 865
M282.269 865
L282.293 -1
M284.828 -1
L285.297 37.6607
L285.976 73.8309
L286.655 98.0806
L287.335 115.469
L288.014 128.546
L289.033 143.036
L290.052 153.597
L291.071 161.637
L292.09 167.961
L293.109 173.065
L294.128 177.272
L295.486 181.85
L296.845 185.558
L298.204 188.622
L299.562 191.196
L301.261 193.887
L302.959 196.13
L304.657 198.027
L306.695 199.95
L308.733 201.572
L311.11 203.171
L313.828 204.7
L316.885 206.128
L320.281 207.441
L324.017 208.636
L328.433 209.793
L333.527 210.877
L339.302 211.866
L346.095 212.795
L354.246 213.673
L363.757 214.469
L375.305 215.209
L389.57 215.895
L407.572 216.527
L430.328 217.094
L460.218 217.604
L465.313 217.673
L465.313 217.673" style="fill:none;stroke:#008000;stroke-linecap:square;"/>
   </g>
   <g id="line2d_3">
    <path clip-path="url(#p0c87766784)" d="
M126.34 225.9
L151.134 226.014
L173.212 226.332
L191.213 226.807
L205.479 227.4
L216.687 228.081
L225.518 228.829
L232.651 229.641
L238.765 230.558
L243.859 231.552
L247.935 232.563
L251.332 233.611
L254.389 234.775
L257.106 236.047
L259.483 237.408
L261.521 238.822
L263.219 240.229
L264.918 241.909
L266.616 243.949
L267.975 245.925
L269.333 248.309
L270.692 251.242
L271.711 253.925
L272.73 257.167
L273.749 261.161
L274.768 266.206
L275.787 272.775
L276.466 278.381
L277.145 285.401
L277.825 294.448
L278.504 306.547
L279.183 323.554
L279.862 349.214
L280.202 367.655
L280.542 392.388
L280.881 427.295
L281.221 480.281
L281.561 570.299
L281.9 757.017
L281.959 865
M282.261 865
L282.296 -1
M284.06 -1
L284.618 60.5784
L285.297 100.407
L285.976 124.521
L286.655 140.687
L287.335 152.279
L288.014 160.997
L289.033 170.657
L290.052 177.698
L291.071 183.058
L292.09 187.274
L293.109 190.677
L294.467 194.31
L295.826 197.199
L297.185 199.552
L298.543 201.504
L300.242 203.523
L301.94 205.188
L303.978 206.836
L306.016 208.197
L308.393 209.513
L311.11 210.748
L314.167 211.881
L317.564 212.907
L321.64 213.902
L326.395 214.826
L332.169 215.707
L338.962 216.509
L347.114 217.245
L357.303 217.935
L370.21 218.572
L386.513 219.143
L407.911 219.658
L436.442 220.111
L465.313 220.415
L465.313 220.415" style="fill:none;stroke:#ff0000;stroke-linecap:square;"/>
   </g>
   <g id="matplotlib.axis_1">
    <g id="xtick_1">
     <g id="line2d_4">
      <path clip-path="url(#p0c87766784)" d="
M126 365.4
L126 86.4" style="fill:none;stroke:#000000;stroke-dasharray:1.000000,3.000000;stroke-dashoffset:0.0;stroke-width:0.5;"/>
     </g>
     <g id="line2d_5">
      <defs>
       <path d="
M0 0
L0 -4" id="m93b0483c22" style="stroke:#000000;stroke-width:0.5;"/>
      </defs>
      <g>
       <use style="stroke:#000000;stroke-width:0.5;" x="126.0" xlink:href="#m93b0483c22" y="365.4"/>
      </g>
     </g>
     <g id="line2d_6">
      <defs>
       <path d="
M0 0
L0 4" id="m741efc42ff" style="stroke:#000000;stroke-width:0.5;"/>
      </defs>
      <g>
       <use style="stroke:#000000;stroke-width:0.5;" x="126.0" xlink:href="#m741efc42ff" y="86.4"/>
      </g>
     </g>
     <g id="text_1">
      <!-- 0 -->
      <defs>
       <path d="
M31.7812 3.42188
Q39.2656 3.42188 42.9688 11.625
Q46.6875 19.8281 46.6875 36.375
Q46.6875 52.9844 42.9688 61.1875
Q39.2656 69.3906 31.7812 69.3906
Q24.3125 69.3906 20.5938 61.1875
Q16.8906 52.9844 16.8906 36.375
Q16.8906 19.8281 20.5938 11.625
Q24.3125 3.42188 31.7812 3.42188
M31.7812 -1.42188
Q19.9219 -1.42188 13.25 8.53125
Q6.59375 18.5 6.59375 36.375
Q6.59375 54.2969 13.25 64.25
Q19.9219 74.2188 31.7812 74.2188
Q43.7031 74.2188 50.3438 64.25
Q56.9844 54.2969 56.9844 36.375
Q56.9844 18.5 50.3438 8.53125
Q43.7031 -1.42188 31.7812 -1.42188" id="DejaVuSerif-30"/>
      </defs>
      <g transform="translate(122.9765625 378.518125)scale(0.12 -0.12)">
       <use xlink:href="#DejaVuSerif-30"/>
      </g>
     </g>
    </g>
    <g id="xtick_2">
     <g id="line2d_7">
      <path clip-path="url(#p0c87766784)" d="
M193.93 365.4
L193.93 86.4" style="fill:none;stroke:#000000;stroke-dasharray:1.000000,3.000000;stroke-dashoffset:0.0;stroke-width:0.5;"/>
     </g>
     <g id="line2d_8">
      <g>
       <use style="stroke:#000000;stroke-width:0.5;" x="193.930434783" xlink:href="#m93b0483c22" y="365.4"/>
      </g>
     </g>
     <g id="line2d_9">
      <g>
       <use style="stroke:#000000;stroke-width:0.5;" x="193.930434783" xlink:href="#m741efc42ff" y="86.4"/>
      </g>
     </g>
     <g id="text_2">
      <!-- 200 -->
      <defs>
       <path d="
M12.7969 55.5156
L7.32812 55.5156
L7.32812 68.5
Q12.5469 71.2969 17.8438 72.75
Q23.1406 74.2188 28.2188 74.2188
Q39.5938 74.2188 46.1875 68.7031
Q52.7812 63.1875 52.7812 53.7188
Q52.7812 43.0156 37.8438 28.125
Q36.6719 27 36.0781 26.4219
L17.6719 8.01562
L48.0938 8.01562
L48.0938 17
L53.8125 17
L53.8125 0
L6.78125 0
L6.78125 5.32812
L28.9062 27.3906
Q36.2344 34.7188 39.3594 40.8438
Q42.4844 46.9688 42.4844 53.7188
Q42.4844 61.0781 38.6406 65.2344
Q34.8125 69.3906 28.0781 69.3906
Q21.0938 69.3906 17.2812 65.9219
Q13.4844 62.4531 12.7969 55.5156" id="DejaVuSerif-32"/>
      </defs>
      <g transform="translate(183.283247283 378.518125)scale(0.12 -0.12)">
       <use xlink:href="#DejaVuSerif-32"/>
       <use x="63.623046875" xlink:href="#DejaVuSerif-30"/>
       <use x="127.24609375" xlink:href="#DejaVuSerif-30"/>
      </g>
     </g>
    </g>
    <g id="xtick_3">
     <g id="line2d_10">
      <path clip-path="url(#p0c87766784)" d="
M261.861 365.4
L261.861 86.4" style="fill:none;stroke:#000000;stroke-dasharray:1.000000,3.000000;stroke-dashoffset:0.0;stroke-width:0.5;"/>
     </g>
     <g id="line2d_11">
      <g>
       <use style="stroke:#000000;stroke-width:0.5;" x="261.860869565" xlink:href="#m93b0483c22" y="365.4"/>
      </g>
     </g>
     <g id="line2d_12">
      <g>
       <use style="stroke:#000000;stroke-width:0.5;" x="261.860869565" xlink:href="#m741efc42ff" y="86.4"/>
      </g>
     </g>
     <g id="text_3">
      <!-- 400 -->
      <defs>
       <path d="
M34.9062 24.7031
L34.9062 63.4844
L10.0156 24.7031
z

M56.3906 0
L23.1875 0
L23.1875 5.17188
L34.9062 5.17188
L34.9062 19.4844
L3.07812 19.4844
L3.07812 24.8125
L35.0156 74.2188
L44.6719 74.2188
L44.6719 24.7031
L58.5938 24.7031
L58.5938 19.4844
L44.6719 19.4844
L44.6719 5.17188
L56.3906 5.17188
z
" id="DejaVuSerif-34"/>
      </defs>
      <g transform="translate(250.991494565 378.518125)scale(0.12 -0.12)">
       <use xlink:href="#DejaVuSerif-34"/>
       <use x="63.623046875" xlink:href="#DejaVuSerif-30"/>
       <use x="127.24609375" xlink:href="#DejaVuSerif-30"/>
      </g>
     </g>
    </g>
    <g id="xtick_4">
     <g id="line2d_13">
      <path clip-path="url(#p0c87766784)" d="
M329.791 365.4
L329.791 86.4" style="fill:none;stroke:#000000;stroke-dasharray:1.000000,3.000000;stroke-dashoffset:0.0;stroke-width:0.5;"/>
     </g>
     <g id="line2d_14">
      <g>
       <use style="stroke:#000000;stroke-width:0.5;" x="329.791304348" xlink:href="#m93b0483c22" y="365.4"/>
      </g>
     </g>
     <g id="line2d_15">
      <g>
       <use style="stroke:#000000;stroke-width:0.5;" x="329.791304348" xlink:href="#m741efc42ff" y="86.4"/>
      </g>
     </g>
     <g id="text_4">
      <!-- 600 -->
      <defs>
       <path d="
M32.7188 3.42188
Q39.5938 3.42188 43.2969 8.46875
Q47.0156 13.5312 47.0156 23
Q47.0156 32.4688 43.2969 37.5156
Q39.5938 42.5781 32.7188 42.5781
Q25.7344 42.5781 22.0625 37.6875
Q18.4062 32.8125 18.4062 23.5781
Q18.4062 13.875 22.1094 8.64062
Q25.8281 3.42188 32.7188 3.42188
M16.7969 40.1406
Q20.125 43.7969 24.3125 45.5938
Q28.5156 47.4062 33.7969 47.4062
Q44.6719 47.4062 51 40.8594
Q57.3281 34.3281 57.3281 23
Q57.3281 11.9219 50.5156 5.25
Q43.7031 -1.42188 32.3281 -1.42188
Q19.9688 -1.42188 13.3281 7.78125
Q6.6875 17 6.6875 34.0781
Q6.6875 53.2188 14.5469 63.7188
Q22.4062 74.2188 36.7188 74.2188
Q40.5781 74.2188 44.8281 73.4844
Q49.0781 72.75 53.5156 71.2969
L53.5156 59.2812
L48 59.2812
Q47.4062 64.2031 44.2344 66.7969
Q41.0625 69.3906 35.6875 69.3906
Q26.2188 69.3906 21.5781 62.2031
Q16.9375 55.0312 16.7969 40.1406" id="DejaVuSerif-36"/>
      </defs>
      <g transform="translate(319.138491848 378.518125)scale(0.12 -0.12)">
       <use xlink:href="#DejaVuSerif-36"/>
       <use x="63.623046875" xlink:href="#DejaVuSerif-30"/>
       <use x="127.24609375" xlink:href="#DejaVuSerif-30"/>
      </g>
     </g>
    </g>
    <g id="xtick_5">
     <g id="line2d_16">
      <path clip-path="url(#p0c87766784)" d="
M397.722 365.4
L397.722 86.4" style="fill:none;stroke:#000000;stroke-dasharray:1.000000,3.000000;stroke-dashoffset:0.0;stroke-width:0.5;"/>
     </g>
     <g id="line2d_17">
      <g>
       <use style="stroke:#000000;stroke-width:0.5;" x="397.72173913" xlink:href="#m93b0483c22" y="365.4"/>
      </g>
     </g>
     <g id="line2d_18">
      <g>
       <use style="stroke:#000000;stroke-width:0.5;" x="397.72173913" xlink:href="#m741efc42ff" y="86.4"/>
      </g>
     </g>
     <g id="text_5">
      <!-- 800 -->
      <defs>
       <path d="
M46.5781 19.9219
Q46.5781 27.7344 42.6875 32.0469
Q38.8125 36.375 31.7812 36.375
Q24.75 36.375 20.875 32.0469
Q17 27.7344 17 19.9219
Q17 12.0625 20.875 7.73438
Q24.75 3.42188 31.7812 3.42188
Q38.8125 3.42188 42.6875 7.73438
Q46.5781 12.0625 46.5781 19.9219
M44.5781 55.3281
Q44.5781 61.9688 41.2031 65.6719
Q37.8438 69.3906 31.7812 69.3906
Q25.7812 69.3906 22.3906 65.6719
Q19 61.9688 19 55.3281
Q19 48.6406 22.3906 44.9219
Q25.7812 41.2188 31.7812 41.2188
Q37.8438 41.2188 41.2031 44.9219
Q44.5781 48.6406 44.5781 55.3281
M39.3125 38.8125
Q47.6094 37.7031 52.25 32.6875
Q56.8906 27.6875 56.8906 19.9219
Q56.8906 9.67188 50.3906 4.125
Q43.8906 -1.42188 31.7812 -1.42188
Q19.7344 -1.42188 13.2031 4.125
Q6.6875 9.67188 6.6875 19.9219
Q6.6875 27.6875 11.3281 32.6875
Q15.9688 37.7031 24.3125 38.8125
Q16.9375 40.1406 13 44.4062
Q9.07812 48.6875 9.07812 55.3281
Q9.07812 64.1094 15.125 69.1562
Q21.1875 74.2188 31.7812 74.2188
Q42.3906 74.2188 48.4375 69.1562
Q54.5 64.1094 54.5 55.3281
Q54.5 48.6875 50.5625 44.4062
Q46.625 40.1406 39.3125 38.8125" id="DejaVuSerif-38"/>
      </defs>
      <g transform="translate(387.06892663 378.518125)scale(0.12 -0.12)">
       <use xlink:href="#DejaVuSerif-38"/>
       <use x="63.623046875" xlink:href="#DejaVuSerif-30"/>
       <use x="127.24609375" xlink:href="#DejaVuSerif-30"/>
      </g>
     </g>
    </g>
    <g id="xtick_6">
     <g id="line2d_19">
      <path clip-path="url(#p0c87766784)" d="
M465.652 365.4
L465.652 86.4" style="fill:none;stroke:#000000;stroke-dasharray:1.000000,3.000000;stroke-dashoffset:0.0;stroke-width:0.5;"/>
     </g>
     <g id="line2d_20">
      <g>
       <use style="stroke:#000000;stroke-width:0.5;" x="465.652173913" xlink:href="#m93b0483c22" y="365.4"/>
      </g>
     </g>
     <g id="line2d_21">
      <g>
       <use style="stroke:#000000;stroke-width:0.5;" x="465.652173913" xlink:href="#m741efc42ff" y="86.4"/>
      </g>
     </g>
     <g id="text_6">
      <!-- 1000 -->
      <defs>
       <path d="
M14.2031 0
L14.2031 5.17188
L26.9062 5.17188
L26.9062 65.8281
L12.2031 56.2969
L12.2031 62.7031
L29.9844 74.2188
L36.7188 74.2188
L36.7188 5.17188
L49.4219 5.17188
L49.4219 0
z
" id="DejaVuSerif-31"/>
      </defs>
      <g transform="translate(451.512798913 378.518125)scale(0.12 -0.12)">
       <use xlink:href="#DejaVuSerif-31"/>
       <use x="63.623046875" xlink:href="#DejaVuSerif-30"/>
       <use x="127.24609375" xlink:href="#DejaVuSerif-30"/>
       <use x="190.869140625" xlink:href="#DejaVuSerif-30"/>
      </g>
     </g>
    </g>
    <g id="text_7">
     <!-- $\lambda$ (nm) -->
     <defs>
      <path d="
M7.07812 -15.5781
L7.07812 -10.7969
Q14.5938 -5.60938 17.8906 3.78125
Q21.1875 13.1875 21.1875 30.1719
Q21.1875 47.2188 17.8906 56.6094
Q14.5938 66.0156 7.07812 71.1875
L7.07812 75.9844
Q19 70.6562 25.0469 59.1094
Q31.1094 47.5625 31.1094 30.1719
Q31.1094 12.8438 25.0469 1.29688
Q19 -10.25 7.07812 -15.5781" id="DejaVuSerif-29"/>
      <path d="
M31.8906 -15.5781
Q20.0156 -10.25 13.9531 1.29688
Q7.90625 12.8438 7.90625 30.1719
Q7.90625 47.5625 13.9531 59.1094
Q20.0156 70.6562 31.8906 75.9844
L31.8906 71.1875
Q24.3594 66.0156 21.0938 56.6094
Q17.8281 47.2188 17.8281 30.1719
Q17.8281 13.1875 21.0938 3.78125
Q24.3594 -5.60938 31.8906 -10.7969
z
" id="DejaVuSerif-28"/>
      <path d="
M4.10938 0
L4.10938 5.17188
L12.2031 5.17188
L12.2031 46.6875
L3.60938 46.6875
L3.60938 51.9062
L21.1875 51.9062
L21.1875 42.6719
Q23.6875 47.9531 27.6562 50.6406
Q31.6406 53.3281 36.9219 53.3281
Q45.5156 53.3281 49.5625 48.3906
Q53.6094 43.4531 53.6094 33.0156
L53.6094 5.17188
L61.625 5.17188
L61.625 0
L36.8125 0
L36.8125 5.17188
L44.5781 5.17188
L44.5781 30.1719
Q44.5781 39.7031 42.2344 43.2344
Q39.8906 46.7812 33.9844 46.7812
Q27.7344 46.7812 24.4531 42.2031
Q21.1875 37.6406 21.1875 28.9062
L21.1875 5.17188
L29 5.17188
L29 0
z
" id="DejaVuSerif-6e"/>
      <path d="
M51.8125 41.7969
Q54.3906 47.5156 58.4219 50.4219
Q62.4531 53.3281 67.8281 53.3281
Q75.9844 53.3281 79.9844 48.2656
Q83.9844 43.2188 83.9844 33.0156
L83.9844 5.17188
L92.0938 5.17188
L92.0938 0
L67.1875 0
L67.1875 5.17188
L75 5.17188
L75 31.9844
Q75 39.9375 72.6562 43.3125
Q70.3125 46.6875 64.8906 46.6875
Q58.8906 46.6875 55.7344 42.1406
Q52.5938 37.5938 52.5938 28.9062
L52.5938 5.17188
L60.4062 5.17188
L60.4062 0
L35.7969 0
L35.7969 5.17188
L43.6094 5.17188
L43.6094 32.3281
Q43.6094 40.0938 41.2656 43.3906
Q38.9219 46.6875 33.5 46.6875
Q27.4844 46.6875 24.3281 42.1406
Q21.1875 37.5938 21.1875 28.9062
L21.1875 5.17188
L29 5.17188
L29 0
L4.10938 0
L4.10938 5.17188
L12.2031 5.17188
L12.2031 46.7812
L3.60938 46.7812
L3.60938 51.9062
L21.1875 51.9062
L21.1875 42.6719
Q23.6875 47.8594 27.5312 50.5938
Q31.3906 53.3281 36.2812 53.3281
Q42.3281 53.3281 46.375 50.3125
Q50.4375 47.3125 51.8125 41.7969" id="DejaVuSerif-6d"/>
      <path d="
M5.07812 1.70312
Q5.07812 3.17188 6.39062 4.5
L34.5156 32.0781
L24.6094 59.9062
Q23.4375 63.0938 22.1406 64.9375
Q20.8438 66.7969 18.4062 66.7969
Q17.2812 66.7969 17.2812 68.1094
Q17.3906 68.7031 17.7812 69.0469
Q18.1719 69.3906 18.7969 69.3906
Q29.2969 69.3906 31.5 63.1875
L51.8125 6.5
Q53.125 2.25 54.5 0.78125
Q54.9844 0.046875 54.9844 -0.203125
Q54.9844 -1.125 54.2031 -1.125
L48.7812 -1.125
Q46.2969 -0.390625 44.8281 3.21875
L35.6875 28.8125
L11.5312 0.390625
Q9.71875 -1.3125 8.29688 -1.3125
Q7.03125 -1.3125 6.04688 -0.4375
Q5.07812 0.4375 5.07812 1.70312" id="Cmmi10-b8"/>
      <path id="DejaVuSerif-20"/>
     </defs>
     <g transform="translate(276.146086957 395.131875)scale(0.12 -0.12)">
      <use transform="translate(0.0 0.015625)" xlink:href="#Cmmi10-b8"/>
      <use transform="translate(58.30078125 0.015625)" xlink:href="#DejaVuSerif-20"/>
      <use transform="translate(90.087890625 0.015625)" xlink:href="#DejaVuSerif-28"/>
      <use transform="translate(129.1015625 0.015625)" xlink:href="#DejaVuSerif-6e"/>
      <use transform="translate(193.505859375 0.015625)" xlink:href="#DejaVuSerif-6d"/>
      <use transform="translate(288.330078125 0.015625)" xlink:href="#DejaVuSerif-29"/>
     </g>
    </g>
   </g>
   <g id="matplotlib.axis_2">
    <g id="ytick_1">
     <g id="line2d_22">
      <path clip-path="url(#p0c87766784)" d="
M126 365.4
L465.652 365.4" style="fill:none;stroke:#000000;stroke-dasharray:1.000000,3.000000;stroke-dashoffset:0.0;stroke-width:0.5;"/>
     </g>
     <g id="line2d_23">
      <defs>
       <path d="
M0 0
L4 0" id="m728421d6d4" style="stroke:#000000;stroke-width:0.5;"/>
      </defs>
      <g>
       <use style="stroke:#000000;stroke-width:0.5;" x="126.0" xlink:href="#m728421d6d4" y="365.4"/>
      </g>
     </g>
     <g id="line2d_24">
      <defs>
       <path d="
M0 0
L-4 0" id="mcb0005524f" style="stroke:#000000;stroke-width:0.5;"/>
      </defs>
      <g>
       <use style="stroke:#000000;stroke-width:0.5;" x="465.652173913" xlink:href="#mcb0005524f" y="365.4"/>
      </g>
     </g>
     <g id="text_8">
      <!-- −2000 -->
      <defs>
       <path d="
M10.5938 35.2969
L73.1875 35.2969
L73.1875 27.3906
L10.5938 27.3906
z
" id="DejaVuSerif-2212"/>
      </defs>
      <g transform="translate(83.4725 368.71125)scale(0.12 -0.12)">
       <use xlink:href="#DejaVuSerif-2212"/>
       <use x="83.7890625" xlink:href="#DejaVuSerif-32"/>
       <use x="147.412109375" xlink:href="#DejaVuSerif-30"/>
       <use x="211.03515625" xlink:href="#DejaVuSerif-30"/>
       <use x="274.658203125" xlink:href="#DejaVuSerif-30"/>
      </g>
     </g>
    </g>
    <g id="ytick_2">
     <g id="line2d_25">
      <path clip-path="url(#p0c87766784)" d="
M126 330.525
L465.652 330.525" style="fill:none;stroke:#000000;stroke-dasharray:1.000000,3.000000;stroke-dashoffset:0.0;stroke-width:0.5;"/>
     </g>
     <g id="line2d_26">
      <g>
       <use style="stroke:#000000;stroke-width:0.5;" x="126.0" xlink:href="#m728421d6d4" y="330.525"/>
      </g>
     </g>
     <g id="line2d_27">
      <g>
       <use style="stroke:#000000;stroke-width:0.5;" x="465.652173913" xlink:href="#mcb0005524f" y="330.525"/>
      </g>
     </g>
     <g id="text_9">
      <!-- −1500 -->
      <defs>
       <path d="
M50.2969 72.9062
L50.2969 64.8906
L16.8906 64.8906
L16.8906 44
Q19.4375 45.75 22.8281 46.625
Q26.2188 47.5156 30.4219 47.5156
Q42.2344 47.5156 49.0625 40.9688
Q55.9062 34.4219 55.9062 23.0938
Q55.9062 11.5312 49 5.04688
Q42.0938 -1.42188 29.5938 -1.42188
Q24.5625 -1.42188 19.2812 -0.1875
Q14.0156 1.03125 8.5 3.51562
L8.5 17.6719
L14.0156 17.6719
Q14.4531 10.75 18.4219 7.07812
Q22.4062 3.42188 29.5938 3.42188
Q37.3125 3.42188 41.4531 8.5
Q45.6094 13.5781 45.6094 23.0938
Q45.6094 32.5625 41.4844 37.6094
Q37.3594 42.6719 29.5938 42.6719
Q25.2031 42.6719 21.8438 41.1094
Q18.5 39.5469 15.9219 36.2812
L11.7188 36.2812
L11.7188 72.9062
z
" id="DejaVuSerif-35"/>
      </defs>
      <g transform="translate(83.4725 333.83625)scale(0.12 -0.12)">
       <use xlink:href="#DejaVuSerif-2212"/>
       <use x="83.7890625" xlink:href="#DejaVuSerif-31"/>
       <use x="147.412109375" xlink:href="#DejaVuSerif-35"/>
       <use x="211.03515625" xlink:href="#DejaVuSerif-30"/>
       <use x="274.658203125" xlink:href="#DejaVuSerif-30"/>
      </g>
     </g>
    </g>
    <g id="ytick_3">
     <g id="line2d_28">
      <path clip-path="url(#p0c87766784)" d="
M126 295.65
L465.652 295.65" style="fill:none;stroke:#000000;stroke-dasharray:1.000000,3.000000;stroke-dashoffset:0.0;stroke-width:0.5;"/>
     </g>
     <g id="line2d_29">
      <g>
       <use style="stroke:#000000;stroke-width:0.5;" x="126.0" xlink:href="#m728421d6d4" y="295.65"/>
      </g>
     </g>
     <g id="line2d_30">
      <g>
       <use style="stroke:#000000;stroke-width:0.5;" x="465.652173913" xlink:href="#mcb0005524f" y="295.65"/>
      </g>
     </g>
     <g id="text_10">
      <!-- −1000 -->
      <g transform="translate(83.4725 298.96125)scale(0.12 -0.12)">
       <use xlink:href="#DejaVuSerif-2212"/>
       <use x="83.7890625" xlink:href="#DejaVuSerif-31"/>
       <use x="147.412109375" xlink:href="#DejaVuSerif-30"/>
       <use x="211.03515625" xlink:href="#DejaVuSerif-30"/>
       <use x="274.658203125" xlink:href="#DejaVuSerif-30"/>
      </g>
     </g>
    </g>
    <g id="ytick_4">
     <g id="line2d_31">
      <path clip-path="url(#p0c87766784)" d="
M126 260.775
L465.652 260.775" style="fill:none;stroke:#000000;stroke-dasharray:1.000000,3.000000;stroke-dashoffset:0.0;stroke-width:0.5;"/>
     </g>
     <g id="line2d_32">
      <g>
       <use style="stroke:#000000;stroke-width:0.5;" x="126.0" xlink:href="#m728421d6d4" y="260.775"/>
      </g>
     </g>
     <g id="line2d_33">
      <g>
       <use style="stroke:#000000;stroke-width:0.5;" x="465.652173913" xlink:href="#mcb0005524f" y="260.775"/>
      </g>
     </g>
     <g id="text_11">
      <!-- −500 -->
      <g transform="translate(91.1075 264.08625)scale(0.12 -0.12)">
       <use xlink:href="#DejaVuSerif-2212"/>
       <use x="83.7890625" xlink:href="#DejaVuSerif-35"/>
       <use x="147.412109375" xlink:href="#DejaVuSerif-30"/>
       <use x="211.03515625" xlink:href="#DejaVuSerif-30"/>
      </g>
     </g>
    </g>
    <g id="ytick_5">
     <g id="line2d_34">
      <path clip-path="url(#p0c87766784)" d="
M126 225.9
L465.652 225.9" style="fill:none;stroke:#000000;stroke-dasharray:1.000000,3.000000;stroke-dashoffset:0.0;stroke-width:0.5;"/>
     </g>
     <g id="line2d_35">
      <g>
       <use style="stroke:#000000;stroke-width:0.5;" x="126.0" xlink:href="#m728421d6d4" y="225.9"/>
      </g>
     </g>
     <g id="line2d_36">
      <g>
       <use style="stroke:#000000;stroke-width:0.5;" x="465.652173913" xlink:href="#mcb0005524f" y="225.9"/>
      </g>
     </g>
     <g id="text_12">
      <!-- 0 -->
      <g transform="translate(115.953125 229.21125)scale(0.12 -0.12)">
       <use xlink:href="#DejaVuSerif-30"/>
      </g>
     </g>
    </g>
    <g id="ytick_6">
     <g id="line2d_37">
      <path clip-path="url(#p0c87766784)" d="
M126 191.025
L465.652 191.025" style="fill:none;stroke:#000000;stroke-dasharray:1.000000,3.000000;stroke-dashoffset:0.0;stroke-width:0.5;"/>
     </g>
     <g id="line2d_38">
      <g>
       <use style="stroke:#000000;stroke-width:0.5;" x="126.0" xlink:href="#m728421d6d4" y="191.025"/>
      </g>
     </g>
     <g id="line2d_39">
      <g>
       <use style="stroke:#000000;stroke-width:0.5;" x="465.652173913" xlink:href="#mcb0005524f" y="191.025"/>
      </g>
     </g>
     <g id="text_13">
      <!-- 500 -->
      <g transform="translate(100.911875 194.33625)scale(0.12 -0.12)">
       <use xlink:href="#DejaVuSerif-35"/>
       <use x="63.623046875" xlink:href="#DejaVuSerif-30"/>
       <use x="127.24609375" xlink:href="#DejaVuSerif-30"/>
      </g>
     </g>
    </g>
    <g id="ytick_7">
     <g id="line2d_40">
      <path clip-path="url(#p0c87766784)" d="
M126 156.15
L465.652 156.15" style="fill:none;stroke:#000000;stroke-dasharray:1.000000,3.000000;stroke-dashoffset:0.0;stroke-width:0.5;"/>
     </g>
     <g id="line2d_41">
      <g>
       <use style="stroke:#000000;stroke-width:0.5;" x="126.0" xlink:href="#m728421d6d4" y="156.15"/>
      </g>
     </g>
     <g id="line2d_42">
      <g>
       <use style="stroke:#000000;stroke-width:0.5;" x="465.652173913" xlink:href="#mcb0005524f" y="156.15"/>
      </g>
     </g>
     <g id="text_14">
      <!-- 1000 -->
      <g transform="translate(93.72125 159.46125)scale(0.12 -0.12)">
       <use xlink:href="#DejaVuSerif-31"/>
       <use x="63.623046875" xlink:href="#DejaVuSerif-30"/>
       <use x="127.24609375" xlink:href="#DejaVuSerif-30"/>
       <use x="190.869140625" xlink:href="#DejaVuSerif-30"/>
      </g>
     </g>
    </g>
    <g id="ytick_8">
     <g id="line2d_43">
      <path clip-path="url(#p0c87766784)" d="
M126 121.275
L465.652 121.275" style="fill:none;stroke:#000000;stroke-dasharray:1.000000,3.000000;stroke-dashoffset:0.0;stroke-width:0.5;"/>
     </g>
     <g id="line2d_44">
      <g>
       <use style="stroke:#000000;stroke-width:0.5;" x="126.0" xlink:href="#m728421d6d4" y="121.275"/>
      </g>
     </g>
     <g id="line2d_45">
      <g>
       <use style="stroke:#000000;stroke-width:0.5;" x="465.652173913" xlink:href="#mcb0005524f" y="121.275"/>
      </g>
     </g>
     <g id="text_15">
      <!-- 1500 -->
      <g transform="translate(93.72125 124.58625)scale(0.12 -0.12)">
       <use xlink:href="#DejaVuSerif-31"/>
       <use x="63.623046875" xlink:href="#DejaVuSerif-35"/>
       <use x="127.24609375" xlink:href="#DejaVuSerif-30"/>
       <use x="190.869140625" xlink:href="#DejaVuSerif-30"/>
      </g>
     </g>
    </g>
    <g id="ytick_9">
     <g id="line2d_46">
      <path clip-path="url(#p0c87766784)" d="
M126 86.4
L465.652 86.4" style="fill:none;stroke:#000000;stroke-dasharray:1.000000,3.000000;stroke-dashoffset:0.0;stroke-width:0.5;"/>
     </g>
     <g id="line2d_47">
      <g>
       <use style="stroke:#000000;stroke-width:0.5;" x="126.0" xlink:href="#m728421d6d4" y="86.4"/>
      </g>
     </g>
     <g id="line2d_48">
      <g>
       <use style="stroke:#000000;stroke-width:0.5;" x="465.652173913" xlink:href="#mcb0005524f" y="86.4"/>
      </g>
     </g>
     <g id="text_16">
      <!-- 2000 -->
      <g transform="translate(93.070625 89.71125)scale(0.12 -0.12)">
       <use xlink:href="#DejaVuSerif-32"/>
       <use x="63.623046875" xlink:href="#DejaVuSerif-30"/>
       <use x="127.24609375" xlink:href="#DejaVuSerif-30"/>
       <use x="190.869140625" xlink:href="#DejaVuSerif-30"/>
      </g>
     </g>
    </g>
    <g id="text_17">
     <!-- $\alpha$ (a.u.) -->
     <defs>
      <path d="
M20.125 -1.125
Q15.375 -1.125 11.6875 1.125
Q8.01562 3.375 6 7.17188
Q4 10.9844 4 15.8281
Q4 22.6094 7.78125 29.25
Q11.5781 35.8906 17.8438 40.0312
Q24.125 44.1875 31 44.1875
Q36.0781 44.1875 39.9375 41.5312
Q43.7969 38.875 45.7969 34.4531
Q47.7969 30.0312 47.7969 25
L47.9062 18.3125
Q51.3125 23.0469 53.6875 28.1406
Q56.0625 33.25 57.3281 38.7188
Q57.5156 39.3125 58.1094 39.3125
L59.2812 39.3125
Q60.2031 39.3125 60.2031 38.375
Q60.2031 38.2812 60.1094 38.0938
Q58.9375 33.5 57.1719 29.2656
Q55.4219 25.0469 53.0469 21.0938
Q50.6875 17.1406 47.9062 13.9219
Q47.9062 1.51562 50.7812 1.51562
Q52.6406 1.51562 53.8281 2.60938
Q55.0312 3.71875 55.9375 5.32812
Q56.8438 6.9375 57.0781 6.98438
L58.2969 6.98438
Q59.0781 6.98438 59.0781 6
Q59.0781 3.51562 56.2188 1.1875
Q53.375 -1.125 50.5938 -1.125
Q46.9688 -1.125 44.5781 1.21875
Q42.1875 3.5625 41.3125 7.32812
Q36.625 3.32812 31.1562 1.09375
Q25.6875 -1.125 20.125 -1.125
M20.3125 1.51562
Q31 1.51562 40.8281 10.2969
Q40.7656 10.8906 40.6719 11.7344
Q40.5781 12.5938 40.5781 12.7031
L40.5781 23.4844
Q40.5781 41.6094 30.8125 41.6094
Q24.9531 41.6094 20.5469 36.5938
Q16.1562 31.5938 13.9375 24.625
Q11.7188 17.6719 11.7188 11.9219
Q11.7188 7.5625 13.9375 4.53125
Q16.1562 1.51562 20.3125 1.51562" id="Cmmi10-ae"/>
      <path d="
M35.4062 51.9062
L52.2031 51.9062
L52.2031 5.17188
L60.6875 5.17188
L60.6875 0
L43.2188 0
L43.2188 9.1875
Q40.7188 4 36.7656 1.28125
Q32.8125 -1.42188 27.5938 -1.42188
Q18.9531 -1.42188 14.875 3.48438
Q10.7969 8.40625 10.7969 18.8906
L10.7969 46.6875
L2.6875 46.6875
L2.6875 51.9062
L19.8281 51.9062
L19.8281 21.6875
Q19.8281 12.2031 22.1406 8.6875
Q24.4688 5.17188 30.4219 5.17188
Q36.6719 5.17188 39.9375 9.76562
Q43.2188 14.3594 43.2188 23.0938
L43.2188 46.6875
L35.4062 46.6875
z
" id="DejaVuSerif-75"/>
      <path d="
M39.7969 16.3125
L39.7969 27.2969
L28.2188 27.2969
Q21.5312 27.2969 18.25 24.4062
Q14.9844 21.5312 14.9844 15.5781
Q14.9844 10.1562 18.2969 6.98438
Q21.625 3.8125 27.2969 3.8125
Q32.9062 3.8125 36.3438 7.28125
Q39.7969 10.75 39.7969 16.3125
M48.7812 32.4219
L48.7812 5.17188
L56.7812 5.17188
L56.7812 0
L39.7969 0
L39.7969 5.60938
Q36.8125 2 32.9062 0.28125
Q29 -1.42188 23.7812 -1.42188
Q15.1406 -1.42188 10.0625 3.17188
Q4.98438 7.76562 4.98438 15.5781
Q4.98438 23.6406 10.7969 28.0781
Q16.6094 32.5156 27.2031 32.5156
L39.7969 32.5156
L39.7969 36.0781
Q39.7969 42 36.2031 45.2344
Q32.625 48.4844 26.125 48.4844
Q20.75 48.4844 17.5781 46.0469
Q14.4062 43.6094 13.625 38.8125
L8.98438 38.8125
L8.98438 49.3125
Q13.6719 51.3125 18.0938 52.3125
Q22.5156 53.3281 26.7031 53.3281
Q37.5 53.3281 43.1406 47.9688
Q48.7812 42.625 48.7812 32.4219" id="DejaVuSerif-61"/>
      <path d="
M9.42188 5.07812
Q9.42188 7.8125 11.2812 9.71875
Q13.1406 11.625 15.9219 11.625
Q18.6094 11.625 20.5 9.71875
Q22.4062 7.8125 22.4062 5.07812
Q22.4062 2.39062 20.5 0.484375
Q18.6094 -1.42188 15.9219 -1.42188
Q13.1406 -1.42188 11.2812 0.453125
Q9.42188 2.34375 9.42188 5.07812" id="DejaVuSerif-2e"/>
     </defs>
     <g transform="translate(75.976875 247.62)rotate(-90.0)scale(0.12 -0.12)">
      <use transform="translate(0.0 0.015625)" xlink:href="#Cmmi10-ae"/>
      <use transform="translate(63.916015625 0.015625)" xlink:href="#DejaVuSerif-20"/>
      <use transform="translate(95.703125 0.015625)" xlink:href="#DejaVuSerif-28"/>
      <use transform="translate(134.716796875 0.015625)" xlink:href="#DejaVuSerif-61"/>
      <use transform="translate(194.3359375 0.015625)" xlink:href="#DejaVuSerif-2e"/>
      <use transform="translate(226.123046875 0.015625)" xlink:href="#DejaVuSerif-75"/>
      <use transform="translate(290.52734375 0.015625)" xlink:href="#DejaVuSerif-2e"/>
      <use transform="translate(322.314453125 0.015625)" xlink:href="#DejaVuSerif-29"/>
     </g>
    </g>
   </g>
   <g id="patch_3">
    <path d="
M126 86.4
L465.652 86.4" style="fill:none;stroke:#000000;"/>
   </g>
   <g id="patch_4">
    <path d="
M465.652 365.4
L465.652 86.4" style="fill:none;stroke:#000000;"/>
   </g>
   <g id="patch_5">
    <path d="
M126 365.4
L465.652 365.4" style="fill:none;stroke:#000000;"/>
   </g>
   <g id="patch_6">
    <path d="
M126 365.4
L126 86.4" style="fill:none;stroke:#000000;"/>
   </g>
   <g id="text_18">
    <!-- $^1P_1$ -->
    <defs>
     <path d="
M4.89062 0
Q3.90625 0 3.90625 1.3125
Q3.95312 1.5625 4.09375 2.17188
Q4.25 2.78125 4.51562 3.14062
Q4.78125 3.51562 5.17188 3.51562
Q11.2812 3.51562 13.7188 4.20312
Q14.9844 4.64062 15.5781 6.89062
L29.2969 61.8125
Q29.5 62.7969 29.5 63.1875
Q29.5 64.2656 28.3281 64.4062
Q26.4219 64.7969 21.0938 64.7969
Q20.125 64.7969 20.125 66.1094
Q20.1719 66.3594 20.3125 66.9688
Q20.4531 67.5781 20.7188 67.9375
Q21 68.3125 21.3906 68.3125
L55.9062 68.3125
Q60.6406 68.3125 65.0781 66.625
Q69.5312 64.9375 72.3594 61.4688
Q75.2031 58.0156 75.2031 53.0781
Q75.2031 46.7344 70.7344 41.75
Q66.2656 36.7656 59.5938 33.9844
Q52.9375 31.2031 46.6875 31.2031
L30.4219 31.2031
L24.3125 6.5
Q24.125 5.51562 24.125 5.07812
Q24.125 4.6875 24.2344 4.42188
Q24.3594 4.15625 24.5781 4.07812
Q24.8125 4 25.2969 3.90625
Q27.2031 3.51562 32.5156 3.51562
Q33.5 3.51562 33.5 2.20312
Q33.1562 0.78125 32.9531 0.390625
Q32.7656 0 31.7812 0
z

M30.9062 34.1875
L44.9219 34.1875
Q54.6406 34.1875 59.7188 39.4062
Q62.3125 42 63.9375 46.875
Q65.5781 51.7656 65.5781 55.7188
Q65.5781 60.6406 61.8125 62.7188
Q58.0625 64.7969 52.4844 64.7969
L42.9219 64.7969
Q40.1875 64.7969 39.2969 64.3281
Q38.4219 63.875 37.7031 61.375
z
" id="Cmmi10-50"/>
     <path d="
M9.28125 0
L9.28125 3.51562
Q21.7812 3.51562 21.7812 6.6875
L21.7812 59.1875
Q16.6094 56.6875 8.6875 56.6875
L8.6875 60.2031
Q20.9531 60.2031 27.2031 66.6094
L28.6094 66.6094
Q28.9531 66.6094 29.2656 66.3281
Q29.5938 66.0625 29.5938 65.7188
L29.5938 6.6875
Q29.5938 3.51562 42.0938 3.51562
L42.0938 0
z
" id="Cmr10-31"/>
    </defs>
    <g transform="translate(282.722086957 81.4)scale(0.144 -0.144)">
     <use transform="translate(0.0 43.3734375)scale(0.7)" xlink:href="#Cmr10-31"/>
     <use transform="translate(67.00625 0.8578125)" xlink:href="#Cmmi10-50"/>
     <use transform="translate(131.215234375 -24.6515625)scale(0.7)" xlink:href="#Cmr10-31"/>
    </g>
   </g>
   <g id="legend_1">
    <g id="patch_7">
     <path d="
M390.34 164.009
L458.452 164.009
L458.452 93.6
L390.34 93.6
L390.34 164.009
z
" style="fill:#ffffff;stroke:#000000;"/>
    </g>
    <g id="line2d_49">
     <path d="
M400.42 105.262
L420.58 105.262" style="fill:none;stroke:#0000ff;stroke-linecap:square;"/>
    </g>
    <g id="line2d_50"/>
    <g id="text_19">
     <!-- $\alpha_s$ -->
     <defs>
      <path d="
M8.6875 6.10938
Q11.375 1.51562 19.4844 1.51562
Q23 1.51562 26.1719 2.70312
Q29.3438 3.90625 31.4219 6.29688
Q33.5 8.6875 33.5 12.1094
Q33.5 14.7031 31.6406 16.3594
Q29.7812 18.0156 27.0938 18.6094
L21.6875 19.6719
Q17.9688 20.6094 15.5781 23.1406
Q13.1875 25.6875 13.1875 29.2969
Q13.1875 33.7344 15.5938 37.1562
Q18.0156 40.5781 21.9688 42.375
Q25.9219 44.1875 30.1719 44.1875
Q34.7188 44.1875 38.2969 42.0156
Q41.8906 39.8438 41.8906 35.5938
Q41.8906 33.2969 40.5938 31.5312
Q39.3125 29.7812 37.0156 29.7812
Q35.6875 29.7812 34.7344 30.6406
Q33.7969 31.5 33.7969 32.8125
Q33.7969 33.9844 34.4531 35.0781
Q35.1094 36.1875 36.2031 36.8438
Q37.3125 37.5 38.4844 37.5
Q37.5938 39.6562 35.1719 40.625
Q32.7656 41.6094 29.9844 41.6094
Q27.4375 41.6094 24.8906 40.5781
Q22.3594 39.5469 20.8125 37.5625
Q19.2812 35.5938 19.2812 32.9062
Q19.2812 31.1094 20.5469 29.7344
Q21.8281 28.375 23.6875 27.7812
L29.5 26.6094
Q32.2812 26.0312 34.5938 24.5312
Q36.9219 23.0469 38.25 20.7656
Q39.5938 18.5 39.5938 15.5781
Q39.5938 11.8594 37.5156 8.25
Q35.4531 4.64062 32.4219 2.48438
Q27.0938 -1.125 19.3906 -1.125
Q14.0625 -1.125 9.60938 1.3125
Q5.17188 3.76562 5.17188 8.59375
Q5.17188 11.3281 6.75 13.3438
Q8.34375 15.375 11.0781 15.375
Q12.7031 15.375 13.7969 14.3906
Q14.8906 13.4219 14.8906 11.8125
Q14.8906 9.51562 13.1719 7.8125
Q11.4688 6.10938 9.1875 6.10938
z
" id="Cmmi10-73"/>
     </defs>
     <g transform="translate(436.420173913 110.30175)scale(0.144 -0.144)">
      <use transform="translate(0.0 0.8125)" xlink:href="#Cmmi10-ae"/>
      <use transform="translate(63.916015625 -24.696875)scale(0.7)" xlink:href="#Cmmi10-73"/>
     </g>
    </g>
    <g id="line2d_51">
     <path d="
M400.42 127.292
L420.58 127.292" style="fill:none;stroke:#008000;stroke-linecap:square;"/>
    </g>
    <g id="line2d_52"/>
    <g id="text_20">
     <!-- $\alpha_v$ -->
     <defs>
      <path d="
M10.6875 11.2812
Q10.6875 13.5312 11.2188 16.2031
Q11.7656 18.8906 12.2969 20.625
Q12.8438 22.3594 14.75 27.3906
Q16.6562 32.4219 16.7031 32.625
Q18.0156 36.2812 18.0156 38.625
Q18.0156 41.6094 15.8281 41.6094
Q11.8594 41.6094 9.29688 37.5312
Q6.73438 33.4531 5.51562 28.4219
Q5.32812 27.7812 4.6875 27.7812
L3.51562 27.7812
Q2.6875 27.7812 2.6875 28.7188
L2.6875 29
Q4.29688 34.9688 7.60938 39.5781
Q10.9375 44.1875 16.0156 44.1875
Q19.5781 44.1875 22.0469 41.8438
Q24.5156 39.5 24.5156 35.8906
Q24.5156 34.0312 23.6875 31.9844
Q21.7344 26.9062 20.6094 23.8438
Q19.4844 20.7969 18.5312 17.0156
Q17.5781 13.2344 17.5781 10.0156
Q17.5781 6.25 19.3125 3.875
Q21.0469 1.51562 24.7031 1.51562
Q31.6406 1.51562 37.2031 12.2031
Q38.9688 15.6719 40.5312 20.3594
Q42.0938 25.0469 42.0938 27.9844
Q42.0938 31 41.1094 32.6875
Q40.1406 34.375 38.5781 36.2031
Q37.0156 38.0312 37.0156 39.1094
Q37.0156 41.0625 38.625 42.6719
Q40.2344 44.2812 42.1875 44.2812
Q44.5781 44.2812 45.625 42.0781
Q46.6875 39.8906 46.6875 37.1094
Q46.6875 33.7969 45.7344 29.2031
Q44.7812 24.6094 43.0938 19.6719
Q41.4062 14.75 39.9844 11.9219
Q33.4062 -1.125 24.6094 -1.125
Q18.3125 -1.125 14.5 2.01562
Q10.6875 5.17188 10.6875 11.2812" id="Cmmi10-76"/>
     </defs>
     <g transform="translate(436.420173913 132.3315)scale(0.144 -0.144)">
      <use transform="translate(0.0 0.8125)" xlink:href="#Cmmi10-ae"/>
      <use transform="translate(63.916015625 -24.696875)scale(0.7)" xlink:href="#Cmmi10-76"/>
     </g>
    </g>
    <g id="line2d_53">
     <path d="
M400.42 149.321
L420.58 149.321" style="fill:none;stroke:#ff0000;stroke-linecap:square;"/>
    </g>
    <g id="line2d_54"/>
    <g id="text_21">
     <!-- $\alpha_t$ -->
     <defs>
      <path d="
M6.20312 8.10938
Q6.20312 9.57812 6.5 10.8906
L13.7188 39.5938
L3.21875 39.5938
Q2.20312 39.5938 2.20312 40.9219
Q2.59375 43.1094 3.51562 43.1094
L14.5938 43.1094
L18.6094 59.4219
Q19 60.75 20.1719 61.6719
Q21.3438 62.5938 22.7969 62.5938
Q24.0781 62.5938 24.9219 61.8281
Q25.7812 61.0781 25.7812 59.8125
Q25.7812 59.5156 25.75 59.3438
Q25.7344 59.1875 25.6875 58.9844
L21.6875 43.1094
L31.9844 43.1094
Q33.0156 43.1094 33.0156 41.7969
Q32.9531 41.5469 32.8125 40.9531
Q32.6719 40.375 32.4219 39.9844
Q32.1719 39.5938 31.6875 39.5938
L20.7969 39.5938
L13.625 10.6875
Q12.8906 7.85938 12.8906 5.8125
Q12.8906 1.51562 15.8281 1.51562
Q20.2188 1.51562 23.6094 5.64062
Q27 9.76562 28.8125 14.7031
Q29.2031 15.2812 29.5938 15.2812
L30.8125 15.2812
Q31.2031 15.2812 31.4375 15.0156
Q31.6875 14.75 31.6875 14.4062
Q31.6875 14.2031 31.5938 14.1094
Q29.3906 8.0625 25.1875 3.46875
Q21 -1.125 15.5781 -1.125
Q11.625 -1.125 8.90625 1.45312
Q6.20312 4.04688 6.20312 8.10938" id="Cmmi10-74"/>
     </defs>
     <g transform="translate(436.420173913 154.36125)scale(0.144 -0.144)">
      <use transform="translate(0.0 0.8125)" xlink:href="#Cmmi10-ae"/>
      <use transform="translate(63.916015625 -24.696875)scale(0.7)" xlink:href="#Cmmi10-74"/>
     </g>
    </g>
   </g>
  </g>
  <g id="axes_2">
   <g id="patch_8">
    <path d="
M567.548 365.4
L907.2 365.4
L907.2 86.4
L567.548 86.4
z
" style="fill:#ffffff;"/>
   </g>
   <g id="line2d_55">
    <path clip-path="url(#pe1dd2dcbed)" d="
M1009 225.612
L893.911 225.341
L832.718 224.993
L795.855 224.58
L771.198 224.1
L753.36 223.54
L740.72 222.937
L730.729 222.247
L723.244 221.523
L717.291 220.744
L712.186 219.855
L708.19 218.945
L704.779 217.95
L701.882 216.88
L699.446 215.753
L697.427 214.604
L695.469 213.233
L693.882 211.872
L692.334 210.252
L690.823 208.293
L689.64 206.402
L688.48 204.132
L687.342 201.353
L686.225 197.875
L685.401 194.633
L684.588 190.639
L683.787 185.594
L682.996 179.025
L682.216 170.117
L681.702 162.18
L681.192 151.773
L680.687 137.533
L680.186 116.864
L679.69 84.145
L679.198 24.5049
L679.081 -1
M678.201 -1
L678.176 865
M677.61 865
L677.51 694.419
L677.273 546.157
L676.802 422.764
L676.335 368.517
L675.872 338.017
L675.185 311.113
L674.507 294.874
L673.837 284.008
L673.176 276.227
L672.306 268.742
L671.451 263.314
L670.61 259.197
L669.577 255.267
L668.565 252.248
L667.376 249.439
L666.216 247.242
L664.895 245.217
L663.428 243.399
L661.83 241.795
L660.116 240.394
L658.14 239.081
L655.938 237.898
L653.404 236.802
L650.467 235.788
L647.099 234.867
L643.086 234.008
L638.26 233.214
L632.487 232.497
L625.403 231.849
L618.511 231.385
L618.511 231.385" style="fill:none;stroke:#0000ff;stroke-linecap:square;"/>
   </g>
   <g id="line2d_56">
    <path clip-path="url(#pe1dd2dcbed)" d="
M1009 226.333
L911.552 226.645
L853.574 227.035
L815.902 227.497
L789.874 228.023
L770.387 228.631
L756.113 229.284
L744.944 230.003
L736.133 230.774
L728.664 231.646
L722.769 232.547
L717.732 233.535
L713.429 234.607
L709.762 235.754
L706.653 236.96
L704.043 238.198
L701.528 239.653
L699.446 241.12
L697.427 242.844
L695.791 244.531
L694.196 246.506
L692.64 248.849
L691.423 251.064
L690.229 253.666
L689.058 256.768
L687.909 260.526
L686.781 265.175
L685.949 269.453
L685.129 274.654
L684.32 281.111
L683.522 289.342
L682.735 300.194
L681.958 315.152
L681.446 328.722
L680.939 346.87
L680.436 372.38
L679.938 410.872
L679.444 475.631
L679.198 527.993
L678.954 607.472
L678.711 742.498
L678.605 865
M678.207 865
L678.19 -1
M676.424 -1
L676.103 37.6607
L675.642 73.8309
L674.958 107.436
L674.283 128.546
L673.616 143.036
L672.739 156.509
L671.877 166.008
L671.029 173.065
L669.988 179.688
L668.967 184.699
L667.967 188.622
L666.793 192.335
L665.645 195.279
L664.34 198.027
L662.89 200.52
L661.482 202.52
L659.948 204.343
L658.14 206.128
L656.246 207.676
L654.134 209.109
L651.84 210.4
L649.269 211.597
L646.238 212.754
L642.862 213.8
L638.954 214.777
L634.362 215.689
L628.962 216.527
L622.588 217.286
L618.511 217.673
L618.511 217.673" style="fill:none;stroke:#008000;stroke-linecap:square;"/>
   </g>
   <g id="line2d_57">
    <path clip-path="url(#pe1dd2dcbed)" d="
M1009 226.188
L893.911 226.459
L832.718 226.807
L795.855 227.22
L771.198 227.7
L753.36 228.26
L740.72 228.863
L730.729 229.553
L723.244 230.277
L717.291 231.056
L712.186 231.945
L708.19 232.855
L704.779 233.85
L701.882 234.92
L699.446 236.047
L697.427 237.196
L695.469 238.567
L693.882 239.928
L692.334 241.548
L690.823 243.507
L689.64 245.398
L688.48 247.668
L687.342 250.447
L686.225 253.925
L685.401 257.167
L684.588 261.161
L683.787 266.206
L682.996 272.775
L682.216 281.683
L681.702 289.62
L681.192 300.027
L680.687 314.267
L680.186 334.936
L679.69 367.655
L679.198 427.295
L678.954 480.281
L678.711 570.299
L678.426 865
M678.213 865
L678.188 -1
M676.953 -1
L676.568 60.5784
L676.103 100.407
L675.642 124.521
L674.958 146.924
L674.283 160.997
L673.616 170.657
L672.739 179.639
L671.877 185.972
L671.029 190.677
L669.988 195.092
L668.967 198.433
L667.769 201.504
L666.6 203.881
L665.269 206.053
L663.791 207.987
L662.181 209.682
L660.454 211.152
L658.626 212.421
L656.556 213.594
L654.134 214.706
L651.286 215.752
L647.978 216.713
L644.108 217.593
L639.56 218.393
L634.013 219.133
L627.234 219.803
L618.923 220.391
L618.511 220.415
L618.511 220.415" style="fill:none;stroke:#ff0000;stroke-linecap:square;"/>
   </g>
   <g id="matplotlib.axis_3">
    <g id="xtick_7">
     <g id="line2d_58">
      <path clip-path="url(#pe1dd2dcbed)" d="
M567.548 365.4
L567.548 86.4" style="fill:none;stroke:#000000;stroke-dasharray:1.000000,3.000000;stroke-dashoffset:0.0;stroke-width:0.5;"/>
     </g>
     <g id="line2d_59">
      <g>
       <use style="stroke:#000000;stroke-width:0.5;" x="567.547826087" xlink:href="#m93b0483c22" y="365.4"/>
      </g>
     </g>
     <g id="line2d_60">
      <g>
       <use style="stroke:#000000;stroke-width:0.5;" x="567.547826087" xlink:href="#m741efc42ff" y="86.4"/>
      </g>
     </g>
     <g id="text_22">
      <!-- 0 -->
      <g transform="translate(564.524388587 378.518125)scale(0.12 -0.12)">
       <use xlink:href="#DejaVuSerif-30"/>
      </g>
     </g>
    </g>
    <g id="xtick_8">
     <g id="line2d_61">
      <path clip-path="url(#pe1dd2dcbed)" d="
M652.461 365.4
L652.461 86.4" style="fill:none;stroke:#000000;stroke-dasharray:1.000000,3.000000;stroke-dashoffset:0.0;stroke-width:0.5;"/>
     </g>
     <g id="line2d_62">
      <g>
       <use style="stroke:#000000;stroke-width:0.5;" x="652.460869565" xlink:href="#m93b0483c22" y="365.4"/>
      </g>
     </g>
     <g id="line2d_63">
      <g>
       <use style="stroke:#000000;stroke-width:0.5;" x="652.460869565" xlink:href="#m741efc42ff" y="86.4"/>
      </g>
     </g>
     <g id="text_23">
      <!-- 500 -->
      <g transform="translate(641.916807065 378.518125)scale(0.12 -0.12)">
       <use xlink:href="#DejaVuSerif-35"/>
       <use x="63.623046875" xlink:href="#DejaVuSerif-30"/>
       <use x="127.24609375" xlink:href="#DejaVuSerif-30"/>
      </g>
     </g>
    </g>
    <g id="xtick_9">
     <g id="line2d_64">
      <path clip-path="url(#pe1dd2dcbed)" d="
M737.374 365.4
L737.374 86.4" style="fill:none;stroke:#000000;stroke-dasharray:1.000000,3.000000;stroke-dashoffset:0.0;stroke-width:0.5;"/>
     </g>
     <g id="line2d_65">
      <g>
       <use style="stroke:#000000;stroke-width:0.5;" x="737.373913043" xlink:href="#m93b0483c22" y="365.4"/>
      </g>
     </g>
     <g id="line2d_66">
      <g>
       <use style="stroke:#000000;stroke-width:0.5;" x="737.373913043" xlink:href="#m741efc42ff" y="86.4"/>
      </g>
     </g>
     <g id="text_24">
      <!-- 1000 -->
      <g transform="translate(723.234538043 378.518125)scale(0.12 -0.12)">
       <use xlink:href="#DejaVuSerif-31"/>
       <use x="63.623046875" xlink:href="#DejaVuSerif-30"/>
       <use x="127.24609375" xlink:href="#DejaVuSerif-30"/>
       <use x="190.869140625" xlink:href="#DejaVuSerif-30"/>
      </g>
     </g>
    </g>
    <g id="xtick_10">
     <g id="line2d_67">
      <path clip-path="url(#pe1dd2dcbed)" d="
M822.287 365.4
L822.287 86.4" style="fill:none;stroke:#000000;stroke-dasharray:1.000000,3.000000;stroke-dashoffset:0.0;stroke-width:0.5;"/>
     </g>
     <g id="line2d_68">
      <g>
       <use style="stroke:#000000;stroke-width:0.5;" x="822.286956522" xlink:href="#m93b0483c22" y="365.4"/>
      </g>
     </g>
     <g id="line2d_69">
      <g>
       <use style="stroke:#000000;stroke-width:0.5;" x="822.286956522" xlink:href="#m741efc42ff" y="86.4"/>
      </g>
     </g>
     <g id="text_25">
      <!-- 1500 -->
      <g transform="translate(808.147581522 378.518125)scale(0.12 -0.12)">
       <use xlink:href="#DejaVuSerif-31"/>
       <use x="63.623046875" xlink:href="#DejaVuSerif-35"/>
       <use x="127.24609375" xlink:href="#DejaVuSerif-30"/>
       <use x="190.869140625" xlink:href="#DejaVuSerif-30"/>
      </g>
     </g>
    </g>
    <g id="xtick_11">
     <g id="line2d_70">
      <path clip-path="url(#pe1dd2dcbed)" d="
M907.2 365.4
L907.2 86.4" style="fill:none;stroke:#000000;stroke-dasharray:1.000000,3.000000;stroke-dashoffset:0.0;stroke-width:0.5;"/>
     </g>
     <g id="line2d_71">
      <g>
       <use style="stroke:#000000;stroke-width:0.5;" x="907.2" xlink:href="#m93b0483c22" y="365.4"/>
      </g>
     </g>
     <g id="line2d_72">
      <g>
       <use style="stroke:#000000;stroke-width:0.5;" x="907.2" xlink:href="#m741efc42ff" y="86.4"/>
      </g>
     </g>
     <g id="text_26">
      <!-- 2000 -->
      <g transform="translate(892.7353125 378.518125)scale(0.12 -0.12)">
       <use xlink:href="#DejaVuSerif-32"/>
       <use x="63.623046875" xlink:href="#DejaVuSerif-30"/>
       <use x="127.24609375" xlink:href="#DejaVuSerif-30"/>
       <use x="190.869140625" xlink:href="#DejaVuSerif-30"/>
      </g>
     </g>
    </g>
    <g id="text_27">
     <!-- $f$ (THz) -->
     <defs>
      <path d="
M5.51562 0
L5.51562 5.17188
L14.7969 5.17188
L14.7969 67.6719
L5.51562 67.6719
L5.51562 72.9062
L33.9844 72.9062
L33.9844 67.6719
L24.7031 67.6719
L24.7031 42.4844
L62.5 42.4844
L62.5 67.6719
L53.2188 67.6719
L53.2188 72.9062
L81.6875 72.9062
L81.6875 67.6719
L72.4062 67.6719
L72.4062 5.17188
L81.6875 5.17188
L81.6875 0
L53.2188 0
L53.2188 5.17188
L62.5 5.17188
L62.5 36.5312
L24.7031 36.5312
L24.7031 5.17188
L33.9844 5.17188
L33.9844 0
z
" id="DejaVuSerif-48"/>
      <path d="
M19.0938 0
L19.0938 5.17188
L28.4219 5.17188
L28.4219 67.0938
L6.98438 67.0938
L6.98438 55.7188
L0.984375 55.7188
L0.984375 72.9062
L65.7188 72.9062
L65.7188 55.7188
L59.7188 55.7188
L59.7188 67.0938
L38.2812 67.0938
L38.2812 5.17188
L47.6094 5.17188
L47.6094 0
z
" id="DejaVuSerif-54"/>
      <path d="
M4 0
L4 4.20312
L36.5312 46.6875
L10.7969 46.6875
L10.7969 37.7031
L5.60938 37.7031
L5.60938 51.9062
L48.0938 51.9062
L48.0938 47.7031
L15.5781 5.17188
L43.7969 5.17188
L43.7969 14.5938
L49.0312 14.5938
L49.0312 0
z
" id="DejaVuSerif-7a"/>
      <path d="
M9.71875 -16.5
Q11.5781 -17.9219 14.2031 -17.9219
Q17.7812 -17.9219 20.0156 -10.0156
Q20.9531 -6.20312 25.0938 15.0938
L29.6875 39.5938
L21.0938 39.5938
Q20.125 39.5938 20.125 40.9219
Q20.5156 43.1094 21.3906 43.1094
L30.3281 43.1094
L31.5 49.6094
Q32.0781 52.6406 32.5625 54.8125
Q33.0625 56.9844 33.625 58.8281
Q34.1875 60.6875 35.2969 62.9844
Q37.0156 66.2656 39.9219 68.3906
Q42.8281 70.5156 46.1875 70.5156
Q48.3906 70.5156 50.4688 69.7031
Q52.5469 68.8906 53.8594 67.2812
Q55.1719 65.6719 55.1719 63.4844
Q55.1719 60.9375 53.4844 59.0469
Q51.8125 57.1719 49.4219 57.1719
Q47.7969 57.1719 46.6562 58.1719
Q45.5156 59.1875 45.5156 60.7969
Q45.5156 62.9844 47 64.625
Q48.4844 66.2656 50.6875 66.5
Q48.8281 67.9219 46.0938 67.9219
Q44.5781 67.9219 43.2344 66.5
Q41.8906 65.0938 41.5 63.4844
Q40.875 60.9375 38.7188 49.7031
L37.5 43.1094
L47.7969 43.1094
Q48.7812 43.1094 48.7812 41.7969
Q48.7344 41.5469 48.5781 40.9375
Q48.4375 40.3281 48.1719 39.9531
Q47.9062 39.5938 47.5156 39.5938
L36.8125 39.5938
L32.1719 15.1875
Q31.2969 9.85938 30.1406 4.35938
Q29 -1.125 26.9219 -6.90625
Q24.8594 -12.7031 21.625 -16.6094
Q18.4062 -20.5156 14.0156 -20.5156
Q10.6406 -20.5156 7.98438 -18.5781
Q5.32812 -16.6562 5.32812 -13.4844
Q5.32812 -10.9375 6.95312 -9.04688
Q8.59375 -7.17188 11.0781 -7.17188
Q12.75 -7.17188 13.8594 -8.17188
Q14.9844 -9.1875 14.9844 -10.7969
Q14.9844 -12.9375 13.3906 -14.7188
Q11.8125 -16.5 9.71875 -16.5" id="Cmmi10-66"/>
     </defs>
     <g transform="translate(715.413913043 395.13375)scale(0.12 -0.12)">
      <use transform="translate(0.0 0.015625)" xlink:href="#Cmmi10-66"/>
      <use transform="translate(48.876953125 0.015625)" xlink:href="#DejaVuSerif-20"/>
      <use transform="translate(80.6640625 0.015625)" xlink:href="#DejaVuSerif-28"/>
      <use transform="translate(119.677734375 0.015625)" xlink:href="#DejaVuSerif-54"/>
      <use transform="translate(186.376953125 0.015625)" xlink:href="#DejaVuSerif-48"/>
      <use transform="translate(273.583984375 0.015625)" xlink:href="#DejaVuSerif-7a"/>
      <use transform="translate(326.26953125 0.015625)" xlink:href="#DejaVuSerif-29"/>
     </g>
    </g>
   </g>
   <g id="matplotlib.axis_4">
    <g id="ytick_10">
     <g id="line2d_73">
      <path clip-path="url(#pe1dd2dcbed)" d="
M567.548 365.4
L907.2 365.4" style="fill:none;stroke:#000000;stroke-dasharray:1.000000,3.000000;stroke-dashoffset:0.0;stroke-width:0.5;"/>
     </g>
     <g id="line2d_74">
      <g>
       <use style="stroke:#000000;stroke-width:0.5;" x="567.547826087" xlink:href="#m728421d6d4" y="365.4"/>
      </g>
     </g>
     <g id="line2d_75">
      <g>
       <use style="stroke:#000000;stroke-width:0.5;" x="907.2" xlink:href="#mcb0005524f" y="365.4"/>
      </g>
     </g>
     <g id="text_28">
      <!-- −2000 -->
      <g transform="translate(525.020326087 368.71125)scale(0.12 -0.12)">
       <use xlink:href="#DejaVuSerif-2212"/>
       <use x="83.7890625" xlink:href="#DejaVuSerif-32"/>
       <use x="147.412109375" xlink:href="#DejaVuSerif-30"/>
       <use x="211.03515625" xlink:href="#DejaVuSerif-30"/>
       <use x="274.658203125" xlink:href="#DejaVuSerif-30"/>
      </g>
     </g>
    </g>
    <g id="ytick_11">
     <g id="line2d_76">
      <path clip-path="url(#pe1dd2dcbed)" d="
M567.548 330.525
L907.2 330.525" style="fill:none;stroke:#000000;stroke-dasharray:1.000000,3.000000;stroke-dashoffset:0.0;stroke-width:0.5;"/>
     </g>
     <g id="line2d_77">
      <g>
       <use style="stroke:#000000;stroke-width:0.5;" x="567.547826087" xlink:href="#m728421d6d4" y="330.525"/>
      </g>
     </g>
     <g id="line2d_78">
      <g>
       <use style="stroke:#000000;stroke-width:0.5;" x="907.2" xlink:href="#mcb0005524f" y="330.525"/>
      </g>
     </g>
     <g id="text_29">
      <!-- −1500 -->
      <g transform="translate(525.020326087 333.83625)scale(0.12 -0.12)">
       <use xlink:href="#DejaVuSerif-2212"/>
       <use x="83.7890625" xlink:href="#DejaVuSerif-31"/>
       <use x="147.412109375" xlink:href="#DejaVuSerif-35"/>
       <use x="211.03515625" xlink:href="#DejaVuSerif-30"/>
       <use x="274.658203125" xlink:href="#DejaVuSerif-30"/>
      </g>
     </g>
    </g>
    <g id="ytick_12">
     <g id="line2d_79">
      <path clip-path="url(#pe1dd2dcbed)" d="
M567.548 295.65
L907.2 295.65" style="fill:none;stroke:#000000;stroke-dasharray:1.000000,3.000000;stroke-dashoffset:0.0;stroke-width:0.5;"/>
     </g>
     <g id="line2d_80">
      <g>
       <use style="stroke:#000000;stroke-width:0.5;" x="567.547826087" xlink:href="#m728421d6d4" y="295.65"/>
      </g>
     </g>
     <g id="line2d_81">
      <g>
       <use style="stroke:#000000;stroke-width:0.5;" x="907.2" xlink:href="#mcb0005524f" y="295.65"/>
      </g>
     </g>
     <g id="text_30">
      <!-- −1000 -->
      <g transform="translate(525.020326087 298.96125)scale(0.12 -0.12)">
       <use xlink:href="#DejaVuSerif-2212"/>
       <use x="83.7890625" xlink:href="#DejaVuSerif-31"/>
       <use x="147.412109375" xlink:href="#DejaVuSerif-30"/>
       <use x="211.03515625" xlink:href="#DejaVuSerif-30"/>
       <use x="274.658203125" xlink:href="#DejaVuSerif-30"/>
      </g>
     </g>
    </g>
    <g id="ytick_13">
     <g id="line2d_82">
      <path clip-path="url(#pe1dd2dcbed)" d="
M567.548 260.775
L907.2 260.775" style="fill:none;stroke:#000000;stroke-dasharray:1.000000,3.000000;stroke-dashoffset:0.0;stroke-width:0.5;"/>
     </g>
     <g id="line2d_83">
      <g>
       <use style="stroke:#000000;stroke-width:0.5;" x="567.547826087" xlink:href="#m728421d6d4" y="260.775"/>
      </g>
     </g>
     <g id="line2d_84">
      <g>
       <use style="stroke:#000000;stroke-width:0.5;" x="907.2" xlink:href="#mcb0005524f" y="260.775"/>
      </g>
     </g>
     <g id="text_31">
      <!-- −500 -->
      <g transform="translate(532.655326087 264.08625)scale(0.12 -0.12)">
       <use xlink:href="#DejaVuSerif-2212"/>
       <use x="83.7890625" xlink:href="#DejaVuSerif-35"/>
       <use x="147.412109375" xlink:href="#DejaVuSerif-30"/>
       <use x="211.03515625" xlink:href="#DejaVuSerif-30"/>
      </g>
     </g>
    </g>
    <g id="ytick_14">
     <g id="line2d_85">
      <path clip-path="url(#pe1dd2dcbed)" d="
M567.548 225.9
L907.2 225.9" style="fill:none;stroke:#000000;stroke-dasharray:1.000000,3.000000;stroke-dashoffset:0.0;stroke-width:0.5;"/>
     </g>
     <g id="line2d_86">
      <g>
       <use style="stroke:#000000;stroke-width:0.5;" x="567.547826087" xlink:href="#m728421d6d4" y="225.9"/>
      </g>
     </g>
     <g id="line2d_87">
      <g>
       <use style="stroke:#000000;stroke-width:0.5;" x="907.2" xlink:href="#mcb0005524f" y="225.9"/>
      </g>
     </g>
     <g id="text_32">
      <!-- 0 -->
      <g transform="translate(557.500951087 229.21125)scale(0.12 -0.12)">
       <use xlink:href="#DejaVuSerif-30"/>
      </g>
     </g>
    </g>
    <g id="ytick_15">
     <g id="line2d_88">
      <path clip-path="url(#pe1dd2dcbed)" d="
M567.548 191.025
L907.2 191.025" style="fill:none;stroke:#000000;stroke-dasharray:1.000000,3.000000;stroke-dashoffset:0.0;stroke-width:0.5;"/>
     </g>
     <g id="line2d_89">
      <g>
       <use style="stroke:#000000;stroke-width:0.5;" x="567.547826087" xlink:href="#m728421d6d4" y="191.025"/>
      </g>
     </g>
     <g id="line2d_90">
      <g>
       <use style="stroke:#000000;stroke-width:0.5;" x="907.2" xlink:href="#mcb0005524f" y="191.025"/>
      </g>
     </g>
     <g id="text_33">
      <!-- 500 -->
      <g transform="translate(542.459701087 194.33625)scale(0.12 -0.12)">
       <use xlink:href="#DejaVuSerif-35"/>
       <use x="63.623046875" xlink:href="#DejaVuSerif-30"/>
       <use x="127.24609375" xlink:href="#DejaVuSerif-30"/>
      </g>
     </g>
    </g>
    <g id="ytick_16">
     <g id="line2d_91">
      <path clip-path="url(#pe1dd2dcbed)" d="
M567.548 156.15
L907.2 156.15" style="fill:none;stroke:#000000;stroke-dasharray:1.000000,3.000000;stroke-dashoffset:0.0;stroke-width:0.5;"/>
     </g>
     <g id="line2d_92">
      <g>
       <use style="stroke:#000000;stroke-width:0.5;" x="567.547826087" xlink:href="#m728421d6d4" y="156.15"/>
      </g>
     </g>
     <g id="line2d_93">
      <g>
       <use style="stroke:#000000;stroke-width:0.5;" x="907.2" xlink:href="#mcb0005524f" y="156.15"/>
      </g>
     </g>
     <g id="text_34">
      <!-- 1000 -->
      <g transform="translate(535.269076087 159.46125)scale(0.12 -0.12)">
       <use xlink:href="#DejaVuSerif-31"/>
       <use x="63.623046875" xlink:href="#DejaVuSerif-30"/>
       <use x="127.24609375" xlink:href="#DejaVuSerif-30"/>
       <use x="190.869140625" xlink:href="#DejaVuSerif-30"/>
      </g>
     </g>
    </g>
    <g id="ytick_17">
     <g id="line2d_94">
      <path clip-path="url(#pe1dd2dcbed)" d="
M567.548 121.275
L907.2 121.275" style="fill:none;stroke:#000000;stroke-dasharray:1.000000,3.000000;stroke-dashoffset:0.0;stroke-width:0.5;"/>
     </g>
     <g id="line2d_95">
      <g>
       <use style="stroke:#000000;stroke-width:0.5;" x="567.547826087" xlink:href="#m728421d6d4" y="121.275"/>
      </g>
     </g>
     <g id="line2d_96">
      <g>
       <use style="stroke:#000000;stroke-width:0.5;" x="907.2" xlink:href="#mcb0005524f" y="121.275"/>
      </g>
     </g>
     <g id="text_35">
      <!-- 1500 -->
      <g transform="translate(535.269076087 124.58625)scale(0.12 -0.12)">
       <use xlink:href="#DejaVuSerif-31"/>
       <use x="63.623046875" xlink:href="#DejaVuSerif-35"/>
       <use x="127.24609375" xlink:href="#DejaVuSerif-30"/>
       <use x="190.869140625" xlink:href="#DejaVuSerif-30"/>
      </g>
     </g>
    </g>
    <g id="ytick_18">
     <g id="line2d_97">
      <path clip-path="url(#pe1dd2dcbed)" d="
M567.548 86.4
L907.2 86.4" style="fill:none;stroke:#000000;stroke-dasharray:1.000000,3.000000;stroke-dashoffset:0.0;stroke-width:0.5;"/>
     </g>
     <g id="line2d_98">
      <g>
       <use style="stroke:#000000;stroke-width:0.5;" x="567.547826087" xlink:href="#m728421d6d4" y="86.4"/>
      </g>
     </g>
     <g id="line2d_99">
      <g>
       <use style="stroke:#000000;stroke-width:0.5;" x="907.2" xlink:href="#mcb0005524f" y="86.4"/>
      </g>
     </g>
     <g id="text_36">
      <!-- 2000 -->
      <g transform="translate(534.618451087 89.71125)scale(0.12 -0.12)">
       <use xlink:href="#DejaVuSerif-32"/>
       <use x="63.623046875" xlink:href="#DejaVuSerif-30"/>
       <use x="127.24609375" xlink:href="#DejaVuSerif-30"/>
       <use x="190.869140625" xlink:href="#DejaVuSerif-30"/>
      </g>
     </g>
    </g>
    <g id="text_37">
     <!-- $\alpha$ (a.u.) -->
     <g transform="translate(517.524701087 247.62)rotate(-90.0)scale(0.12 -0.12)">
      <use transform="translate(0.0 0.015625)" xlink:href="#Cmmi10-ae"/>
      <use transform="translate(63.916015625 0.015625)" xlink:href="#DejaVuSerif-20"/>
      <use transform="translate(95.703125 0.015625)" xlink:href="#DejaVuSerif-28"/>
      <use transform="translate(134.716796875 0.015625)" xlink:href="#DejaVuSerif-61"/>
      <use transform="translate(194.3359375 0.015625)" xlink:href="#DejaVuSerif-2e"/>
      <use transform="translate(226.123046875 0.015625)" xlink:href="#DejaVuSerif-75"/>
      <use transform="translate(290.52734375 0.015625)" xlink:href="#DejaVuSerif-2e"/>
      <use transform="translate(322.314453125 0.015625)" xlink:href="#DejaVuSerif-29"/>
     </g>
    </g>
   </g>
   <g id="patch_9">
    <path d="
M567.548 86.4
L907.2 86.4" style="fill:none;stroke:#000000;"/>
   </g>
   <g id="patch_10">
    <path d="
M907.2 365.4
L907.2 86.4" style="fill:none;stroke:#000000;"/>
   </g>
   <g id="patch_11">
    <path d="
M567.548 365.4
L907.2 365.4" style="fill:none;stroke:#000000;"/>
   </g>
   <g id="patch_12">
    <path d="
M567.548 365.4
L567.548 86.4" style="fill:none;stroke:#000000;"/>
   </g>
   <g id="text_38">
    <!-- $^1P_1$ -->
    <g transform="translate(724.269913043 81.4)scale(0.144 -0.144)">
     <use transform="translate(0.0 43.3734375)scale(0.7)" xlink:href="#Cmr10-31"/>
     <use transform="translate(67.00625 0.8578125)" xlink:href="#Cmmi10-50"/>
     <use transform="translate(131.215234375 -24.6515625)scale(0.7)" xlink:href="#Cmr10-31"/>
    </g>
   </g>
   <g id="legend_2">
    <g id="patch_13">
     <path d="
M831.888 164.009
L900 164.009
L900 93.6
L831.888 93.6
L831.888 164.009
z
" style="fill:#ffffff;stroke:#000000;"/>
    </g>
    <g id="line2d_100">
     <path d="
M841.968 105.262
L862.128 105.262" style="fill:none;stroke:#0000ff;stroke-linecap:square;"/>
    </g>
    <g id="line2d_101"/>
    <g id="text_39">
     <!-- $\alpha_s$ -->
     <g transform="translate(877.968 110.30175)scale(0.144 -0.144)">
      <use transform="translate(0.0 0.8125)" xlink:href="#Cmmi10-ae"/>
      <use transform="translate(63.916015625 -24.696875)scale(0.7)" xlink:href="#Cmmi10-73"/>
     </g>
    </g>
    <g id="line2d_102">
     <path d="
M841.968 127.292
L862.128 127.292" style="fill:none;stroke:#008000;stroke-linecap:square;"/>
    </g>
    <g id="line2d_103"/>
    <g id="text_40">
     <!-- $\alpha_v$ -->
     <g transform="translate(877.968 132.3315)scale(0.144 -0.144)">
      <use transform="translate(0.0 0.8125)" xlink:href="#Cmmi10-ae"/>
      <use transform="translate(63.916015625 -24.696875)scale(0.7)" xlink:href="#Cmmi10-76"/>
     </g>
    </g>
    <g id="line2d_104">
     <path d="
M841.968 149.321
L862.128 149.321" style="fill:none;stroke:#ff0000;stroke-linecap:square;"/>
    </g>
    <g id="line2d_105"/>
    <g id="text_41">
     <!-- $\alpha_t$ -->
     <g transform="translate(877.968 154.36125)scale(0.144 -0.144)">
      <use transform="translate(0.0 0.8125)" xlink:href="#Cmmi10-ae"/>
      <use transform="translate(63.916015625 -24.696875)scale(0.7)" xlink:href="#Cmmi10-74"/>
     </g>
    </g>
   </g>
  </g>
  <g id="axes_3">
   <g id="patch_14">
    <path d="
M126 756
L465.652 756
L465.652 477
L126 477
z
" style="fill:#ffffff;"/>
   </g>
   <g id="line2d_106">
    <path clip-path="url(#p34c5563ee1)" d="
M147.228 729.053
L153.172 725.778
L159.116 722.75
L165.485 719.752
L172.278 716.802
L179.495 713.916
L187.137 711.106
L195.204 708.381
L203.695 705.75
L212.611 703.216
L222.376 700.677
L232.566 698.258
L243.605 695.869
L255.492 693.529
L268.229 691.255
L281.815 689.059
L296.675 686.89
L312.384 684.824
L329.367 682.815
L348.048 680.834
L368.002 678.942
L390.08 677.078
L413.855 675.296
L440.178 673.55
L443.999 673.314
L443.999 673.314" style="fill:none;stroke:#0000ff;stroke-linecap:square;"/>
   </g>
   <g id="line2d_107">
    <path clip-path="url(#p34c5563ee1)" d="
M147.228 497.492
L152.323 501.727
L157.418 505.684
L162.937 509.687
L168.457 513.424
L174.4 517.18
L180.769 520.926
L187.137 524.413
L193.93 527.877
L201.148 531.298
L208.79 534.658
L216.432 537.779
L224.499 540.839
L232.99 543.828
L241.906 546.738
L251.671 549.686
L261.861 552.525
L272.475 555.254
L283.938 557.969
L296.251 560.648
L308.988 563.193
L322.574 565.683
L337.433 568.174
L353.142 570.576
L370.125 572.941
L387.957 575.199
L407.487 577.443
L428.29 579.604
L443.999 581.1
L443.999 581.1" style="fill:none;stroke:#008000;stroke-linecap:square;"/>
   </g>
   <g id="line2d_108">
    <path clip-path="url(#p34c5563ee1)" d="
M147.228 543.804
L153.172 547.08
L159.116 550.107
L165.485 553.105
L172.278 556.055
L179.495 558.942
L187.137 561.752
L195.204 564.476
L203.695 567.107
L212.611 569.641
L222.376 572.18
L232.566 574.599
L243.605 576.988
L255.492 579.328
L268.229 581.602
L281.815 583.798
L296.675 585.967
L312.384 588.033
L329.367 590.043
L348.048 592.024
L368.002 593.915
L390.08 595.779
L413.855 597.561
L440.178 599.307
L443.999 599.543
L443.999 599.543" style="fill:none;stroke:#ff0000;stroke-linecap:square;"/>
   </g>
   <g id="matplotlib.axis_5">
    <g id="xtick_12">
     <g id="line2d_109">
      <path clip-path="url(#p34c5563ee1)" d="
M126 756
L126 477" style="fill:none;stroke:#000000;stroke-dasharray:1.000000,3.000000;stroke-dashoffset:0.0;stroke-width:0.5;"/>
     </g>
     <g id="line2d_110">
      <g>
       <use style="stroke:#000000;stroke-width:0.5;" x="126.0" xlink:href="#m93b0483c22" y="756.0"/>
      </g>
     </g>
     <g id="line2d_111">
      <g>
       <use style="stroke:#000000;stroke-width:0.5;" x="126.0" xlink:href="#m741efc42ff" y="477.0"/>
      </g>
     </g>
     <g id="text_42">
      <!-- 490 -->
      <defs>
       <path d="
M46.7812 32.6719
Q43.5 29 39.25 27.1875
Q35.0156 25.3906 29.6875 25.3906
Q18.8438 25.3906 12.5625 31.9375
Q6.29688 38.4844 6.29688 49.8125
Q6.29688 60.8906 13.1094 67.5469
Q19.9219 74.2188 31.2969 74.2188
Q43.6562 74.2188 50.2656 65.0156
Q56.8906 55.8125 56.8906 38.7188
Q56.8906 19.5781 49.0156 9.07812
Q41.1562 -1.42188 26.9062 -1.42188
Q23.0469 -1.42188 18.7969 -0.6875
Q14.5469 0.046875 10.1094 1.51562
L10.1094 13.625
L15.5781 13.625
Q16.2188 8.6875 19.3906 6.04688
Q22.5625 3.42188 27.875 3.42188
Q37.3594 3.42188 41.9844 10.5625
Q46.625 17.7188 46.7812 32.6719
M30.9062 69.3906
Q23.9688 69.3906 20.2812 64.3281
Q16.6094 59.2812 16.6094 49.8125
Q16.6094 40.3281 20.2812 35.25
Q23.9688 30.1719 30.9062 30.1719
Q37.8438 30.1719 41.5312 35.0781
Q45.2188 39.9844 45.2188 49.2188
Q45.2188 58.9375 41.5 64.1562
Q37.7969 69.3906 30.9062 69.3906" id="DejaVuSerif-39"/>
      </defs>
      <g transform="translate(115.130625 769.118125)scale(0.12 -0.12)">
       <use xlink:href="#DejaVuSerif-34"/>
       <use x="63.623046875" xlink:href="#DejaVuSerif-39"/>
       <use x="127.24609375" xlink:href="#DejaVuSerif-30"/>
      </g>
     </g>
    </g>
    <g id="xtick_13">
     <g id="line2d_112">
      <path clip-path="url(#p34c5563ee1)" d="
M168.457 756
L168.457 477" style="fill:none;stroke:#000000;stroke-dasharray:1.000000,3.000000;stroke-dashoffset:0.0;stroke-width:0.5;"/>
     </g>
     <g id="line2d_113">
      <g>
       <use style="stroke:#000000;stroke-width:0.5;" x="168.456521739" xlink:href="#m93b0483c22" y="756.0"/>
      </g>
     </g>
     <g id="line2d_114">
      <g>
       <use style="stroke:#000000;stroke-width:0.5;" x="168.456521739" xlink:href="#m741efc42ff" y="477.0"/>
      </g>
     </g>
     <g id="text_43">
      <!-- 500 -->
      <g transform="translate(157.912459239 769.118125)scale(0.12 -0.12)">
       <use xlink:href="#DejaVuSerif-35"/>
       <use x="63.623046875" xlink:href="#DejaVuSerif-30"/>
       <use x="127.24609375" xlink:href="#DejaVuSerif-30"/>
      </g>
     </g>
    </g>
    <g id="xtick_14">
     <g id="line2d_115">
      <path clip-path="url(#p34c5563ee1)" d="
M210.913 756
L210.913 477" style="fill:none;stroke:#000000;stroke-dasharray:1.000000,3.000000;stroke-dashoffset:0.0;stroke-width:0.5;"/>
     </g>
     <g id="line2d_116">
      <g>
       <use style="stroke:#000000;stroke-width:0.5;" x="210.913043478" xlink:href="#m93b0483c22" y="756.0"/>
      </g>
     </g>
     <g id="line2d_117">
      <g>
       <use style="stroke:#000000;stroke-width:0.5;" x="210.913043478" xlink:href="#m741efc42ff" y="477.0"/>
      </g>
     </g>
     <g id="text_44">
      <!-- 510 -->
      <g transform="translate(200.368980978 769.118125)scale(0.12 -0.12)">
       <use xlink:href="#DejaVuSerif-35"/>
       <use x="63.623046875" xlink:href="#DejaVuSerif-31"/>
       <use x="127.24609375" xlink:href="#DejaVuSerif-30"/>
      </g>
     </g>
    </g>
    <g id="xtick_15">
     <g id="line2d_118">
      <path clip-path="url(#p34c5563ee1)" d="
M253.37 756
L253.37 477" style="fill:none;stroke:#000000;stroke-dasharray:1.000000,3.000000;stroke-dashoffset:0.0;stroke-width:0.5;"/>
     </g>
     <g id="line2d_119">
      <g>
       <use style="stroke:#000000;stroke-width:0.5;" x="253.369565217" xlink:href="#m93b0483c22" y="756.0"/>
      </g>
     </g>
     <g id="line2d_120">
      <g>
       <use style="stroke:#000000;stroke-width:0.5;" x="253.369565217" xlink:href="#m741efc42ff" y="477.0"/>
      </g>
     </g>
     <g id="text_45">
      <!-- 520 -->
      <g transform="translate(242.825502717 769.118125)scale(0.12 -0.12)">
       <use xlink:href="#DejaVuSerif-35"/>
       <use x="63.623046875" xlink:href="#DejaVuSerif-32"/>
       <use x="127.24609375" xlink:href="#DejaVuSerif-30"/>
      </g>
     </g>
    </g>
    <g id="xtick_16">
     <g id="line2d_121">
      <path clip-path="url(#p34c5563ee1)" d="
M295.826 756
L295.826 477" style="fill:none;stroke:#000000;stroke-dasharray:1.000000,3.000000;stroke-dashoffset:0.0;stroke-width:0.5;"/>
     </g>
     <g id="line2d_122">
      <g>
       <use style="stroke:#000000;stroke-width:0.5;" x="295.826086957" xlink:href="#m93b0483c22" y="756.0"/>
      </g>
     </g>
     <g id="line2d_123">
      <g>
       <use style="stroke:#000000;stroke-width:0.5;" x="295.826086957" xlink:href="#m741efc42ff" y="477.0"/>
      </g>
     </g>
     <g id="text_46">
      <!-- 530 -->
      <defs>
       <path d="
M9.71875 69.8281
Q15.4375 71.9688 20.6719 73.0938
Q25.9219 74.2188 30.5156 74.2188
Q41.2188 74.2188 47.2188 69.5938
Q53.2188 64.9844 53.2188 56.7812
Q53.2188 50.2031 49.0625 45.7812
Q44.9219 41.3594 37.3125 39.7969
Q46.2969 38.5312 51.25 33.2812
Q56.2031 28.0312 56.2031 19.6719
Q56.2031 9.46875 49.3438 4.01562
Q42.4844 -1.42188 29.5938 -1.42188
Q23.875 -1.42188 18.4219 -0.1875
Q12.9844 1.03125 7.625 3.51562
L7.625 17.6719
L13.0938 17.6719
Q13.5781 10.6406 17.8281 7.03125
Q22.0781 3.42188 29.7812 3.42188
Q37.25 3.42188 41.5781 7.73438
Q45.9062 12.0625 45.9062 19.5781
Q45.9062 28.1719 41.4531 32.5938
Q37.0156 37.0156 28.4219 37.0156
L23.7812 37.0156
L23.7812 42
L26.2188 42
Q34.7656 42 39.0312 45.5312
Q43.3125 49.0781 43.3125 56.2031
Q43.3125 62.5938 39.7969 65.9844
Q36.2812 69.3906 29.6875 69.3906
Q23.0938 69.3906 19.4531 66.2656
Q15.8281 63.1406 15.1875 56.9844
L9.71875 56.9844
z
" id="DejaVuSerif-33"/>
      </defs>
      <g transform="translate(285.282024457 769.118125)scale(0.12 -0.12)">
       <use xlink:href="#DejaVuSerif-35"/>
       <use x="63.623046875" xlink:href="#DejaVuSerif-33"/>
       <use x="127.24609375" xlink:href="#DejaVuSerif-30"/>
      </g>
     </g>
    </g>
    <g id="xtick_17">
     <g id="line2d_124">
      <path clip-path="url(#p34c5563ee1)" d="
M338.283 756
L338.283 477" style="fill:none;stroke:#000000;stroke-dasharray:1.000000,3.000000;stroke-dashoffset:0.0;stroke-width:0.5;"/>
     </g>
     <g id="line2d_125">
      <g>
       <use style="stroke:#000000;stroke-width:0.5;" x="338.282608696" xlink:href="#m93b0483c22" y="756.0"/>
      </g>
     </g>
     <g id="line2d_126">
      <g>
       <use style="stroke:#000000;stroke-width:0.5;" x="338.282608696" xlink:href="#m741efc42ff" y="477.0"/>
      </g>
     </g>
     <g id="text_47">
      <!-- 540 -->
      <g transform="translate(327.738546196 769.118125)scale(0.12 -0.12)">
       <use xlink:href="#DejaVuSerif-35"/>
       <use x="63.623046875" xlink:href="#DejaVuSerif-34"/>
       <use x="127.24609375" xlink:href="#DejaVuSerif-30"/>
      </g>
     </g>
    </g>
    <g id="xtick_18">
     <g id="line2d_127">
      <path clip-path="url(#p34c5563ee1)" d="
M380.739 756
L380.739 477" style="fill:none;stroke:#000000;stroke-dasharray:1.000000,3.000000;stroke-dashoffset:0.0;stroke-width:0.5;"/>
     </g>
     <g id="line2d_128">
      <g>
       <use style="stroke:#000000;stroke-width:0.5;" x="380.739130435" xlink:href="#m93b0483c22" y="756.0"/>
      </g>
     </g>
     <g id="line2d_129">
      <g>
       <use style="stroke:#000000;stroke-width:0.5;" x="380.739130435" xlink:href="#m741efc42ff" y="477.0"/>
      </g>
     </g>
     <g id="text_48">
      <!-- 550 -->
      <g transform="translate(370.195067935 769.118125)scale(0.12 -0.12)">
       <use xlink:href="#DejaVuSerif-35"/>
       <use x="63.623046875" xlink:href="#DejaVuSerif-35"/>
       <use x="127.24609375" xlink:href="#DejaVuSerif-30"/>
      </g>
     </g>
    </g>
    <g id="xtick_19">
     <g id="line2d_130">
      <path clip-path="url(#p34c5563ee1)" d="
M423.196 756
L423.196 477" style="fill:none;stroke:#000000;stroke-dasharray:1.000000,3.000000;stroke-dashoffset:0.0;stroke-width:0.5;"/>
     </g>
     <g id="line2d_131">
      <g>
       <use style="stroke:#000000;stroke-width:0.5;" x="423.195652174" xlink:href="#m93b0483c22" y="756.0"/>
      </g>
     </g>
     <g id="line2d_132">
      <g>
       <use style="stroke:#000000;stroke-width:0.5;" x="423.195652174" xlink:href="#m741efc42ff" y="477.0"/>
      </g>
     </g>
     <g id="text_49">
      <!-- 560 -->
      <g transform="translate(412.651589674 769.118125)scale(0.12 -0.12)">
       <use xlink:href="#DejaVuSerif-35"/>
       <use x="63.623046875" xlink:href="#DejaVuSerif-36"/>
       <use x="127.24609375" xlink:href="#DejaVuSerif-30"/>
      </g>
     </g>
    </g>
    <g id="xtick_20">
     <g id="line2d_133">
      <path clip-path="url(#p34c5563ee1)" d="
M465.652 756
L465.652 477" style="fill:none;stroke:#000000;stroke-dasharray:1.000000,3.000000;stroke-dashoffset:0.0;stroke-width:0.5;"/>
     </g>
     <g id="line2d_134">
      <g>
       <use style="stroke:#000000;stroke-width:0.5;" x="465.652173913" xlink:href="#m93b0483c22" y="756.0"/>
      </g>
     </g>
     <g id="line2d_135">
      <g>
       <use style="stroke:#000000;stroke-width:0.5;" x="465.652173913" xlink:href="#m741efc42ff" y="477.0"/>
      </g>
     </g>
     <g id="text_50">
      <!-- 570 -->
      <defs>
       <path d="
M56.3906 67.9219
L27.875 0
L20.6094 0
L47.7969 64.8906
L14.1094 64.8906
L14.1094 55.9062
L8.40625 55.9062
L8.40625 72.9062
L56.3906 72.9062
z
" id="DejaVuSerif-37"/>
      </defs>
      <g transform="translate(455.108111413 769.118125)scale(0.12 -0.12)">
       <use xlink:href="#DejaVuSerif-35"/>
       <use x="63.623046875" xlink:href="#DejaVuSerif-37"/>
       <use x="127.24609375" xlink:href="#DejaVuSerif-30"/>
      </g>
     </g>
    </g>
    <g id="text_51">
     <!-- $\lambda$ (nm) -->
     <g transform="translate(276.146086957 785.731875)scale(0.12 -0.12)">
      <use transform="translate(0.0 0.015625)" xlink:href="#Cmmi10-b8"/>
      <use transform="translate(58.30078125 0.015625)" xlink:href="#DejaVuSerif-20"/>
      <use transform="translate(90.087890625 0.015625)" xlink:href="#DejaVuSerif-28"/>
      <use transform="translate(129.1015625 0.015625)" xlink:href="#DejaVuSerif-6e"/>
      <use transform="translate(193.505859375 0.015625)" xlink:href="#DejaVuSerif-6d"/>
      <use transform="translate(288.330078125 0.015625)" xlink:href="#DejaVuSerif-29"/>
     </g>
    </g>
   </g>
   <g id="matplotlib.axis_6">
    <g id="ytick_19">
     <g id="line2d_136">
      <path clip-path="url(#p34c5563ee1)" d="
M126 756
L465.652 756" style="fill:none;stroke:#000000;stroke-dasharray:1.000000,3.000000;stroke-dashoffset:0.0;stroke-width:0.5;"/>
     </g>
     <g id="line2d_137">
      <g>
       <use style="stroke:#000000;stroke-width:0.5;" x="126.0" xlink:href="#m728421d6d4" y="756.0"/>
      </g>
     </g>
     <g id="line2d_138">
      <g>
       <use style="stroke:#000000;stroke-width:0.5;" x="465.652173913" xlink:href="#mcb0005524f" y="756.0"/>
      </g>
     </g>
     <g id="text_52">
      <!-- −600 -->
      <g transform="translate(91.1075 759.31125)scale(0.12 -0.12)">
       <use xlink:href="#DejaVuSerif-2212"/>
       <use x="83.7890625" xlink:href="#DejaVuSerif-36"/>
       <use x="147.412109375" xlink:href="#DejaVuSerif-30"/>
       <use x="211.03515625" xlink:href="#DejaVuSerif-30"/>
      </g>
     </g>
    </g>
    <g id="ytick_20">
     <g id="line2d_139">
      <path clip-path="url(#p34c5563ee1)" d="
M126 716.143
L465.652 716.143" style="fill:none;stroke:#000000;stroke-dasharray:1.000000,3.000000;stroke-dashoffset:0.0;stroke-width:0.5;"/>
     </g>
     <g id="line2d_140">
      <g>
       <use style="stroke:#000000;stroke-width:0.5;" x="126.0" xlink:href="#m728421d6d4" y="716.142857143"/>
      </g>
     </g>
     <g id="line2d_141">
      <g>
       <use style="stroke:#000000;stroke-width:0.5;" x="465.652173913" xlink:href="#mcb0005524f" y="716.142857143"/>
      </g>
     </g>
     <g id="text_53">
      <!-- −400 -->
      <g transform="translate(91.1075 719.454107143)scale(0.12 -0.12)">
       <use xlink:href="#DejaVuSerif-2212"/>
       <use x="83.7890625" xlink:href="#DejaVuSerif-34"/>
       <use x="147.412109375" xlink:href="#DejaVuSerif-30"/>
       <use x="211.03515625" xlink:href="#DejaVuSerif-30"/>
      </g>
     </g>
    </g>
    <g id="ytick_21">
     <g id="line2d_142">
      <path clip-path="url(#p34c5563ee1)" d="
M126 676.286
L465.652 676.286" style="fill:none;stroke:#000000;stroke-dasharray:1.000000,3.000000;stroke-dashoffset:0.0;stroke-width:0.5;"/>
     </g>
     <g id="line2d_143">
      <g>
       <use style="stroke:#000000;stroke-width:0.5;" x="126.0" xlink:href="#m728421d6d4" y="676.285714286"/>
      </g>
     </g>
     <g id="line2d_144">
      <g>
       <use style="stroke:#000000;stroke-width:0.5;" x="465.652173913" xlink:href="#mcb0005524f" y="676.285714286"/>
      </g>
     </g>
     <g id="text_54">
      <!-- −200 -->
      <g transform="translate(91.1075 679.596964286)scale(0.12 -0.12)">
       <use xlink:href="#DejaVuSerif-2212"/>
       <use x="83.7890625" xlink:href="#DejaVuSerif-32"/>
       <use x="147.412109375" xlink:href="#DejaVuSerif-30"/>
       <use x="211.03515625" xlink:href="#DejaVuSerif-30"/>
      </g>
     </g>
    </g>
    <g id="ytick_22">
     <g id="line2d_145">
      <path clip-path="url(#p34c5563ee1)" d="
M126 636.429
L465.652 636.429" style="fill:none;stroke:#000000;stroke-dasharray:1.000000,3.000000;stroke-dashoffset:0.0;stroke-width:0.5;"/>
     </g>
     <g id="line2d_146">
      <g>
       <use style="stroke:#000000;stroke-width:0.5;" x="126.0" xlink:href="#m728421d6d4" y="636.428571429"/>
      </g>
     </g>
     <g id="line2d_147">
      <g>
       <use style="stroke:#000000;stroke-width:0.5;" x="465.652173913" xlink:href="#mcb0005524f" y="636.428571429"/>
      </g>
     </g>
     <g id="text_55">
      <!-- 0 -->
      <g transform="translate(115.953125 639.739821429)scale(0.12 -0.12)">
       <use xlink:href="#DejaVuSerif-30"/>
      </g>
     </g>
    </g>
    <g id="ytick_23">
     <g id="line2d_148">
      <path clip-path="url(#p34c5563ee1)" d="
M126 596.571
L465.652 596.571" style="fill:none;stroke:#000000;stroke-dasharray:1.000000,3.000000;stroke-dashoffset:0.0;stroke-width:0.5;"/>
     </g>
     <g id="line2d_149">
      <g>
       <use style="stroke:#000000;stroke-width:0.5;" x="126.0" xlink:href="#m728421d6d4" y="596.571428571"/>
      </g>
     </g>
     <g id="line2d_150">
      <g>
       <use style="stroke:#000000;stroke-width:0.5;" x="465.652173913" xlink:href="#mcb0005524f" y="596.571428571"/>
      </g>
     </g>
     <g id="text_56">
      <!-- 200 -->
      <g transform="translate(100.705625 599.882678571)scale(0.12 -0.12)">
       <use xlink:href="#DejaVuSerif-32"/>
       <use x="63.623046875" xlink:href="#DejaVuSerif-30"/>
       <use x="127.24609375" xlink:href="#DejaVuSerif-30"/>
      </g>
     </g>
    </g>
    <g id="ytick_24">
     <g id="line2d_151">
      <path clip-path="url(#p34c5563ee1)" d="
M126 556.714
L465.652 556.714" style="fill:none;stroke:#000000;stroke-dasharray:1.000000,3.000000;stroke-dashoffset:0.0;stroke-width:0.5;"/>
     </g>
     <g id="line2d_152">
      <g>
       <use style="stroke:#000000;stroke-width:0.5;" x="126.0" xlink:href="#m728421d6d4" y="556.714285714"/>
      </g>
     </g>
     <g id="line2d_153">
      <g>
       <use style="stroke:#000000;stroke-width:0.5;" x="465.652173913" xlink:href="#mcb0005524f" y="556.714285714"/>
      </g>
     </g>
     <g id="text_57">
      <!-- 400 -->
      <g transform="translate(100.26125 560.025535714)scale(0.12 -0.12)">
       <use xlink:href="#DejaVuSerif-34"/>
       <use x="63.623046875" xlink:href="#DejaVuSerif-30"/>
       <use x="127.24609375" xlink:href="#DejaVuSerif-30"/>
      </g>
     </g>
    </g>
    <g id="ytick_25">
     <g id="line2d_154">
      <path clip-path="url(#p34c5563ee1)" d="
M126 516.857
L465.652 516.857" style="fill:none;stroke:#000000;stroke-dasharray:1.000000,3.000000;stroke-dashoffset:0.0;stroke-width:0.5;"/>
     </g>
     <g id="line2d_155">
      <g>
       <use style="stroke:#000000;stroke-width:0.5;" x="126.0" xlink:href="#m728421d6d4" y="516.857142857"/>
      </g>
     </g>
     <g id="line2d_156">
      <g>
       <use style="stroke:#000000;stroke-width:0.5;" x="465.652173913" xlink:href="#mcb0005524f" y="516.857142857"/>
      </g>
     </g>
     <g id="text_58">
      <!-- 600 -->
      <g transform="translate(100.694375 520.168392857)scale(0.12 -0.12)">
       <use xlink:href="#DejaVuSerif-36"/>
       <use x="63.623046875" xlink:href="#DejaVuSerif-30"/>
       <use x="127.24609375" xlink:href="#DejaVuSerif-30"/>
      </g>
     </g>
    </g>
    <g id="ytick_26">
     <g id="line2d_157">
      <path clip-path="url(#p34c5563ee1)" d="
M126 477
L465.652 477" style="fill:none;stroke:#000000;stroke-dasharray:1.000000,3.000000;stroke-dashoffset:0.0;stroke-width:0.5;"/>
     </g>
     <g id="line2d_158">
      <g>
       <use style="stroke:#000000;stroke-width:0.5;" x="126.0" xlink:href="#m728421d6d4" y="477.0"/>
      </g>
     </g>
     <g id="line2d_159">
      <g>
       <use style="stroke:#000000;stroke-width:0.5;" x="465.652173913" xlink:href="#mcb0005524f" y="477.0"/>
      </g>
     </g>
     <g id="text_59">
      <!-- 800 -->
      <g transform="translate(100.694375 480.31125)scale(0.12 -0.12)">
       <use xlink:href="#DejaVuSerif-38"/>
       <use x="63.623046875" xlink:href="#DejaVuSerif-30"/>
       <use x="127.24609375" xlink:href="#DejaVuSerif-30"/>
      </g>
     </g>
    </g>
    <g id="text_60">
     <!-- $\alpha$ (a.u.) -->
     <g transform="translate(83.611875 638.22)rotate(-90.0)scale(0.12 -0.12)">
      <use transform="translate(0.0 0.015625)" xlink:href="#Cmmi10-ae"/>
      <use transform="translate(63.916015625 0.015625)" xlink:href="#DejaVuSerif-20"/>
      <use transform="translate(95.703125 0.015625)" xlink:href="#DejaVuSerif-28"/>
      <use transform="translate(134.716796875 0.015625)" xlink:href="#DejaVuSerif-61"/>
      <use transform="translate(194.3359375 0.015625)" xlink:href="#DejaVuSerif-2e"/>
      <use transform="translate(226.123046875 0.015625)" xlink:href="#DejaVuSerif-75"/>
      <use transform="translate(290.52734375 0.015625)" xlink:href="#DejaVuSerif-2e"/>
      <use transform="translate(322.314453125 0.015625)" xlink:href="#DejaVuSerif-29"/>
     </g>
    </g>
   </g>
   <g id="patch_15">
    <path d="
M126 477
L465.652 477" style="fill:none;stroke:#000000;"/>
   </g>
   <g id="patch_16">
    <path d="
M465.652 756
L465.652 477" style="fill:none;stroke:#000000;"/>
   </g>
   <g id="patch_17">
    <path d="
M126 756
L465.652 756" style="fill:none;stroke:#000000;"/>
   </g>
   <g id="patch_18">
    <path d="
M126 756
L126 477" style="fill:none;stroke:#000000;"/>
   </g>
   <g id="text_61">
    <!-- $^1P_1$ -->
    <g transform="translate(282.722086957 472.0)scale(0.144 -0.144)">
     <use transform="translate(0.0 43.3734375)scale(0.7)" xlink:href="#Cmr10-31"/>
     <use transform="translate(67.00625 0.8578125)" xlink:href="#Cmmi10-50"/>
     <use transform="translate(131.215234375 -24.6515625)scale(0.7)" xlink:href="#Cmr10-31"/>
    </g>
   </g>
   <g id="legend_3">
    <g id="patch_19">
     <path d="
M390.34 554.609
L458.452 554.609
L458.452 484.2
L390.34 484.2
L390.34 554.609
z
" style="fill:#ffffff;stroke:#000000;"/>
    </g>
    <g id="line2d_160">
     <path d="
M400.42 495.862
L420.58 495.862" style="fill:none;stroke:#0000ff;stroke-linecap:square;"/>
    </g>
    <g id="line2d_161"/>
    <g id="text_62">
     <!-- $\alpha_s$ -->
     <g transform="translate(436.420173913 500.90175)scale(0.144 -0.144)">
      <use transform="translate(0.0 0.8125)" xlink:href="#Cmmi10-ae"/>
      <use transform="translate(63.916015625 -24.696875)scale(0.7)" xlink:href="#Cmmi10-73"/>
     </g>
    </g>
    <g id="line2d_162">
     <path d="
M400.42 517.892
L420.58 517.892" style="fill:none;stroke:#008000;stroke-linecap:square;"/>
    </g>
    <g id="line2d_163"/>
    <g id="text_63">
     <!-- $\alpha_v$ -->
     <g transform="translate(436.420173913 522.9315)scale(0.144 -0.144)">
      <use transform="translate(0.0 0.8125)" xlink:href="#Cmmi10-ae"/>
      <use transform="translate(63.916015625 -24.696875)scale(0.7)" xlink:href="#Cmmi10-76"/>
     </g>
    </g>
    <g id="line2d_164">
     <path d="
M400.42 539.921
L420.58 539.921" style="fill:none;stroke:#ff0000;stroke-linecap:square;"/>
    </g>
    <g id="line2d_165"/>
    <g id="text_64">
     <!-- $\alpha_t$ -->
     <g transform="translate(436.420173913 544.96125)scale(0.144 -0.144)">
      <use transform="translate(0.0 0.8125)" xlink:href="#Cmmi10-ae"/>
      <use transform="translate(63.916015625 -24.696875)scale(0.7)" xlink:href="#Cmmi10-74"/>
     </g>
    </g>
   </g>
  </g>
 </g>
 <defs>
  <clipPath id="p34c5563ee1">
   <rect height="279.0" width="339.652173913" x="126.0" y="477.0"/>
  </clipPath>
  <clipPath id="p0c87766784">
   <rect height="279.0" width="339.652173913" x="126.0" y="86.4"/>
  </clipPath>
  <clipPath id="pe1dd2dcbed">
   <rect height="279.0" width="339.652173913" x="567.547826087" y="86.4"/>
  </clipPath>
 </defs>
</svg>
