<?xml version="1.0" encoding="utf-8" standalone="no"?>
<!DOCTYPE svg PUBLIC "-//W3C//DTD SVG 1.1//EN"
  "http://www.w3.org/Graphics/SVG/1.1/DTD/svg11.dtd">
<!-- Created with matplotlib (http://matplotlib.org/) -->
<svg height="864pt" version="1.1" viewBox="0 0 1008 864" width="1008pt" xmlns="http://www.w3.org/2000/svg" xmlns:xlink="http://www.w3.org/1999/xlink">
 <defs>
  <style type="text/css">
*{stroke-linecap:butt;stroke-linejoin:round;}
  </style>
 </defs>
 <g id="figure_1">
  <g id="patch_1">
   <path d="
M0 864
L1008 864
L1008 0
L0 0
z
" style="fill:#ffffff;"/>
  </g>
  <g id="axes_1">
   <g id="patch_2">
    <path d="
M126 365.4
L465.652 365.4
L465.652 86.4
L126 86.4
z
" style="fill:#ffffff;"/>
   </g>
   <g id="line2d_1">
    <path clip-path="url(#p0c87766784)" d="
M126.34 225.9
L140.028 226.016
L153.07 226.346
L164.822 226.861
L174.91 227.519
L183.062 228.264
L189.141 229.03
L193.319 229.764
L196.002 230.444
L197.701 231.088
L198.753 231.715
L199.399 232.35
L199.772 232.994
L199.976 233.677
L200.18 235.259
L200.214 234.259
L200.248 240.425
L200.248 240.425
L200.248 240.425
L200.384 231.354
L200.418 237.859
L200.52 236.525
L200.554 233.538
L200.554 233.538
L200.554 233.538
L200.588 237.748
L200.622 226.318
L200.622 226.318
L200.622 226.318
L200.69 260.934
L200.723 193.714
L200.791 228.429
L200.825 214.337
L200.859 228.21
L200.859 228.21
L200.927 232.743
L200.961 194.351
L201.029 230.86
L201.097 234.434
L201.097 -1
M201.165 -1
L201.165 228.524
L201.267 232.845
L201.335 240.985
L201.369 222.363
L201.437 230.793
L201.607 238.365
L201.607 -1
M201.675 -1
L201.675 225.848
L201.776 231.573
L201.946 236.053
L201.98 239.42
L202.014 260.794
L202.014 260.794
L202.014 260.794
L202.048 217.033
L202.116 229.062
L202.354 234.059
L202.456 237.44
L202.524 249.47
L202.548 -1
M202.568 -1
L202.592 216.996
L202.693 229.087
L202.965 233.983
L203.135 238.742
L203.203 245.563
L203.237 257.011
L203.271 371.281
L203.271 371.281
L203.271 371.281
L203.305 192.897
L203.407 224.478
L203.611 230.376
L204.12 238.423
L204.222 244.236
L204.29 256.165
L204.324 275.973
L204.358 441.759
L204.358 441.759
L204.358 441.759
L204.392 153.613
L204.494 216.511
L204.697 226.544
L205.003 230.547
L205.479 235.781
L205.682 241.305
L205.818 252.771
L205.886 273.032
L205.92 306.215
L205.954 553.078
L205.954 553.078
L205.954 553.078
L205.988 84.5746
L206.09 202.847
L206.294 220.014
L206.565 225.163
L206.939 228.07
L207.856 233.829
L208.094 237.887
L208.264 246.018
L208.366 263.172
L208.434 326.26
L208.452 865
M208.48 865
L208.502 109.262
L208.502 109.262
L208.502 109.262
L208.637 206.848
L208.841 219.096
L209.113 223.485
L209.453 225.701
L209.894 227.152
L210.471 228.266
L211.389 229.487
L212.204 230.679
L212.577 231.667
L212.815 232.942
L212.985 235.01
L213.121 239.851
L213.189 248.07
L213.223 260.532
L213.257 325.952
L213.291 144.564
L213.359 211.996
L213.528 223.935
L213.766 226.933
L214.072 228.255
L214.479 229.073
L215.057 229.715
L215.974 230.364
L216.823 231.005
L216.925 231.313
L216.993 232.389
L216.993 -1
M217.061 -1
L217.061 229.285
L217.163 230.505
L217.4 230.857
L218.012 231.198
L220.186 232.063
L223.276 233.351
L224.193 233.953
L224.669 234.503
L224.975 235.181
L225.178 236.12
L225.348 238.072
L225.45 241.616
L225.518 250.372
L225.552 270.533
L225.586 53.6396
L225.654 219.59
L225.824 229.483
L226.062 231.673
L226.367 232.617
L226.809 233.245
L227.488 233.784
L228.745 234.452
L232.379 236.031
L236.829 238.076
L240.259 239.897
L243.282 241.748
L246.033 243.692
L248.547 245.739
L250.856 247.906
L252.996 250.214
L255 252.702
L256.868 255.371
L258.634 258.28
L260.298 261.444
L261.895 264.961
L263.423 268.879
L264.85 273.149
L266.208 277.91
L267.533 283.385
L268.79 289.556
L269.979 296.532
L271.099 304.44
L272.186 313.746
L273.205 324.442
L274.156 336.774
L275.073 351.645
L275.922 369.096
L276.738 390.662
L277.485 416.55
L278.164 447.773
L278.81 487.989
L279.387 537.96
L279.93 605.25
L280.406 692.338
L280.847 817.213
L280.971 865
M282.525 865
L282.525 -1
M287.212 -1
L287.98 29.558
L288.829 54.6473
L289.712 74.4431
L290.663 90.9511
L291.682 104.828
L292.735 116.255
L293.856 126.081
L295.045 134.578
L296.302 141.964
L297.592 148.264
L298.951 153.825
L300.377 158.75
L301.872 163.129
L303.434 167.037
L305.099 170.602
L306.831 173.792
L308.665 176.708
L310.601 179.37
L312.673 181.839
L314.881 184.12
L317.224 186.222
L319.772 188.205
L322.523 190.062
L325.512 191.807
L328.772 193.453
L332.373 195.02
L336.381 196.517
L340.898 197.963
L346.095 199.384
L353.567 201.166
L356.828 202.055
L358.016 202.583
L358.662 203.086
L359.103 203.716
L359.409 204.554
L359.647 205.906
L359.817 208.122
L359.952 213.046
L360.054 229.605
L360.088 257.181
L360.088 -1
M360.156 -1
L360.156 146.91
L360.258 188.282
L360.462 196.586
L360.734 199.08
L361.073 200.228
L361.515 200.922
L362.092 201.406
L362.975 201.835
L364.47 202.281
L367.153 202.822
L372.044 203.557
L379.584 204.454
L389.4 205.391
L401.288 206.296
L415.52 207.15
L432.638 207.947
L453.391 208.683
L465.618 209.032
L465.618 209.032" style="fill:none;stroke:#0000ff;stroke-linecap:square;"/>
   </g>
   <g id="line2d_2">
    <path clip-path="url(#p0c87766784)" d="
M126.34 225.9
L465.618 225.9
L465.618 225.9" style="fill:none;stroke:#008000;stroke-linecap:square;"/>
   </g>
   <g id="line2d_3">
    <path clip-path="url(#p0c87766784)" d="
M126.34 225.9
L465.618 225.9
L465.618 225.9" style="fill:none;stroke:#ff0000;stroke-linecap:square;"/>
   </g>
   <g id="matplotlib.axis_1">
    <g id="xtick_1">
     <g id="line2d_4">
      <path clip-path="url(#p0c87766784)" d="
M126 365.4
L126 86.4" style="fill:none;stroke:#000000;stroke-dasharray:1.000000,3.000000;stroke-dashoffset:0.0;stroke-width:0.5;"/>
     </g>
     <g id="line2d_5">
      <defs>
       <path d="
M0 0
L0 -4" id="m93b0483c22" style="stroke:#000000;stroke-width:0.5;"/>
      </defs>
      <g>
       <use style="stroke:#000000;stroke-width:0.5;" x="126.0" xlink:href="#m93b0483c22" y="365.4"/>
      </g>
     </g>
     <g id="line2d_6">
      <defs>
       <path d="
M0 0
L0 4" id="m741efc42ff" style="stroke:#000000;stroke-width:0.5;"/>
      </defs>
      <g>
       <use style="stroke:#000000;stroke-width:0.5;" x="126.0" xlink:href="#m741efc42ff" y="86.4"/>
      </g>
     </g>
     <g id="text_1">
      <!-- 0 -->
      <defs>
       <path d="
M31.7812 3.42188
Q39.2656 3.42188 42.9688 11.625
Q46.6875 19.8281 46.6875 36.375
Q46.6875 52.9844 42.9688 61.1875
Q39.2656 69.3906 31.7812 69.3906
Q24.3125 69.3906 20.5938 61.1875
Q16.8906 52.9844 16.8906 36.375
Q16.8906 19.8281 20.5938 11.625
Q24.3125 3.42188 31.7812 3.42188
M31.7812 -1.42188
Q19.9219 -1.42188 13.25 8.53125
Q6.59375 18.5 6.59375 36.375
Q6.59375 54.2969 13.25 64.25
Q19.9219 74.2188 31.7812 74.2188
Q43.7031 74.2188 50.3438 64.25
Q56.9844 54.2969 56.9844 36.375
Q56.9844 18.5 50.3438 8.53125
Q43.7031 -1.42188 31.7812 -1.42188" id="DejaVuSerif-30"/>
      </defs>
      <g transform="translate(122.9765625 378.518125)scale(0.12 -0.12)">
       <use xlink:href="#DejaVuSerif-30"/>
      </g>
     </g>
    </g>
    <g id="xtick_2">
     <g id="line2d_7">
      <path clip-path="url(#p0c87766784)" d="
M193.93 365.4
L193.93 86.4" style="fill:none;stroke:#000000;stroke-dasharray:1.000000,3.000000;stroke-dashoffset:0.0;stroke-width:0.5;"/>
     </g>
     <g id="line2d_8">
      <g>
       <use style="stroke:#000000;stroke-width:0.5;" x="193.930434783" xlink:href="#m93b0483c22" y="365.4"/>
      </g>
     </g>
     <g id="line2d_9">
      <g>
       <use style="stroke:#000000;stroke-width:0.5;" x="193.930434783" xlink:href="#m741efc42ff" y="86.4"/>
      </g>
     </g>
     <g id="text_2">
      <!-- 200 -->
      <defs>
       <path d="
M12.7969 55.5156
L7.32812 55.5156
L7.32812 68.5
Q12.5469 71.2969 17.8438 72.75
Q23.1406 74.2188 28.2188 74.2188
Q39.5938 74.2188 46.1875 68.7031
Q52.7812 63.1875 52.7812 53.7188
Q52.7812 43.0156 37.8438 28.125
Q36.6719 27 36.0781 26.4219
L17.6719 8.01562
L48.0938 8.01562
L48.0938 17
L53.8125 17
L53.8125 0
L6.78125 0
L6.78125 5.32812
L28.9062 27.3906
Q36.2344 34.7188 39.3594 40.8438
Q42.4844 46.9688 42.4844 53.7188
Q42.4844 61.0781 38.6406 65.2344
Q34.8125 69.3906 28.0781 69.3906
Q21.0938 69.3906 17.2812 65.9219
Q13.4844 62.4531 12.7969 55.5156" id="DejaVuSerif-32"/>
      </defs>
      <g transform="translate(183.283247283 378.518125)scale(0.12 -0.12)">
       <use xlink:href="#DejaVuSerif-32"/>
       <use x="63.623046875" xlink:href="#DejaVuSerif-30"/>
       <use x="127.24609375" xlink:href="#DejaVuSerif-30"/>
      </g>
     </g>
    </g>
    <g id="xtick_3">
     <g id="line2d_10">
      <path clip-path="url(#p0c87766784)" d="
M261.861 365.4
L261.861 86.4" style="fill:none;stroke:#000000;stroke-dasharray:1.000000,3.000000;stroke-dashoffset:0.0;stroke-width:0.5;"/>
     </g>
     <g id="line2d_11">
      <g>
       <use style="stroke:#000000;stroke-width:0.5;" x="261.860869565" xlink:href="#m93b0483c22" y="365.4"/>
      </g>
     </g>
     <g id="line2d_12">
      <g>
       <use style="stroke:#000000;stroke-width:0.5;" x="261.860869565" xlink:href="#m741efc42ff" y="86.4"/>
      </g>
     </g>
     <g id="text_3">
      <!-- 400 -->
      <defs>
       <path d="
M34.9062 24.7031
L34.9062 63.4844
L10.0156 24.7031
z

M56.3906 0
L23.1875 0
L23.1875 5.17188
L34.9062 5.17188
L34.9062 19.4844
L3.07812 19.4844
L3.07812 24.8125
L35.0156 74.2188
L44.6719 74.2188
L44.6719 24.7031
L58.5938 24.7031
L58.5938 19.4844
L44.6719 19.4844
L44.6719 5.17188
L56.3906 5.17188
z
" id="DejaVuSerif-34"/>
      </defs>
      <g transform="translate(250.991494565 378.518125)scale(0.12 -0.12)">
       <use xlink:href="#DejaVuSerif-34"/>
       <use x="63.623046875" xlink:href="#DejaVuSerif-30"/>
       <use x="127.24609375" xlink:href="#DejaVuSerif-30"/>
      </g>
     </g>
    </g>
    <g id="xtick_4">
     <g id="line2d_13">
      <path clip-path="url(#p0c87766784)" d="
M329.791 365.4
L329.791 86.4" style="fill:none;stroke:#000000;stroke-dasharray:1.000000,3.000000;stroke-dashoffset:0.0;stroke-width:0.5;"/>
     </g>
     <g id="line2d_14">
      <g>
       <use style="stroke:#000000;stroke-width:0.5;" x="329.791304348" xlink:href="#m93b0483c22" y="365.4"/>
      </g>
     </g>
     <g id="line2d_15">
      <g>
       <use style="stroke:#000000;stroke-width:0.5;" x="329.791304348" xlink:href="#m741efc42ff" y="86.4"/>
      </g>
     </g>
     <g id="text_4">
      <!-- 600 -->
      <defs>
       <path d="
M32.7188 3.42188
Q39.5938 3.42188 43.2969 8.46875
Q47.0156 13.5312 47.0156 23
Q47.0156 32.4688 43.2969 37.5156
Q39.5938 42.5781 32.7188 42.5781
Q25.7344 42.5781 22.0625 37.6875
Q18.4062 32.8125 18.4062 23.5781
Q18.4062 13.875 22.1094 8.64062
Q25.8281 3.42188 32.7188 3.42188
M16.7969 40.1406
Q20.125 43.7969 24.3125 45.5938
Q28.5156 47.4062 33.7969 47.4062
Q44.6719 47.4062 51 40.8594
Q57.3281 34.3281 57.3281 23
Q57.3281 11.9219 50.5156 5.25
Q43.7031 -1.42188 32.3281 -1.42188
Q19.9688 -1.42188 13.3281 7.78125
Q6.6875 17 6.6875 34.0781
Q6.6875 53.2188 14.5469 63.7188
Q22.4062 74.2188 36.7188 74.2188
Q40.5781 74.2188 44.8281 73.4844
Q49.0781 72.75 53.5156 71.2969
L53.5156 59.2812
L48 59.2812
Q47.4062 64.2031 44.2344 66.7969
Q41.0625 69.3906 35.6875 69.3906
Q26.2188 69.3906 21.5781 62.2031
Q16.9375 55.0312 16.7969 40.1406" id="DejaVuSerif-36"/>
      </defs>
      <g transform="translate(319.138491848 378.518125)scale(0.12 -0.12)">
       <use xlink:href="#DejaVuSerif-36"/>
       <use x="63.623046875" xlink:href="#DejaVuSerif-30"/>
       <use x="127.24609375" xlink:href="#DejaVuSerif-30"/>
      </g>
     </g>
    </g>
    <g id="xtick_5">
     <g id="line2d_16">
      <path clip-path="url(#p0c87766784)" d="
M397.722 365.4
L397.722 86.4" style="fill:none;stroke:#000000;stroke-dasharray:1.000000,3.000000;stroke-dashoffset:0.0;stroke-width:0.5;"/>
     </g>
     <g id="line2d_17">
      <g>
       <use style="stroke:#000000;stroke-width:0.5;" x="397.72173913" xlink:href="#m93b0483c22" y="365.4"/>
      </g>
     </g>
     <g id="line2d_18">
      <g>
       <use style="stroke:#000000;stroke-width:0.5;" x="397.72173913" xlink:href="#m741efc42ff" y="86.4"/>
      </g>
     </g>
     <g id="text_5">
      <!-- 800 -->
      <defs>
       <path d="
M46.5781 19.9219
Q46.5781 27.7344 42.6875 32.0469
Q38.8125 36.375 31.7812 36.375
Q24.75 36.375 20.875 32.0469
Q17 27.7344 17 19.9219
Q17 12.0625 20.875 7.73438
Q24.75 3.42188 31.7812 3.42188
Q38.8125 3.42188 42.6875 7.73438
Q46.5781 12.0625 46.5781 19.9219
M44.5781 55.3281
Q44.5781 61.9688 41.2031 65.6719
Q37.8438 69.3906 31.7812 69.3906
Q25.7812 69.3906 22.3906 65.6719
Q19 61.9688 19 55.3281
Q19 48.6406 22.3906 44.9219
Q25.7812 41.2188 31.7812 41.2188
Q37.8438 41.2188 41.2031 44.9219
Q44.5781 48.6406 44.5781 55.3281
M39.3125 38.8125
Q47.6094 37.7031 52.25 32.6875
Q56.8906 27.6875 56.8906 19.9219
Q56.8906 9.67188 50.3906 4.125
Q43.8906 -1.42188 31.7812 -1.42188
Q19.7344 -1.42188 13.2031 4.125
Q6.6875 9.67188 6.6875 19.9219
Q6.6875 27.6875 11.3281 32.6875
Q15.9688 37.7031 24.3125 38.8125
Q16.9375 40.1406 13 44.4062
Q9.07812 48.6875 9.07812 55.3281
Q9.07812 64.1094 15.125 69.1562
Q21.1875 74.2188 31.7812 74.2188
Q42.3906 74.2188 48.4375 69.1562
Q54.5 64.1094 54.5 55.3281
Q54.5 48.6875 50.5625 44.4062
Q46.625 40.1406 39.3125 38.8125" id="DejaVuSerif-38"/>
      </defs>
      <g transform="translate(387.06892663 378.518125)scale(0.12 -0.12)">
       <use xlink:href="#DejaVuSerif-38"/>
       <use x="63.623046875" xlink:href="#DejaVuSerif-30"/>
       <use x="127.24609375" xlink:href="#DejaVuSerif-30"/>
      </g>
     </g>
    </g>
    <g id="xtick_6">
     <g id="line2d_19">
      <path clip-path="url(#p0c87766784)" d="
M465.652 365.4
L465.652 86.4" style="fill:none;stroke:#000000;stroke-dasharray:1.000000,3.000000;stroke-dashoffset:0.0;stroke-width:0.5;"/>
     </g>
     <g id="line2d_20">
      <g>
       <use style="stroke:#000000;stroke-width:0.5;" x="465.652173913" xlink:href="#m93b0483c22" y="365.4"/>
      </g>
     </g>
     <g id="line2d_21">
      <g>
       <use style="stroke:#000000;stroke-width:0.5;" x="465.652173913" xlink:href="#m741efc42ff" y="86.4"/>
      </g>
     </g>
     <g id="text_6">
      <!-- 1000 -->
      <defs>
       <path d="
M14.2031 0
L14.2031 5.17188
L26.9062 5.17188
L26.9062 65.8281
L12.2031 56.2969
L12.2031 62.7031
L29.9844 74.2188
L36.7188 74.2188
L36.7188 5.17188
L49.4219 5.17188
L49.4219 0
z
" id="DejaVuSerif-31"/>
      </defs>
      <g transform="translate(451.512798913 378.518125)scale(0.12 -0.12)">
       <use xlink:href="#DejaVuSerif-31"/>
       <use x="63.623046875" xlink:href="#DejaVuSerif-30"/>
       <use x="127.24609375" xlink:href="#DejaVuSerif-30"/>
       <use x="190.869140625" xlink:href="#DejaVuSerif-30"/>
      </g>
     </g>
    </g>
    <g id="text_7">
     <!-- $\lambda$ (nm) -->
     <defs>
      <path d="
M7.07812 -15.5781
L7.07812 -10.7969
Q14.5938 -5.60938 17.8906 3.78125
Q21.1875 13.1875 21.1875 30.1719
Q21.1875 47.2188 17.8906 56.6094
Q14.5938 66.0156 7.07812 71.1875
L7.07812 75.9844
Q19 70.6562 25.0469 59.1094
Q31.1094 47.5625 31.1094 30.1719
Q31.1094 12.8438 25.0469 1.29688
Q19 -10.25 7.07812 -15.5781" id="DejaVuSerif-29"/>
      <path d="
M31.8906 -15.5781
Q20.0156 -10.25 13.9531 1.29688
Q7.90625 12.8438 7.90625 30.1719
Q7.90625 47.5625 13.9531 59.1094
Q20.0156 70.6562 31.8906 75.9844
L31.8906 71.1875
Q24.3594 66.0156 21.0938 56.6094
Q17.8281 47.2188 17.8281 30.1719
Q17.8281 13.1875 21.0938 3.78125
Q24.3594 -5.60938 31.8906 -10.7969
z
" id="DejaVuSerif-28"/>
      <path d="
M4.10938 0
L4.10938 5.17188
L12.2031 5.17188
L12.2031 46.6875
L3.60938 46.6875
L3.60938 51.9062
L21.1875 51.9062
L21.1875 42.6719
Q23.6875 47.9531 27.6562 50.6406
Q31.6406 53.3281 36.9219 53.3281
Q45.5156 53.3281 49.5625 48.3906
Q53.6094 43.4531 53.6094 33.0156
L53.6094 5.17188
L61.625 5.17188
L61.625 0
L36.8125 0
L36.8125 5.17188
L44.5781 5.17188
L44.5781 30.1719
Q44.5781 39.7031 42.2344 43.2344
Q39.8906 46.7812 33.9844 46.7812
Q27.7344 46.7812 24.4531 42.2031
Q21.1875 37.6406 21.1875 28.9062
L21.1875 5.17188
L29 5.17188
L29 0
z
" id="DejaVuSerif-6e"/>
      <path d="
M51.8125 41.7969
Q54.3906 47.5156 58.4219 50.4219
Q62.4531 53.3281 67.8281 53.3281
Q75.9844 53.3281 79.9844 48.2656
Q83.9844 43.2188 83.9844 33.0156
L83.9844 5.17188
L92.0938 5.17188
L92.0938 0
L67.1875 0
L67.1875 5.17188
L75 5.17188
L75 31.9844
Q75 39.9375 72.6562 43.3125
Q70.3125 46.6875 64.8906 46.6875
Q58.8906 46.6875 55.7344 42.1406
Q52.5938 37.5938 52.5938 28.9062
L52.5938 5.17188
L60.4062 5.17188
L60.4062 0
L35.7969 0
L35.7969 5.17188
L43.6094 5.17188
L43.6094 32.3281
Q43.6094 40.0938 41.2656 43.3906
Q38.9219 46.6875 33.5 46.6875
Q27.4844 46.6875 24.3281 42.1406
Q21.1875 37.5938 21.1875 28.9062
L21.1875 5.17188
L29 5.17188
L29 0
L4.10938 0
L4.10938 5.17188
L12.2031 5.17188
L12.2031 46.7812
L3.60938 46.7812
L3.60938 51.9062
L21.1875 51.9062
L21.1875 42.6719
Q23.6875 47.8594 27.5312 50.5938
Q31.3906 53.3281 36.2812 53.3281
Q42.3281 53.3281 46.375 50.3125
Q50.4375 47.3125 51.8125 41.7969" id="DejaVuSerif-6d"/>
      <path d="
M5.07812 1.70312
Q5.07812 3.17188 6.39062 4.5
L34.5156 32.0781
L24.6094 59.9062
Q23.4375 63.0938 22.1406 64.9375
Q20.8438 66.7969 18.4062 66.7969
Q17.2812 66.7969 17.2812 68.1094
Q17.3906 68.7031 17.7812 69.0469
Q18.1719 69.3906 18.7969 69.3906
Q29.2969 69.3906 31.5 63.1875
L51.8125 6.5
Q53.125 2.25 54.5 0.78125
Q54.9844 0.046875 54.9844 -0.203125
Q54.9844 -1.125 54.2031 -1.125
L48.7812 -1.125
Q46.2969 -0.390625 44.8281 3.21875
L35.6875 28.8125
L11.5312 0.390625
Q9.71875 -1.3125 8.29688 -1.3125
Q7.03125 -1.3125 6.04688 -0.4375
Q5.07812 0.4375 5.07812 1.70312" id="Cmmi10-b8"/>
      <path id="DejaVuSerif-20"/>
     </defs>
     <g transform="translate(276.146086957 395.131875)scale(0.12 -0.12)">
      <use transform="translate(0.0 0.015625)" xlink:href="#Cmmi10-b8"/>
      <use transform="translate(58.30078125 0.015625)" xlink:href="#DejaVuSerif-20"/>
      <use transform="translate(90.087890625 0.015625)" xlink:href="#DejaVuSerif-28"/>
      <use transform="translate(129.1015625 0.015625)" xlink:href="#DejaVuSerif-6e"/>
      <use transform="translate(193.505859375 0.015625)" xlink:href="#DejaVuSerif-6d"/>
      <use transform="translate(288.330078125 0.015625)" xlink:href="#DejaVuSerif-29"/>
     </g>
    </g>
   </g>
   <g id="matplotlib.axis_2">
    <g id="ytick_1">
     <g id="line2d_22">
      <path clip-path="url(#p0c87766784)" d="
M126 365.4
L465.652 365.4" style="fill:none;stroke:#000000;stroke-dasharray:1.000000,3.000000;stroke-dashoffset:0.0;stroke-width:0.5;"/>
     </g>
     <g id="line2d_23">
      <defs>
       <path d="
M0 0
L4 0" id="m728421d6d4" style="stroke:#000000;stroke-width:0.5;"/>
      </defs>
      <g>
       <use style="stroke:#000000;stroke-width:0.5;" x="126.0" xlink:href="#m728421d6d4" y="365.4"/>
      </g>
     </g>
     <g id="line2d_24">
      <defs>
       <path d="
M0 0
L-4 0" id="mcb0005524f" style="stroke:#000000;stroke-width:0.5;"/>
      </defs>
      <g>
       <use style="stroke:#000000;stroke-width:0.5;" x="465.652173913" xlink:href="#mcb0005524f" y="365.4"/>
      </g>
     </g>
     <g id="text_8">
      <!-- −2000 -->
      <defs>
       <path d="
M10.5938 35.2969
L73.1875 35.2969
L73.1875 27.3906
L10.5938 27.3906
z
" id="DejaVuSerif-2212"/>
      </defs>
      <g transform="translate(83.4725 368.71125)scale(0.12 -0.12)">
       <use xlink:href="#DejaVuSerif-2212"/>
       <use x="83.7890625" xlink:href="#DejaVuSerif-32"/>
       <use x="147.412109375" xlink:href="#DejaVuSerif-30"/>
       <use x="211.03515625" xlink:href="#DejaVuSerif-30"/>
       <use x="274.658203125" xlink:href="#DejaVuSerif-30"/>
      </g>
     </g>
    </g>
    <g id="ytick_2">
     <g id="line2d_25">
      <path clip-path="url(#p0c87766784)" d="
M126 330.525
L465.652 330.525" style="fill:none;stroke:#000000;stroke-dasharray:1.000000,3.000000;stroke-dashoffset:0.0;stroke-width:0.5;"/>
     </g>
     <g id="line2d_26">
      <g>
       <use style="stroke:#000000;stroke-width:0.5;" x="126.0" xlink:href="#m728421d6d4" y="330.525"/>
      </g>
     </g>
     <g id="line2d_27">
      <g>
       <use style="stroke:#000000;stroke-width:0.5;" x="465.652173913" xlink:href="#mcb0005524f" y="330.525"/>
      </g>
     </g>
     <g id="text_9">
      <!-- −1500 -->
      <defs>
       <path d="
M50.2969 72.9062
L50.2969 64.8906
L16.8906 64.8906
L16.8906 44
Q19.4375 45.75 22.8281 46.625
Q26.2188 47.5156 30.4219 47.5156
Q42.2344 47.5156 49.0625 40.9688
Q55.9062 34.4219 55.9062 23.0938
Q55.9062 11.5312 49 5.04688
Q42.0938 -1.42188 29.5938 -1.42188
Q24.5625 -1.42188 19.2812 -0.1875
Q14.0156 1.03125 8.5 3.51562
L8.5 17.6719
L14.0156 17.6719
Q14.4531 10.75 18.4219 7.07812
Q22.4062 3.42188 29.5938 3.42188
Q37.3125 3.42188 41.4531 8.5
Q45.6094 13.5781 45.6094 23.0938
Q45.6094 32.5625 41.4844 37.6094
Q37.3594 42.6719 29.5938 42.6719
Q25.2031 42.6719 21.8438 41.1094
Q18.5 39.5469 15.9219 36.2812
L11.7188 36.2812
L11.7188 72.9062
z
" id="DejaVuSerif-35"/>
      </defs>
      <g transform="translate(83.4725 333.83625)scale(0.12 -0.12)">
       <use xlink:href="#DejaVuSerif-2212"/>
       <use x="83.7890625" xlink:href="#DejaVuSerif-31"/>
       <use x="147.412109375" xlink:href="#DejaVuSerif-35"/>
       <use x="211.03515625" xlink:href="#DejaVuSerif-30"/>
       <use x="274.658203125" xlink:href="#DejaVuSerif-30"/>
      </g>
     </g>
    </g>
    <g id="ytick_3">
     <g id="line2d_28">
      <path clip-path="url(#p0c87766784)" d="
M126 295.65
L465.652 295.65" style="fill:none;stroke:#000000;stroke-dasharray:1.000000,3.000000;stroke-dashoffset:0.0;stroke-width:0.5;"/>
     </g>
     <g id="line2d_29">
      <g>
       <use style="stroke:#000000;stroke-width:0.5;" x="126.0" xlink:href="#m728421d6d4" y="295.65"/>
      </g>
     </g>
     <g id="line2d_30">
      <g>
       <use style="stroke:#000000;stroke-width:0.5;" x="465.652173913" xlink:href="#mcb0005524f" y="295.65"/>
      </g>
     </g>
     <g id="text_10">
      <!-- −1000 -->
      <g transform="translate(83.4725 298.96125)scale(0.12 -0.12)">
       <use xlink:href="#DejaVuSerif-2212"/>
       <use x="83.7890625" xlink:href="#DejaVuSerif-31"/>
       <use x="147.412109375" xlink:href="#DejaVuSerif-30"/>
       <use x="211.03515625" xlink:href="#DejaVuSerif-30"/>
       <use x="274.658203125" xlink:href="#DejaVuSerif-30"/>
      </g>
     </g>
    </g>
    <g id="ytick_4">
     <g id="line2d_31">
      <path clip-path="url(#p0c87766784)" d="
M126 260.775
L465.652 260.775" style="fill:none;stroke:#000000;stroke-dasharray:1.000000,3.000000;stroke-dashoffset:0.0;stroke-width:0.5;"/>
     </g>
     <g id="line2d_32">
      <g>
       <use style="stroke:#000000;stroke-width:0.5;" x="126.0" xlink:href="#m728421d6d4" y="260.775"/>
      </g>
     </g>
     <g id="line2d_33">
      <g>
       <use style="stroke:#000000;stroke-width:0.5;" x="465.652173913" xlink:href="#mcb0005524f" y="260.775"/>
      </g>
     </g>
     <g id="text_11">
      <!-- −500 -->
      <g transform="translate(91.1075 264.08625)scale(0.12 -0.12)">
       <use xlink:href="#DejaVuSerif-2212"/>
       <use x="83.7890625" xlink:href="#DejaVuSerif-35"/>
       <use x="147.412109375" xlink:href="#DejaVuSerif-30"/>
       <use x="211.03515625" xlink:href="#DejaVuSerif-30"/>
      </g>
     </g>
    </g>
    <g id="ytick_5">
     <g id="line2d_34">
      <path clip-path="url(#p0c87766784)" d="
M126 225.9
L465.652 225.9" style="fill:none;stroke:#000000;stroke-dasharray:1.000000,3.000000;stroke-dashoffset:0.0;stroke-width:0.5;"/>
     </g>
     <g id="line2d_35">
      <g>
       <use style="stroke:#000000;stroke-width:0.5;" x="126.0" xlink:href="#m728421d6d4" y="225.9"/>
      </g>
     </g>
     <g id="line2d_36">
      <g>
       <use style="stroke:#000000;stroke-width:0.5;" x="465.652173913" xlink:href="#mcb0005524f" y="225.9"/>
      </g>
     </g>
     <g id="text_12">
      <!-- 0 -->
      <g transform="translate(115.953125 229.21125)scale(0.12 -0.12)">
       <use xlink:href="#DejaVuSerif-30"/>
      </g>
     </g>
    </g>
    <g id="ytick_6">
     <g id="line2d_37">
      <path clip-path="url(#p0c87766784)" d="
M126 191.025
L465.652 191.025" style="fill:none;stroke:#000000;stroke-dasharray:1.000000,3.000000;stroke-dashoffset:0.0;stroke-width:0.5;"/>
     </g>
     <g id="line2d_38">
      <g>
       <use style="stroke:#000000;stroke-width:0.5;" x="126.0" xlink:href="#m728421d6d4" y="191.025"/>
      </g>
     </g>
     <g id="line2d_39">
      <g>
       <use style="stroke:#000000;stroke-width:0.5;" x="465.652173913" xlink:href="#mcb0005524f" y="191.025"/>
      </g>
     </g>
     <g id="text_13">
      <!-- 500 -->
      <g transform="translate(100.911875 194.33625)scale(0.12 -0.12)">
       <use xlink:href="#DejaVuSerif-35"/>
       <use x="63.623046875" xlink:href="#DejaVuSerif-30"/>
       <use x="127.24609375" xlink:href="#DejaVuSerif-30"/>
      </g>
     </g>
    </g>
    <g id="ytick_7">
     <g id="line2d_40">
      <path clip-path="url(#p0c87766784)" d="
M126 156.15
L465.652 156.15" style="fill:none;stroke:#000000;stroke-dasharray:1.000000,3.000000;stroke-dashoffset:0.0;stroke-width:0.5;"/>
     </g>
     <g id="line2d_41">
      <g>
       <use style="stroke:#000000;stroke-width:0.5;" x="126.0" xlink:href="#m728421d6d4" y="156.15"/>
      </g>
     </g>
     <g id="line2d_42">
      <g>
       <use style="stroke:#000000;stroke-width:0.5;" x="465.652173913" xlink:href="#mcb0005524f" y="156.15"/>
      </g>
     </g>
     <g id="text_14">
      <!-- 1000 -->
      <g transform="translate(93.72125 159.46125)scale(0.12 -0.12)">
       <use xlink:href="#DejaVuSerif-31"/>
       <use x="63.623046875" xlink:href="#DejaVuSerif-30"/>
       <use x="127.24609375" xlink:href="#DejaVuSerif-30"/>
       <use x="190.869140625" xlink:href="#DejaVuSerif-30"/>
      </g>
     </g>
    </g>
    <g id="ytick_8">
     <g id="line2d_43">
      <path clip-path="url(#p0c87766784)" d="
M126 121.275
L465.652 121.275" style="fill:none;stroke:#000000;stroke-dasharray:1.000000,3.000000;stroke-dashoffset:0.0;stroke-width:0.5;"/>
     </g>
     <g id="line2d_44">
      <g>
       <use style="stroke:#000000;stroke-width:0.5;" x="126.0" xlink:href="#m728421d6d4" y="121.275"/>
      </g>
     </g>
     <g id="line2d_45">
      <g>
       <use style="stroke:#000000;stroke-width:0.5;" x="465.652173913" xlink:href="#mcb0005524f" y="121.275"/>
      </g>
     </g>
     <g id="text_15">
      <!-- 1500 -->
      <g transform="translate(93.72125 124.58625)scale(0.12 -0.12)">
       <use xlink:href="#DejaVuSerif-31"/>
       <use x="63.623046875" xlink:href="#DejaVuSerif-35"/>
       <use x="127.24609375" xlink:href="#DejaVuSerif-30"/>
       <use x="190.869140625" xlink:href="#DejaVuSerif-30"/>
      </g>
     </g>
    </g>
    <g id="ytick_9">
     <g id="line2d_46">
      <path clip-path="url(#p0c87766784)" d="
M126 86.4
L465.652 86.4" style="fill:none;stroke:#000000;stroke-dasharray:1.000000,3.000000;stroke-dashoffset:0.0;stroke-width:0.5;"/>
     </g>
     <g id="line2d_47">
      <g>
       <use style="stroke:#000000;stroke-width:0.5;" x="126.0" xlink:href="#m728421d6d4" y="86.4"/>
      </g>
     </g>
     <g id="line2d_48">
      <g>
       <use style="stroke:#000000;stroke-width:0.5;" x="465.652173913" xlink:href="#mcb0005524f" y="86.4"/>
      </g>
     </g>
     <g id="text_16">
      <!-- 2000 -->
      <g transform="translate(93.070625 89.71125)scale(0.12 -0.12)">
       <use xlink:href="#DejaVuSerif-32"/>
       <use x="63.623046875" xlink:href="#DejaVuSerif-30"/>
       <use x="127.24609375" xlink:href="#DejaVuSerif-30"/>
       <use x="190.869140625" xlink:href="#DejaVuSerif-30"/>
      </g>
     </g>
    </g>
    <g id="text_17">
     <!-- $\alpha$ (a.u.) -->
     <defs>
      <path d="
M20.125 -1.125
Q15.375 -1.125 11.6875 1.125
Q8.01562 3.375 6 7.17188
Q4 10.9844 4 15.8281
Q4 22.6094 7.78125 29.25
Q11.5781 35.8906 17.8438 40.0312
Q24.125 44.1875 31 44.1875
Q36.0781 44.1875 39.9375 41.5312
Q43.7969 38.875 45.7969 34.4531
Q47.7969 30.0312 47.7969 25
L47.9062 18.3125
Q51.3125 23.0469 53.6875 28.1406
Q56.0625 33.25 57.3281 38.7188
Q57.5156 39.3125 58.1094 39.3125
L59.2812 39.3125
Q60.2031 39.3125 60.2031 38.375
Q60.2031 38.2812 60.1094 38.0938
Q58.9375 33.5 57.1719 29.2656
Q55.4219 25.0469 53.0469 21.0938
Q50.6875 17.1406 47.9062 13.9219
Q47.9062 1.51562 50.7812 1.51562
Q52.6406 1.51562 53.8281 2.60938
Q55.0312 3.71875 55.9375 5.32812
Q56.8438 6.9375 57.0781 6.98438
L58.2969 6.98438
Q59.0781 6.98438 59.0781 6
Q59.0781 3.51562 56.2188 1.1875
Q53.375 -1.125 50.5938 -1.125
Q46.9688 -1.125 44.5781 1.21875
Q42.1875 3.5625 41.3125 7.32812
Q36.625 3.32812 31.1562 1.09375
Q25.6875 -1.125 20.125 -1.125
M20.3125 1.51562
Q31 1.51562 40.8281 10.2969
Q40.7656 10.8906 40.6719 11.7344
Q40.5781 12.5938 40.5781 12.7031
L40.5781 23.4844
Q40.5781 41.6094 30.8125 41.6094
Q24.9531 41.6094 20.5469 36.5938
Q16.1562 31.5938 13.9375 24.625
Q11.7188 17.6719 11.7188 11.9219
Q11.7188 7.5625 13.9375 4.53125
Q16.1562 1.51562 20.3125 1.51562" id="Cmmi10-ae"/>
      <path d="
M35.4062 51.9062
L52.2031 51.9062
L52.2031 5.17188
L60.6875 5.17188
L60.6875 0
L43.2188 0
L43.2188 9.1875
Q40.7188 4 36.7656 1.28125
Q32.8125 -1.42188 27.5938 -1.42188
Q18.9531 -1.42188 14.875 3.48438
Q10.7969 8.40625 10.7969 18.8906
L10.7969 46.6875
L2.6875 46.6875
L2.6875 51.9062
L19.8281 51.9062
L19.8281 21.6875
Q19.8281 12.2031 22.1406 8.6875
Q24.4688 5.17188 30.4219 5.17188
Q36.6719 5.17188 39.9375 9.76562
Q43.2188 14.3594 43.2188 23.0938
L43.2188 46.6875
L35.4062 46.6875
z
" id="DejaVuSerif-75"/>
      <path d="
M39.7969 16.3125
L39.7969 27.2969
L28.2188 27.2969
Q21.5312 27.2969 18.25 24.4062
Q14.9844 21.5312 14.9844 15.5781
Q14.9844 10.1562 18.2969 6.98438
Q21.625 3.8125 27.2969 3.8125
Q32.9062 3.8125 36.3438 7.28125
Q39.7969 10.75 39.7969 16.3125
M48.7812 32.4219
L48.7812 5.17188
L56.7812 5.17188
L56.7812 0
L39.7969 0
L39.7969 5.60938
Q36.8125 2 32.9062 0.28125
Q29 -1.42188 23.7812 -1.42188
Q15.1406 -1.42188 10.0625 3.17188
Q4.98438 7.76562 4.98438 15.5781
Q4.98438 23.6406 10.7969 28.0781
Q16.6094 32.5156 27.2031 32.5156
L39.7969 32.5156
L39.7969 36.0781
Q39.7969 42 36.2031 45.2344
Q32.625 48.4844 26.125 48.4844
Q20.75 48.4844 17.5781 46.0469
Q14.4062 43.6094 13.625 38.8125
L8.98438 38.8125
L8.98438 49.3125
Q13.6719 51.3125 18.0938 52.3125
Q22.5156 53.3281 26.7031 53.3281
Q37.5 53.3281 43.1406 47.9688
Q48.7812 42.625 48.7812 32.4219" id="DejaVuSerif-61"/>
      <path d="
M9.42188 5.07812
Q9.42188 7.8125 11.2812 9.71875
Q13.1406 11.625 15.9219 11.625
Q18.6094 11.625 20.5 9.71875
Q22.4062 7.8125 22.4062 5.07812
Q22.4062 2.39062 20.5 0.484375
Q18.6094 -1.42188 15.9219 -1.42188
Q13.1406 -1.42188 11.2812 0.453125
Q9.42188 2.34375 9.42188 5.07812" id="DejaVuSerif-2e"/>
     </defs>
     <g transform="translate(75.976875 247.62)rotate(-90.0)scale(0.12 -0.12)">
      <use transform="translate(0.0 0.015625)" xlink:href="#Cmmi10-ae"/>
      <use transform="translate(63.916015625 0.015625)" xlink:href="#DejaVuSerif-20"/>
      <use transform="translate(95.703125 0.015625)" xlink:href="#DejaVuSerif-28"/>
      <use transform="translate(134.716796875 0.015625)" xlink:href="#DejaVuSerif-61"/>
      <use transform="translate(194.3359375 0.015625)" xlink:href="#DejaVuSerif-2e"/>
      <use transform="translate(226.123046875 0.015625)" xlink:href="#DejaVuSerif-75"/>
      <use transform="translate(290.52734375 0.015625)" xlink:href="#DejaVuSerif-2e"/>
      <use transform="translate(322.314453125 0.015625)" xlink:href="#DejaVuSerif-29"/>
     </g>
    </g>
   </g>
   <g id="patch_3">
    <path d="
M126 86.4
L465.652 86.4" style="fill:none;stroke:#000000;"/>
   </g>
   <g id="patch_4">
    <path d="
M465.652 365.4
L465.652 86.4" style="fill:none;stroke:#000000;"/>
   </g>
   <g id="patch_5">
    <path d="
M126 365.4
L465.652 365.4" style="fill:none;stroke:#000000;"/>
   </g>
   <g id="patch_6">
    <path d="
M126 365.4
L126 86.4" style="fill:none;stroke:#000000;"/>
   </g>
   <g id="text_18">
    <!-- $^1S_0$ -->
    <defs>
     <path d="
M9.28125 0
L9.28125 3.51562
Q21.7812 3.51562 21.7812 6.6875
L21.7812 59.1875
Q16.6094 56.6875 8.6875 56.6875
L8.6875 60.2031
Q20.9531 60.2031 27.2031 66.6094
L28.6094 66.6094
Q28.9531 66.6094 29.2656 66.3281
Q29.5938 66.0625 29.5938 65.7188
L29.5938 6.6875
Q29.5938 3.51562 42.0938 3.51562
L42.0938 0
z
" id="Cmr10-31"/>
     <path d="
M6.10938 -2.20312
Q5.8125 -2.20312 5.5625 -1.85938
Q5.32812 -1.51562 5.32812 -1.21875
L11.0781 22.125
Q11.2812 22.7031 11.9219 22.7031
L13.0938 22.7031
Q13.4844 22.7031 13.7031 22.4062
Q13.9219 22.125 13.9219 21.6875
Q13.0938 18.2656 13.0938 15.5781
Q13.0938 8.34375 18.0625 4.82812
Q23.0469 1.3125 30.6094 1.3125
Q33.8906 1.3125 37.0625 2.92188
Q40.2344 4.54688 42.5938 7.125
Q44.9688 9.71875 46.375 12.9062
Q47.7969 16.1094 47.7969 19.3906
Q47.7969 22.9062 45.9375 25.6562
Q44.0938 28.4219 40.8281 29.2031
L28.6094 32.4219
Q23.6875 33.7344 20.75 37.7188
Q17.8281 41.7031 17.8281 46.6875
Q17.8281 52.6875 21.3906 58.25
Q24.9531 63.8125 30.6875 67.1562
Q36.4219 70.5156 42.3906 70.5156
Q46.9688 70.5156 50.7969 68.8281
Q54.6406 67.1406 56.6875 63.4844
L62.4062 70.2188
Q62.9844 70.5156 63.0938 70.5156
L63.7188 70.5156
Q64.1094 70.5156 64.3438 70.1719
Q64.5938 69.8281 64.5938 69.4844
L58.7969 46.2969
Q58.6406 45.6094 58.0156 45.6094
L56.7812 45.6094
Q55.9062 45.6094 55.9062 46.6875
Q56.3906 49.8594 56.3906 52.2031
Q56.3906 56.8438 54.7969 60.2812
Q53.2188 63.7188 50.0156 65.5
Q46.8281 67.2812 42.0938 67.2812
Q38.0938 67.2812 34.125 64.9844
Q30.1719 62.7031 27.7344 58.8906
Q25.2969 55.0781 25.2969 50.9844
Q25.2969 47.75 27.1719 45.2656
Q29.0469 42.7812 32.1719 41.8906
L44.3906 38.7188
Q47.7031 37.8438 50.1719 35.625
Q52.6406 33.4062 53.9062 30.3438
Q55.1719 27.2969 55.1719 23.6875
Q55.1719 18.9531 53.1719 14.3281
Q51.1719 9.71875 47.5781 5.90625
Q44 2.09375 39.4531 -0.046875
Q34.9062 -2.20312 30.1719 -2.20312
Q18.2656 -2.20312 13.0938 4.78125
L7.51562 -1.90625
Q6.9375 -2.20312 6.78125 -2.20312
z
" id="Cmmi10-53"/>
     <path d="
M25 -2.20312
Q12.75 -2.20312 8.32812 7.875
Q3.90625 17.9688 3.90625 31.8906
Q3.90625 40.5781 5.48438 48.2344
Q7.07812 55.9062 11.7812 61.25
Q16.5 66.6094 25 66.6094
Q31.5938 66.6094 35.7812 63.375
Q39.9844 60.1562 42.1875 55.0469
Q44.3906 49.9531 45.1875 44.1094
Q46 38.2812 46 31.8906
Q46 23.2969 44.4062 15.7969
Q42.8281 8.29688 38.1875 3.04688
Q33.5469 -2.20312 25 -2.20312
M25 0.390625
Q30.5625 0.390625 33.2969 6.09375
Q36.0312 11.8125 36.6719 18.75
Q37.3125 25.6875 37.3125 33.5
Q37.3125 41.0156 36.6719 47.3594
Q36.0312 53.7188 33.3125 58.8594
Q30.6094 64.0156 25 64.0156
Q19.3438 64.0156 16.6094 58.8281
Q13.875 53.6562 13.2344 47.3281
Q12.5938 41.0156 12.5938 33.5
Q12.5938 27.9375 12.8594 23
Q13.1406 18.0625 14.3125 12.8125
Q15.4844 7.5625 18.0938 3.96875
Q20.7031 0.390625 25 0.390625" id="Cmr10-30"/>
    </defs>
    <g transform="translate(282.938086957 81.4)scale(0.144 -0.144)">
     <use transform="translate(0.0 43.3734375)scale(0.7)" xlink:href="#Cmr10-31"/>
     <use transform="translate(67.00625 0.8578125)" xlink:href="#Cmmi10-53"/>
     <use transform="translate(128.285546875 -24.6515625)scale(0.7)" xlink:href="#Cmr10-30"/>
    </g>
   </g>
   <g id="legend_1">
    <g id="patch_7">
     <path d="
M390.34 164.009
L458.452 164.009
L458.452 93.6
L390.34 93.6
L390.34 164.009
z
" style="fill:#ffffff;stroke:#000000;"/>
    </g>
    <g id="line2d_49">
     <path d="
M400.42 105.262
L420.58 105.262" style="fill:none;stroke:#0000ff;stroke-linecap:square;"/>
    </g>
    <g id="line2d_50"/>
    <g id="text_19">
     <!-- $\alpha_s$ -->
     <defs>
      <path d="
M8.6875 6.10938
Q11.375 1.51562 19.4844 1.51562
Q23 1.51562 26.1719 2.70312
Q29.3438 3.90625 31.4219 6.29688
Q33.5 8.6875 33.5 12.1094
Q33.5 14.7031 31.6406 16.3594
Q29.7812 18.0156 27.0938 18.6094
L21.6875 19.6719
Q17.9688 20.6094 15.5781 23.1406
Q13.1875 25.6875 13.1875 29.2969
Q13.1875 33.7344 15.5938 37.1562
Q18.0156 40.5781 21.9688 42.375
Q25.9219 44.1875 30.1719 44.1875
Q34.7188 44.1875 38.2969 42.0156
Q41.8906 39.8438 41.8906 35.5938
Q41.8906 33.2969 40.5938 31.5312
Q39.3125 29.7812 37.0156 29.7812
Q35.6875 29.7812 34.7344 30.6406
Q33.7969 31.5 33.7969 32.8125
Q33.7969 33.9844 34.4531 35.0781
Q35.1094 36.1875 36.2031 36.8438
Q37.3125 37.5 38.4844 37.5
Q37.5938 39.6562 35.1719 40.625
Q32.7656 41.6094 29.9844 41.6094
Q27.4375 41.6094 24.8906 40.5781
Q22.3594 39.5469 20.8125 37.5625
Q19.2812 35.5938 19.2812 32.9062
Q19.2812 31.1094 20.5469 29.7344
Q21.8281 28.375 23.6875 27.7812
L29.5 26.6094
Q32.2812 26.0312 34.5938 24.5312
Q36.9219 23.0469 38.25 20.7656
Q39.5938 18.5 39.5938 15.5781
Q39.5938 11.8594 37.5156 8.25
Q35.4531 4.64062 32.4219 2.48438
Q27.0938 -1.125 19.3906 -1.125
Q14.0625 -1.125 9.60938 1.3125
Q5.17188 3.76562 5.17188 8.59375
Q5.17188 11.3281 6.75 13.3438
Q8.34375 15.375 11.0781 15.375
Q12.7031 15.375 13.7969 14.3906
Q14.8906 13.4219 14.8906 11.8125
Q14.8906 9.51562 13.1719 7.8125
Q11.4688 6.10938 9.1875 6.10938
z
" id="Cmmi10-73"/>
     </defs>
     <g transform="translate(436.420173913 110.30175)scale(0.144 -0.144)">
      <use transform="translate(0.0 0.8125)" xlink:href="#Cmmi10-ae"/>
      <use transform="translate(63.916015625 -24.696875)scale(0.7)" xlink:href="#Cmmi10-73"/>
     </g>
    </g>
    <g id="line2d_51">
     <path d="
M400.42 127.292
L420.58 127.292" style="fill:none;stroke:#008000;stroke-linecap:square;"/>
    </g>
    <g id="line2d_52"/>
    <g id="text_20">
     <!-- $\alpha_v$ -->
     <defs>
      <path d="
M10.6875 11.2812
Q10.6875 13.5312 11.2188 16.2031
Q11.7656 18.8906 12.2969 20.625
Q12.8438 22.3594 14.75 27.3906
Q16.6562 32.4219 16.7031 32.625
Q18.0156 36.2812 18.0156 38.625
Q18.0156 41.6094 15.8281 41.6094
Q11.8594 41.6094 9.29688 37.5312
Q6.73438 33.4531 5.51562 28.4219
Q5.32812 27.7812 4.6875 27.7812
L3.51562 27.7812
Q2.6875 27.7812 2.6875 28.7188
L2.6875 29
Q4.29688 34.9688 7.60938 39.5781
Q10.9375 44.1875 16.0156 44.1875
Q19.5781 44.1875 22.0469 41.8438
Q24.5156 39.5 24.5156 35.8906
Q24.5156 34.0312 23.6875 31.9844
Q21.7344 26.9062 20.6094 23.8438
Q19.4844 20.7969 18.5312 17.0156
Q17.5781 13.2344 17.5781 10.0156
Q17.5781 6.25 19.3125 3.875
Q21.0469 1.51562 24.7031 1.51562
Q31.6406 1.51562 37.2031 12.2031
Q38.9688 15.6719 40.5312 20.3594
Q42.0938 25.0469 42.0938 27.9844
Q42.0938 31 41.1094 32.6875
Q40.1406 34.375 38.5781 36.2031
Q37.0156 38.0312 37.0156 39.1094
Q37.0156 41.0625 38.625 42.6719
Q40.2344 44.2812 42.1875 44.2812
Q44.5781 44.2812 45.625 42.0781
Q46.6875 39.8906 46.6875 37.1094
Q46.6875 33.7969 45.7344 29.2031
Q44.7812 24.6094 43.0938 19.6719
Q41.4062 14.75 39.9844 11.9219
Q33.4062 -1.125 24.6094 -1.125
Q18.3125 -1.125 14.5 2.01562
Q10.6875 5.17188 10.6875 11.2812" id="Cmmi10-76"/>
     </defs>
     <g transform="translate(436.420173913 132.3315)scale(0.144 -0.144)">
      <use transform="translate(0.0 0.8125)" xlink:href="#Cmmi10-ae"/>
      <use transform="translate(63.916015625 -24.696875)scale(0.7)" xlink:href="#Cmmi10-76"/>
     </g>
    </g>
    <g id="line2d_53">
     <path d="
M400.42 149.321
L420.58 149.321" style="fill:none;stroke:#ff0000;stroke-linecap:square;"/>
    </g>
    <g id="line2d_54"/>
    <g id="text_21">
     <!-- $\alpha_t$ -->
     <defs>
      <path d="
M6.20312 8.10938
Q6.20312 9.57812 6.5 10.8906
L13.7188 39.5938
L3.21875 39.5938
Q2.20312 39.5938 2.20312 40.9219
Q2.59375 43.1094 3.51562 43.1094
L14.5938 43.1094
L18.6094 59.4219
Q19 60.75 20.1719 61.6719
Q21.3438 62.5938 22.7969 62.5938
Q24.0781 62.5938 24.9219 61.8281
Q25.7812 61.0781 25.7812 59.8125
Q25.7812 59.5156 25.75 59.3438
Q25.7344 59.1875 25.6875 58.9844
L21.6875 43.1094
L31.9844 43.1094
Q33.0156 43.1094 33.0156 41.7969
Q32.9531 41.5469 32.8125 40.9531
Q32.6719 40.375 32.4219 39.9844
Q32.1719 39.5938 31.6875 39.5938
L20.7969 39.5938
L13.625 10.6875
Q12.8906 7.85938 12.8906 5.8125
Q12.8906 1.51562 15.8281 1.51562
Q20.2188 1.51562 23.6094 5.64062
Q27 9.76562 28.8125 14.7031
Q29.2031 15.2812 29.5938 15.2812
L30.8125 15.2812
Q31.2031 15.2812 31.4375 15.0156
Q31.6875 14.75 31.6875 14.4062
Q31.6875 14.2031 31.5938 14.1094
Q29.3906 8.0625 25.1875 3.46875
Q21 -1.125 15.5781 -1.125
Q11.625 -1.125 8.90625 1.45312
Q6.20312 4.04688 6.20312 8.10938" id="Cmmi10-74"/>
     </defs>
     <g transform="translate(436.420173913 154.36125)scale(0.144 -0.144)">
      <use transform="translate(0.0 0.8125)" xlink:href="#Cmmi10-ae"/>
      <use transform="translate(63.916015625 -24.696875)scale(0.7)" xlink:href="#Cmmi10-74"/>
     </g>
    </g>
   </g>
  </g>
  <g id="axes_2">
   <g id="patch_8">
    <path d="
M567.548 365.4
L907.2 365.4
L907.2 86.4
L567.548 86.4
z
" style="fill:#ffffff;"/>
   </g>
   <g id="line2d_55">
    <path clip-path="url(#pe1dd2dcbed)" d="
M1009 226.88
L941.905 227.318
L896.653 227.822
L864.934 228.384
L842.602 228.99
L827.306 229.612
L817.242 230.227
L810.8 230.823
L806.799 231.395
L804.351 231.943
L802.819 232.491
L801.952 232.994
L801.414 233.518
L801.199 233.886
L800.878 234.753
L800.771 234.457
L800.664 235.259
L800.557 234.259
L800.451 240.425
L800.344 233.224
L800.238 233.82
L800.132 233.476
L800.025 231.354
L799.919 237.859
L799.707 231.622
L799.602 236.525
L799.496 233.538
L799.39 237.748
L799.285 226.318
L799.074 260.934
L798.969 193.714
L798.758 228.429
L798.654 214.337
L798.444 230.349
L798.339 232.743
L798.235 194.351
L798.026 230.86
L797.817 234.434
L797.817 -1
M797.609 -1
L797.609 228.524
L797.505 230.681
L797.194 234.493
L797.091 240.985
L796.987 222.363
L796.781 230.793
L796.368 234.834
L796.266 238.365
L796.266 -1
M796.06 -1
L796.06 225.848
L795.958 229.365
L795.651 232.25
L795.345 234.555
L795.243 236.053
L795.141 239.42
L795.039 260.794
L794.938 217.033
L794.735 229.062
L794.431 231.786
L793.927 234.823
L793.725 237.44
L793.625 240.462
L793.525 249.47
L793.452 -1
M793.394 -1
L793.324 216.996
L793.224 224.776
L792.924 230.084
L792.526 232.471
L792.03 235.263
L791.734 238.742
L791.536 245.563
L791.438 257.011
L791.339 371.281
L791.241 192.897
L791.143 215.097
L790.947 224.478
L790.653 228.501
L790.263 230.847
L789.1 236.507
L788.811 239.78
L788.619 244.236
L788.427 256.165
L788.331 275.973
L788.235 441.759
L788.14 153.613
L788.044 198.7
L787.853 216.511
L787.568 223.612
L787.188 227.203
L786.715 229.52
L785.123 235.781
L784.752 238.819
L784.474 243.026
L784.289 248.325
L784.105 259.861
L784.013 273.032
L783.921 306.215
L783.829 553.078
L783.737 84.5746
L783.645 170.584
L783.462 202.847
L783.188 215.202
L782.823 221.04
L782.369 224.321
L781.826 226.458
L781.107 228.264
L779.155 232.548
L778.716 234.225
L778.366 236.325
L778.017 240.096
L777.757 246.018
L777.583 254.683
L777.41 279.712
L777.324 326.26
L777.276 865
M777.206 865
L777.151 109.262
L777.151 109.262
L777.151 109.262
L776.978 191.662
L776.72 210.595
L776.377 218.071
L775.95 221.853
L775.524 223.797
L775.016 225.198
L774.341 226.366
L773.505 227.314
L772.427 228.158
L770.873 229.064
L768.386 230.491
L767.597 231.23
L767.127 231.943
L766.736 232.942
L766.425 234.429
L766.192 236.693
L766.037 239.851
L765.883 248.07
L765.806 260.532
L765.728 325.952
L765.651 144.564
L765.574 200.306
L765.343 219.913
L765.036 224.654
L764.654 226.688
L764.197 227.803
L763.667 228.515
L762.915 229.122
L761.871 229.654
L760.18 230.237
L757.946 231.005
L757.733 231.313
L757.662 231.59
L757.591 232.389
L757.591 -1
M757.449 -1
L757.449 229.285
L757.378 230.084
L757.166 230.599
L756.744 230.857
L755.625 231.166
L751.281 232.037
L745.876 233.197
L743.96 233.815
L743.048 234.309
L742.505 234.821
L742.145 235.421
L741.846 236.371
L741.608 238.072
L741.43 241.616
L741.311 250.372
L741.252 270.533
L741.192 53.6396
L741.133 207.524
L740.956 226.378
L740.72 230.017
L740.426 231.498
L740.016 232.386
L739.492 232.959
L738.74 233.436
L737.426 233.968
L734.748 234.76
L725.907 237.293
L721.688 238.766
L718.043 240.27
L714.822 241.838
L711.94 243.487
L709.366 245.214
L707.034 247.041
L704.89 249.001
L702.918 251.101
L701.072 253.393
L699.343 255.899
L697.726 258.643
L696.212 261.654
L694.766 265.041
L693.413 268.785
L692.12 273.039
L690.912 277.782
L689.758 283.233
L688.653 289.556
L687.625 296.751
L686.642 305.236
L685.702 315.38
L684.831 327.283
L684.026 341.355
L683.258 358.808
L682.553 380.07
L681.907 406.295
L681.294 440.775
L680.737 485.528
L680.236 545.071
L679.789 626.705
L679.394 742.847
L679.133 865
M678.026 865
L678.026 -1
M674.814 -1
L674.171 36.2672
L673.461 65.194
L672.696 87.7473
L671.877 105.644
L670.987 120.373
L670.049 132.32
L669.048 142.325
L667.987 150.746
L666.87 157.874
L665.683 164.032
L664.45 169.284
L663.14 173.908
L661.761 177.97
L660.319 181.535
L658.789 184.729
L657.183 187.575
L655.48 190.147
L653.665 192.488
L651.715 194.643
L649.612 196.634
L647.286 198.528
L644.42 200.556
L642.563 201.952
L642.079 202.583
L641.819 203.283
L641.646 204.429
L641.527 206.997
L641.463 213.046
L641.431 229.605
L641.42 257.181
L641.42 257.181
L641.42 257.181
L641.42 -1
M641.398 -1
L641.398 146.91
L641.291 197.093
L641.1 200.301
L640.835 201.315
L640.447 201.921
L639.805 202.473
L638.605 203.177
L636.423 204.176
L633.292 205.359
L629.523 206.541
L625.193 207.662
L620.274 208.701
L618.465 209.032
L618.465 209.032" style="fill:none;stroke:#0000ff;stroke-linecap:square;"/>
   </g>
   <g id="line2d_56">
    <path clip-path="url(#pe1dd2dcbed)" d="
M1009 225.9
L618.465 225.9
L618.465 225.9" style="fill:none;stroke:#008000;stroke-linecap:square;"/>
   </g>
   <g id="line2d_57">
    <path clip-path="url(#pe1dd2dcbed)" d="
M1009 225.9
L618.465 225.9
L618.465 225.9" style="fill:none;stroke:#ff0000;stroke-linecap:square;"/>
   </g>
   <g id="matplotlib.axis_3">
    <g id="xtick_7">
     <g id="line2d_58">
      <path clip-path="url(#pe1dd2dcbed)" d="
M567.548 365.4
L567.548 86.4" style="fill:none;stroke:#000000;stroke-dasharray:1.000000,3.000000;stroke-dashoffset:0.0;stroke-width:0.5;"/>
     </g>
     <g id="line2d_59">
      <g>
       <use style="stroke:#000000;stroke-width:0.5;" x="567.547826087" xlink:href="#m93b0483c22" y="365.4"/>
      </g>
     </g>
     <g id="line2d_60">
      <g>
       <use style="stroke:#000000;stroke-width:0.5;" x="567.547826087" xlink:href="#m741efc42ff" y="86.4"/>
      </g>
     </g>
     <g id="text_22">
      <!-- 0 -->
      <g transform="translate(564.524388587 378.518125)scale(0.12 -0.12)">
       <use xlink:href="#DejaVuSerif-30"/>
      </g>
     </g>
    </g>
    <g id="xtick_8">
     <g id="line2d_61">
      <path clip-path="url(#pe1dd2dcbed)" d="
M652.461 365.4
L652.461 86.4" style="fill:none;stroke:#000000;stroke-dasharray:1.000000,3.000000;stroke-dashoffset:0.0;stroke-width:0.5;"/>
     </g>
     <g id="line2d_62">
      <g>
       <use style="stroke:#000000;stroke-width:0.5;" x="652.460869565" xlink:href="#m93b0483c22" y="365.4"/>
      </g>
     </g>
     <g id="line2d_63">
      <g>
       <use style="stroke:#000000;stroke-width:0.5;" x="652.460869565" xlink:href="#m741efc42ff" y="86.4"/>
      </g>
     </g>
     <g id="text_23">
      <!-- 500 -->
      <g transform="translate(641.916807065 378.518125)scale(0.12 -0.12)">
       <use xlink:href="#DejaVuSerif-35"/>
       <use x="63.623046875" xlink:href="#DejaVuSerif-30"/>
       <use x="127.24609375" xlink:href="#DejaVuSerif-30"/>
      </g>
     </g>
    </g>
    <g id="xtick_9">
     <g id="line2d_64">
      <path clip-path="url(#pe1dd2dcbed)" d="
M737.374 365.4
L737.374 86.4" style="fill:none;stroke:#000000;stroke-dasharray:1.000000,3.000000;stroke-dashoffset:0.0;stroke-width:0.5;"/>
     </g>
     <g id="line2d_65">
      <g>
       <use style="stroke:#000000;stroke-width:0.5;" x="737.373913043" xlink:href="#m93b0483c22" y="365.4"/>
      </g>
     </g>
     <g id="line2d_66">
      <g>
       <use style="stroke:#000000;stroke-width:0.5;" x="737.373913043" xlink:href="#m741efc42ff" y="86.4"/>
      </g>
     </g>
     <g id="text_24">
      <!-- 1000 -->
      <g transform="translate(723.234538043 378.518125)scale(0.12 -0.12)">
       <use xlink:href="#DejaVuSerif-31"/>
       <use x="63.623046875" xlink:href="#DejaVuSerif-30"/>
       <use x="127.24609375" xlink:href="#DejaVuSerif-30"/>
       <use x="190.869140625" xlink:href="#DejaVuSerif-30"/>
      </g>
     </g>
    </g>
    <g id="xtick_10">
     <g id="line2d_67">
      <path clip-path="url(#pe1dd2dcbed)" d="
M822.287 365.4
L822.287 86.4" style="fill:none;stroke:#000000;stroke-dasharray:1.000000,3.000000;stroke-dashoffset:0.0;stroke-width:0.5;"/>
     </g>
     <g id="line2d_68">
      <g>
       <use style="stroke:#000000;stroke-width:0.5;" x="822.286956522" xlink:href="#m93b0483c22" y="365.4"/>
      </g>
     </g>
     <g id="line2d_69">
      <g>
       <use style="stroke:#000000;stroke-width:0.5;" x="822.286956522" xlink:href="#m741efc42ff" y="86.4"/>
      </g>
     </g>
     <g id="text_25">
      <!-- 1500 -->
      <g transform="translate(808.147581522 378.518125)scale(0.12 -0.12)">
       <use xlink:href="#DejaVuSerif-31"/>
       <use x="63.623046875" xlink:href="#DejaVuSerif-35"/>
       <use x="127.24609375" xlink:href="#DejaVuSerif-30"/>
       <use x="190.869140625" xlink:href="#DejaVuSerif-30"/>
      </g>
     </g>
    </g>
    <g id="xtick_11">
     <g id="line2d_70">
      <path clip-path="url(#pe1dd2dcbed)" d="
M907.2 365.4
L907.2 86.4" style="fill:none;stroke:#000000;stroke-dasharray:1.000000,3.000000;stroke-dashoffset:0.0;stroke-width:0.5;"/>
     </g>
     <g id="line2d_71">
      <g>
       <use style="stroke:#000000;stroke-width:0.5;" x="907.2" xlink:href="#m93b0483c22" y="365.4"/>
      </g>
     </g>
     <g id="line2d_72">
      <g>
       <use style="stroke:#000000;stroke-width:0.5;" x="907.2" xlink:href="#m741efc42ff" y="86.4"/>
      </g>
     </g>
     <g id="text_26">
      <!-- 2000 -->
      <g transform="translate(892.7353125 378.518125)scale(0.12 -0.12)">
       <use xlink:href="#DejaVuSerif-32"/>
       <use x="63.623046875" xlink:href="#DejaVuSerif-30"/>
       <use x="127.24609375" xlink:href="#DejaVuSerif-30"/>
       <use x="190.869140625" xlink:href="#DejaVuSerif-30"/>
      </g>
     </g>
    </g>
    <g id="text_27">
     <!-- $f$ (THz) -->
     <defs>
      <path d="
M5.51562 0
L5.51562 5.17188
L14.7969 5.17188
L14.7969 67.6719
L5.51562 67.6719
L5.51562 72.9062
L33.9844 72.9062
L33.9844 67.6719
L24.7031 67.6719
L24.7031 42.4844
L62.5 42.4844
L62.5 67.6719
L53.2188 67.6719
L53.2188 72.9062
L81.6875 72.9062
L81.6875 67.6719
L72.4062 67.6719
L72.4062 5.17188
L81.6875 5.17188
L81.6875 0
L53.2188 0
L53.2188 5.17188
L62.5 5.17188
L62.5 36.5312
L24.7031 36.5312
L24.7031 5.17188
L33.9844 5.17188
L33.9844 0
z
" id="DejaVuSerif-48"/>
      <path d="
M19.0938 0
L19.0938 5.17188
L28.4219 5.17188
L28.4219 67.0938
L6.98438 67.0938
L6.98438 55.7188
L0.984375 55.7188
L0.984375 72.9062
L65.7188 72.9062
L65.7188 55.7188
L59.7188 55.7188
L59.7188 67.0938
L38.2812 67.0938
L38.2812 5.17188
L47.6094 5.17188
L47.6094 0
z
" id="DejaVuSerif-54"/>
      <path d="
M4 0
L4 4.20312
L36.5312 46.6875
L10.7969 46.6875
L10.7969 37.7031
L5.60938 37.7031
L5.60938 51.9062
L48.0938 51.9062
L48.0938 47.7031
L15.5781 5.17188
L43.7969 5.17188
L43.7969 14.5938
L49.0312 14.5938
L49.0312 0
z
" id="DejaVuSerif-7a"/>
      <path d="
M9.71875 -16.5
Q11.5781 -17.9219 14.2031 -17.9219
Q17.7812 -17.9219 20.0156 -10.0156
Q20.9531 -6.20312 25.0938 15.0938
L29.6875 39.5938
L21.0938 39.5938
Q20.125 39.5938 20.125 40.9219
Q20.5156 43.1094 21.3906 43.1094
L30.3281 43.1094
L31.5 49.6094
Q32.0781 52.6406 32.5625 54.8125
Q33.0625 56.9844 33.625 58.8281
Q34.1875 60.6875 35.2969 62.9844
Q37.0156 66.2656 39.9219 68.3906
Q42.8281 70.5156 46.1875 70.5156
Q48.3906 70.5156 50.4688 69.7031
Q52.5469 68.8906 53.8594 67.2812
Q55.1719 65.6719 55.1719 63.4844
Q55.1719 60.9375 53.4844 59.0469
Q51.8125 57.1719 49.4219 57.1719
Q47.7969 57.1719 46.6562 58.1719
Q45.5156 59.1875 45.5156 60.7969
Q45.5156 62.9844 47 64.625
Q48.4844 66.2656 50.6875 66.5
Q48.8281 67.9219 46.0938 67.9219
Q44.5781 67.9219 43.2344 66.5
Q41.8906 65.0938 41.5 63.4844
Q40.875 60.9375 38.7188 49.7031
L37.5 43.1094
L47.7969 43.1094
Q48.7812 43.1094 48.7812 41.7969
Q48.7344 41.5469 48.5781 40.9375
Q48.4375 40.3281 48.1719 39.9531
Q47.9062 39.5938 47.5156 39.5938
L36.8125 39.5938
L32.1719 15.1875
Q31.2969 9.85938 30.1406 4.35938
Q29 -1.125 26.9219 -6.90625
Q24.8594 -12.7031 21.625 -16.6094
Q18.4062 -20.5156 14.0156 -20.5156
Q10.6406 -20.5156 7.98438 -18.5781
Q5.32812 -16.6562 5.32812 -13.4844
Q5.32812 -10.9375 6.95312 -9.04688
Q8.59375 -7.17188 11.0781 -7.17188
Q12.75 -7.17188 13.8594 -8.17188
Q14.9844 -9.1875 14.9844 -10.7969
Q14.9844 -12.9375 13.3906 -14.7188
Q11.8125 -16.5 9.71875 -16.5" id="Cmmi10-66"/>
     </defs>
     <g transform="translate(715.413913043 395.13375)scale(0.12 -0.12)">
      <use transform="translate(0.0 0.015625)" xlink:href="#Cmmi10-66"/>
      <use transform="translate(48.876953125 0.015625)" xlink:href="#DejaVuSerif-20"/>
      <use transform="translate(80.6640625 0.015625)" xlink:href="#DejaVuSerif-28"/>
      <use transform="translate(119.677734375 0.015625)" xlink:href="#DejaVuSerif-54"/>
      <use transform="translate(186.376953125 0.015625)" xlink:href="#DejaVuSerif-48"/>
      <use transform="translate(273.583984375 0.015625)" xlink:href="#DejaVuSerif-7a"/>
      <use transform="translate(326.26953125 0.015625)" xlink:href="#DejaVuSerif-29"/>
     </g>
    </g>
   </g>
   <g id="matplotlib.axis_4">
    <g id="ytick_10">
     <g id="line2d_73">
      <path clip-path="url(#pe1dd2dcbed)" d="
M567.548 365.4
L907.2 365.4" style="fill:none;stroke:#000000;stroke-dasharray:1.000000,3.000000;stroke-dashoffset:0.0;stroke-width:0.5;"/>
     </g>
     <g id="line2d_74">
      <g>
       <use style="stroke:#000000;stroke-width:0.5;" x="567.547826087" xlink:href="#m728421d6d4" y="365.4"/>
      </g>
     </g>
     <g id="line2d_75">
      <g>
       <use style="stroke:#000000;stroke-width:0.5;" x="907.2" xlink:href="#mcb0005524f" y="365.4"/>
      </g>
     </g>
     <g id="text_28">
      <!-- −2000 -->
      <g transform="translate(525.020326087 368.71125)scale(0.12 -0.12)">
       <use xlink:href="#DejaVuSerif-2212"/>
       <use x="83.7890625" xlink:href="#DejaVuSerif-32"/>
       <use x="147.412109375" xlink:href="#DejaVuSerif-30"/>
       <use x="211.03515625" xlink:href="#DejaVuSerif-30"/>
       <use x="274.658203125" xlink:href="#DejaVuSerif-30"/>
      </g>
     </g>
    </g>
    <g id="ytick_11">
     <g id="line2d_76">
      <path clip-path="url(#pe1dd2dcbed)" d="
M567.548 330.525
L907.2 330.525" style="fill:none;stroke:#000000;stroke-dasharray:1.000000,3.000000;stroke-dashoffset:0.0;stroke-width:0.5;"/>
     </g>
     <g id="line2d_77">
      <g>
       <use style="stroke:#000000;stroke-width:0.5;" x="567.547826087" xlink:href="#m728421d6d4" y="330.525"/>
      </g>
     </g>
     <g id="line2d_78">
      <g>
       <use style="stroke:#000000;stroke-width:0.5;" x="907.2" xlink:href="#mcb0005524f" y="330.525"/>
      </g>
     </g>
     <g id="text_29">
      <!-- −1500 -->
      <g transform="translate(525.020326087 333.83625)scale(0.12 -0.12)">
       <use xlink:href="#DejaVuSerif-2212"/>
       <use x="83.7890625" xlink:href="#DejaVuSerif-31"/>
       <use x="147.412109375" xlink:href="#DejaVuSerif-35"/>
       <use x="211.03515625" xlink:href="#DejaVuSerif-30"/>
       <use x="274.658203125" xlink:href="#DejaVuSerif-30"/>
      </g>
     </g>
    </g>
    <g id="ytick_12">
     <g id="line2d_79">
      <path clip-path="url(#pe1dd2dcbed)" d="
M567.548 295.65
L907.2 295.65" style="fill:none;stroke:#000000;stroke-dasharray:1.000000,3.000000;stroke-dashoffset:0.0;stroke-width:0.5;"/>
     </g>
     <g id="line2d_80">
      <g>
       <use style="stroke:#000000;stroke-width:0.5;" x="567.547826087" xlink:href="#m728421d6d4" y="295.65"/>
      </g>
     </g>
     <g id="line2d_81">
      <g>
       <use style="stroke:#000000;stroke-width:0.5;" x="907.2" xlink:href="#mcb0005524f" y="295.65"/>
      </g>
     </g>
     <g id="text_30">
      <!-- −1000 -->
      <g transform="translate(525.020326087 298.96125)scale(0.12 -0.12)">
       <use xlink:href="#DejaVuSerif-2212"/>
       <use x="83.7890625" xlink:href="#DejaVuSerif-31"/>
       <use x="147.412109375" xlink:href="#DejaVuSerif-30"/>
       <use x="211.03515625" xlink:href="#DejaVuSerif-30"/>
       <use x="274.658203125" xlink:href="#DejaVuSerif-30"/>
      </g>
     </g>
    </g>
    <g id="ytick_13">
     <g id="line2d_82">
      <path clip-path="url(#pe1dd2dcbed)" d="
M567.548 260.775
L907.2 260.775" style="fill:none;stroke:#000000;stroke-dasharray:1.000000,3.000000;stroke-dashoffset:0.0;stroke-width:0.5;"/>
     </g>
     <g id="line2d_83">
      <g>
       <use style="stroke:#000000;stroke-width:0.5;" x="567.547826087" xlink:href="#m728421d6d4" y="260.775"/>
      </g>
     </g>
     <g id="line2d_84">
      <g>
       <use style="stroke:#000000;stroke-width:0.5;" x="907.2" xlink:href="#mcb0005524f" y="260.775"/>
      </g>
     </g>
     <g id="text_31">
      <!-- −500 -->
      <g transform="translate(532.655326087 264.08625)scale(0.12 -0.12)">
       <use xlink:href="#DejaVuSerif-2212"/>
       <use x="83.7890625" xlink:href="#DejaVuSerif-35"/>
       <use x="147.412109375" xlink:href="#DejaVuSerif-30"/>
       <use x="211.03515625" xlink:href="#DejaVuSerif-30"/>
      </g>
     </g>
    </g>
    <g id="ytick_14">
     <g id="line2d_85">
      <path clip-path="url(#pe1dd2dcbed)" d="
M567.548 225.9
L907.2 225.9" style="fill:none;stroke:#000000;stroke-dasharray:1.000000,3.000000;stroke-dashoffset:0.0;stroke-width:0.5;"/>
     </g>
     <g id="line2d_86">
      <g>
       <use style="stroke:#000000;stroke-width:0.5;" x="567.547826087" xlink:href="#m728421d6d4" y="225.9"/>
      </g>
     </g>
     <g id="line2d_87">
      <g>
       <use style="stroke:#000000;stroke-width:0.5;" x="907.2" xlink:href="#mcb0005524f" y="225.9"/>
      </g>
     </g>
     <g id="text_32">
      <!-- 0 -->
      <g transform="translate(557.500951087 229.21125)scale(0.12 -0.12)">
       <use xlink:href="#DejaVuSerif-30"/>
      </g>
     </g>
    </g>
    <g id="ytick_15">
     <g id="line2d_88">
      <path clip-path="url(#pe1dd2dcbed)" d="
M567.548 191.025
L907.2 191.025" style="fill:none;stroke:#000000;stroke-dasharray:1.000000,3.000000;stroke-dashoffset:0.0;stroke-width:0.5;"/>
     </g>
     <g id="line2d_89">
      <g>
       <use style="stroke:#000000;stroke-width:0.5;" x="567.547826087" xlink:href="#m728421d6d4" y="191.025"/>
      </g>
     </g>
     <g id="line2d_90">
      <g>
       <use style="stroke:#000000;stroke-width:0.5;" x="907.2" xlink:href="#mcb0005524f" y="191.025"/>
      </g>
     </g>
     <g id="text_33">
      <!-- 500 -->
      <g transform="translate(542.459701087 194.33625)scale(0.12 -0.12)">
       <use xlink:href="#DejaVuSerif-35"/>
       <use x="63.623046875" xlink:href="#DejaVuSerif-30"/>
       <use x="127.24609375" xlink:href="#DejaVuSerif-30"/>
      </g>
     </g>
    </g>
    <g id="ytick_16">
     <g id="line2d_91">
      <path clip-path="url(#pe1dd2dcbed)" d="
M567.548 156.15
L907.2 156.15" style="fill:none;stroke:#000000;stroke-dasharray:1.000000,3.000000;stroke-dashoffset:0.0;stroke-width:0.5;"/>
     </g>
     <g id="line2d_92">
      <g>
       <use style="stroke:#000000;stroke-width:0.5;" x="567.547826087" xlink:href="#m728421d6d4" y="156.15"/>
      </g>
     </g>
     <g id="line2d_93">
      <g>
       <use style="stroke:#000000;stroke-width:0.5;" x="907.2" xlink:href="#mcb0005524f" y="156.15"/>
      </g>
     </g>
     <g id="text_34">
      <!-- 1000 -->
      <g transform="translate(535.269076087 159.46125)scale(0.12 -0.12)">
       <use xlink:href="#DejaVuSerif-31"/>
       <use x="63.623046875" xlink:href="#DejaVuSerif-30"/>
       <use x="127.24609375" xlink:href="#DejaVuSerif-30"/>
       <use x="190.869140625" xlink:href="#DejaVuSerif-30"/>
      </g>
     </g>
    </g>
    <g id="ytick_17">
     <g id="line2d_94">
      <path clip-path="url(#pe1dd2dcbed)" d="
M567.548 121.275
L907.2 121.275" style="fill:none;stroke:#000000;stroke-dasharray:1.000000,3.000000;stroke-dashoffset:0.0;stroke-width:0.5;"/>
     </g>
     <g id="line2d_95">
      <g>
       <use style="stroke:#000000;stroke-width:0.5;" x="567.547826087" xlink:href="#m728421d6d4" y="121.275"/>
      </g>
     </g>
     <g id="line2d_96">
      <g>
       <use style="stroke:#000000;stroke-width:0.5;" x="907.2" xlink:href="#mcb0005524f" y="121.275"/>
      </g>
     </g>
     <g id="text_35">
      <!-- 1500 -->
      <g transform="translate(535.269076087 124.58625)scale(0.12 -0.12)">
       <use xlink:href="#DejaVuSerif-31"/>
       <use x="63.623046875" xlink:href="#DejaVuSerif-35"/>
       <use x="127.24609375" xlink:href="#DejaVuSerif-30"/>
       <use x="190.869140625" xlink:href="#DejaVuSerif-30"/>
      </g>
     </g>
    </g>
    <g id="ytick_18">
     <g id="line2d_97">
      <path clip-path="url(#pe1dd2dcbed)" d="
M567.548 86.4
L907.2 86.4" style="fill:none;stroke:#000000;stroke-dasharray:1.000000,3.000000;stroke-dashoffset:0.0;stroke-width:0.5;"/>
     </g>
     <g id="line2d_98">
      <g>
       <use style="stroke:#000000;stroke-width:0.5;" x="567.547826087" xlink:href="#m728421d6d4" y="86.4"/>
      </g>
     </g>
     <g id="line2d_99">
      <g>
       <use style="stroke:#000000;stroke-width:0.5;" x="907.2" xlink:href="#mcb0005524f" y="86.4"/>
      </g>
     </g>
     <g id="text_36">
      <!-- 2000 -->
      <g transform="translate(534.618451087 89.71125)scale(0.12 -0.12)">
       <use xlink:href="#DejaVuSerif-32"/>
       <use x="63.623046875" xlink:href="#DejaVuSerif-30"/>
       <use x="127.24609375" xlink:href="#DejaVuSerif-30"/>
       <use x="190.869140625" xlink:href="#DejaVuSerif-30"/>
      </g>
     </g>
    </g>
    <g id="text_37">
     <!-- $\alpha$ (a.u.) -->
     <g transform="translate(517.524701087 247.62)rotate(-90.0)scale(0.12 -0.12)">
      <use transform="translate(0.0 0.015625)" xlink:href="#Cmmi10-ae"/>
      <use transform="translate(63.916015625 0.015625)" xlink:href="#DejaVuSerif-20"/>
      <use transform="translate(95.703125 0.015625)" xlink:href="#DejaVuSerif-28"/>
      <use transform="translate(134.716796875 0.015625)" xlink:href="#DejaVuSerif-61"/>
      <use transform="translate(194.3359375 0.015625)" xlink:href="#DejaVuSerif-2e"/>
      <use transform="translate(226.123046875 0.015625)" xlink:href="#DejaVuSerif-75"/>
      <use transform="translate(290.52734375 0.015625)" xlink:href="#DejaVuSerif-2e"/>
      <use transform="translate(322.314453125 0.015625)" xlink:href="#DejaVuSerif-29"/>
     </g>
    </g>
   </g>
   <g id="patch_9">
    <path d="
M567.548 86.4
L907.2 86.4" style="fill:none;stroke:#000000;"/>
   </g>
   <g id="patch_10">
    <path d="
M907.2 365.4
L907.2 86.4" style="fill:none;stroke:#000000;"/>
   </g>
   <g id="patch_11">
    <path d="
M567.548 365.4
L907.2 365.4" style="fill:none;stroke:#000000;"/>
   </g>
   <g id="patch_12">
    <path d="
M567.548 365.4
L567.548 86.4" style="fill:none;stroke:#000000;"/>
   </g>
   <g id="text_38">
    <!-- $^1S_0$ -->
    <g transform="translate(724.485913043 81.4)scale(0.144 -0.144)">
     <use transform="translate(0.0 43.3734375)scale(0.7)" xlink:href="#Cmr10-31"/>
     <use transform="translate(67.00625 0.8578125)" xlink:href="#Cmmi10-53"/>
     <use transform="translate(128.285546875 -24.6515625)scale(0.7)" xlink:href="#Cmr10-30"/>
    </g>
   </g>
   <g id="legend_2">
    <g id="patch_13">
     <path d="
M831.888 164.009
L900 164.009
L900 93.6
L831.888 93.6
L831.888 164.009
z
" style="fill:#ffffff;stroke:#000000;"/>
    </g>
    <g id="line2d_100">
     <path d="
M841.968 105.262
L862.128 105.262" style="fill:none;stroke:#0000ff;stroke-linecap:square;"/>
    </g>
    <g id="line2d_101"/>
    <g id="text_39">
     <!-- $\alpha_s$ -->
     <g transform="translate(877.968 110.30175)scale(0.144 -0.144)">
      <use transform="translate(0.0 0.8125)" xlink:href="#Cmmi10-ae"/>
      <use transform="translate(63.916015625 -24.696875)scale(0.7)" xlink:href="#Cmmi10-73"/>
     </g>
    </g>
    <g id="line2d_102">
     <path d="
M841.968 127.292
L862.128 127.292" style="fill:none;stroke:#008000;stroke-linecap:square;"/>
    </g>
    <g id="line2d_103"/>
    <g id="text_40">
     <!-- $\alpha_v$ -->
     <g transform="translate(877.968 132.3315)scale(0.144 -0.144)">
      <use transform="translate(0.0 0.8125)" xlink:href="#Cmmi10-ae"/>
      <use transform="translate(63.916015625 -24.696875)scale(0.7)" xlink:href="#Cmmi10-76"/>
     </g>
    </g>
    <g id="line2d_104">
     <path d="
M841.968 149.321
L862.128 149.321" style="fill:none;stroke:#ff0000;stroke-linecap:square;"/>
    </g>
    <g id="line2d_105"/>
    <g id="text_41">
     <!-- $\alpha_t$ -->
     <g transform="translate(877.968 154.36125)scale(0.144 -0.144)">
      <use transform="translate(0.0 0.8125)" xlink:href="#Cmmi10-ae"/>
      <use transform="translate(63.916015625 -24.696875)scale(0.7)" xlink:href="#Cmmi10-74"/>
     </g>
    </g>
   </g>
  </g>
  <g id="axes_3">
   <g id="patch_14">
    <path d="
M126 756
L465.652 756
L465.652 477
L126 477
z
" style="fill:#ffffff;"/>
   </g>
   <g id="line2d_106">
    <path clip-path="url(#p34c5563ee1)" d="
M147.228 511.693
L151.898 518.509
L156.569 524.912
L161.239 530.938
L165.909 536.62
L171.004 542.459
L176.099 547.955
L181.193 553.138
L186.713 558.43
L192.232 563.413
L198.176 568.465
L204.12 573.219
L210.064 577.7
L216.432 582.225
L222.801 586.489
L229.594 590.772
L236.812 595.051
L244.029 599.073
L251.671 603.078
L259.738 607.047
L268.229 610.964
L276.721 614.638
L285.637 618.257
L294.977 621.812
L304.742 625.293
L314.932 628.693
L325.546 632.005
L337.009 635.346
L348.897 638.576
L361.209 641.694
L374.371 644.799
L388.381 647.87
L403.241 650.891
L418.525 653.773
L435.083 656.663
L443.999 658.13
L443.999 658.13" style="fill:none;stroke:#0000ff;stroke-linecap:square;"/>
   </g>
   <g id="line2d_107">
    <path clip-path="url(#p34c5563ee1)" d="
M147.228 756
L443.999 756
L443.999 756" style="fill:none;stroke:#008000;stroke-linecap:square;"/>
   </g>
   <g id="line2d_108">
    <path clip-path="url(#p34c5563ee1)" d="
M147.228 756
L443.999 756
L443.999 756" style="fill:none;stroke:#ff0000;stroke-linecap:square;"/>
   </g>
   <g id="matplotlib.axis_5">
    <g id="xtick_12">
     <g id="line2d_109">
      <path clip-path="url(#p34c5563ee1)" d="
M126 756
L126 477" style="fill:none;stroke:#000000;stroke-dasharray:1.000000,3.000000;stroke-dashoffset:0.0;stroke-width:0.5;"/>
     </g>
     <g id="line2d_110">
      <g>
       <use style="stroke:#000000;stroke-width:0.5;" x="126.0" xlink:href="#m93b0483c22" y="756.0"/>
      </g>
     </g>
     <g id="line2d_111">
      <g>
       <use style="stroke:#000000;stroke-width:0.5;" x="126.0" xlink:href="#m741efc42ff" y="477.0"/>
      </g>
     </g>
     <g id="text_42">
      <!-- 490 -->
      <defs>
       <path d="
M46.7812 32.6719
Q43.5 29 39.25 27.1875
Q35.0156 25.3906 29.6875 25.3906
Q18.8438 25.3906 12.5625 31.9375
Q6.29688 38.4844 6.29688 49.8125
Q6.29688 60.8906 13.1094 67.5469
Q19.9219 74.2188 31.2969 74.2188
Q43.6562 74.2188 50.2656 65.0156
Q56.8906 55.8125 56.8906 38.7188
Q56.8906 19.5781 49.0156 9.07812
Q41.1562 -1.42188 26.9062 -1.42188
Q23.0469 -1.42188 18.7969 -0.6875
Q14.5469 0.046875 10.1094 1.51562
L10.1094 13.625
L15.5781 13.625
Q16.2188 8.6875 19.3906 6.04688
Q22.5625 3.42188 27.875 3.42188
Q37.3594 3.42188 41.9844 10.5625
Q46.625 17.7188 46.7812 32.6719
M30.9062 69.3906
Q23.9688 69.3906 20.2812 64.3281
Q16.6094 59.2812 16.6094 49.8125
Q16.6094 40.3281 20.2812 35.25
Q23.9688 30.1719 30.9062 30.1719
Q37.8438 30.1719 41.5312 35.0781
Q45.2188 39.9844 45.2188 49.2188
Q45.2188 58.9375 41.5 64.1562
Q37.7969 69.3906 30.9062 69.3906" id="DejaVuSerif-39"/>
      </defs>
      <g transform="translate(115.130625 769.118125)scale(0.12 -0.12)">
       <use xlink:href="#DejaVuSerif-34"/>
       <use x="63.623046875" xlink:href="#DejaVuSerif-39"/>
       <use x="127.24609375" xlink:href="#DejaVuSerif-30"/>
      </g>
     </g>
    </g>
    <g id="xtick_13">
     <g id="line2d_112">
      <path clip-path="url(#p34c5563ee1)" d="
M168.457 756
L168.457 477" style="fill:none;stroke:#000000;stroke-dasharray:1.000000,3.000000;stroke-dashoffset:0.0;stroke-width:0.5;"/>
     </g>
     <g id="line2d_113">
      <g>
       <use style="stroke:#000000;stroke-width:0.5;" x="168.456521739" xlink:href="#m93b0483c22" y="756.0"/>
      </g>
     </g>
     <g id="line2d_114">
      <g>
       <use style="stroke:#000000;stroke-width:0.5;" x="168.456521739" xlink:href="#m741efc42ff" y="477.0"/>
      </g>
     </g>
     <g id="text_43">
      <!-- 500 -->
      <g transform="translate(157.912459239 769.118125)scale(0.12 -0.12)">
       <use xlink:href="#DejaVuSerif-35"/>
       <use x="63.623046875" xlink:href="#DejaVuSerif-30"/>
       <use x="127.24609375" xlink:href="#DejaVuSerif-30"/>
      </g>
     </g>
    </g>
    <g id="xtick_14">
     <g id="line2d_115">
      <path clip-path="url(#p34c5563ee1)" d="
M210.913 756
L210.913 477" style="fill:none;stroke:#000000;stroke-dasharray:1.000000,3.000000;stroke-dashoffset:0.0;stroke-width:0.5;"/>
     </g>
     <g id="line2d_116">
      <g>
       <use style="stroke:#000000;stroke-width:0.5;" x="210.913043478" xlink:href="#m93b0483c22" y="756.0"/>
      </g>
     </g>
     <g id="line2d_117">
      <g>
       <use style="stroke:#000000;stroke-width:0.5;" x="210.913043478" xlink:href="#m741efc42ff" y="477.0"/>
      </g>
     </g>
     <g id="text_44">
      <!-- 510 -->
      <g transform="translate(200.368980978 769.118125)scale(0.12 -0.12)">
       <use xlink:href="#DejaVuSerif-35"/>
       <use x="63.623046875" xlink:href="#DejaVuSerif-31"/>
       <use x="127.24609375" xlink:href="#DejaVuSerif-30"/>
      </g>
     </g>
    </g>
    <g id="xtick_15">
     <g id="line2d_118">
      <path clip-path="url(#p34c5563ee1)" d="
M253.37 756
L253.37 477" style="fill:none;stroke:#000000;stroke-dasharray:1.000000,3.000000;stroke-dashoffset:0.0;stroke-width:0.5;"/>
     </g>
     <g id="line2d_119">
      <g>
       <use style="stroke:#000000;stroke-width:0.5;" x="253.369565217" xlink:href="#m93b0483c22" y="756.0"/>
      </g>
     </g>
     <g id="line2d_120">
      <g>
       <use style="stroke:#000000;stroke-width:0.5;" x="253.369565217" xlink:href="#m741efc42ff" y="477.0"/>
      </g>
     </g>
     <g id="text_45">
      <!-- 520 -->
      <g transform="translate(242.825502717 769.118125)scale(0.12 -0.12)">
       <use xlink:href="#DejaVuSerif-35"/>
       <use x="63.623046875" xlink:href="#DejaVuSerif-32"/>
       <use x="127.24609375" xlink:href="#DejaVuSerif-30"/>
      </g>
     </g>
    </g>
    <g id="xtick_16">
     <g id="line2d_121">
      <path clip-path="url(#p34c5563ee1)" d="
M295.826 756
L295.826 477" style="fill:none;stroke:#000000;stroke-dasharray:1.000000,3.000000;stroke-dashoffset:0.0;stroke-width:0.5;"/>
     </g>
     <g id="line2d_122">
      <g>
       <use style="stroke:#000000;stroke-width:0.5;" x="295.826086957" xlink:href="#m93b0483c22" y="756.0"/>
      </g>
     </g>
     <g id="line2d_123">
      <g>
       <use style="stroke:#000000;stroke-width:0.5;" x="295.826086957" xlink:href="#m741efc42ff" y="477.0"/>
      </g>
     </g>
     <g id="text_46">
      <!-- 530 -->
      <defs>
       <path d="
M9.71875 69.8281
Q15.4375 71.9688 20.6719 73.0938
Q25.9219 74.2188 30.5156 74.2188
Q41.2188 74.2188 47.2188 69.5938
Q53.2188 64.9844 53.2188 56.7812
Q53.2188 50.2031 49.0625 45.7812
Q44.9219 41.3594 37.3125 39.7969
Q46.2969 38.5312 51.25 33.2812
Q56.2031 28.0312 56.2031 19.6719
Q56.2031 9.46875 49.3438 4.01562
Q42.4844 -1.42188 29.5938 -1.42188
Q23.875 -1.42188 18.4219 -0.1875
Q12.9844 1.03125 7.625 3.51562
L7.625 17.6719
L13.0938 17.6719
Q13.5781 10.6406 17.8281 7.03125
Q22.0781 3.42188 29.7812 3.42188
Q37.25 3.42188 41.5781 7.73438
Q45.9062 12.0625 45.9062 19.5781
Q45.9062 28.1719 41.4531 32.5938
Q37.0156 37.0156 28.4219 37.0156
L23.7812 37.0156
L23.7812 42
L26.2188 42
Q34.7656 42 39.0312 45.5312
Q43.3125 49.0781 43.3125 56.2031
Q43.3125 62.5938 39.7969 65.9844
Q36.2812 69.3906 29.6875 69.3906
Q23.0938 69.3906 19.4531 66.2656
Q15.8281 63.1406 15.1875 56.9844
L9.71875 56.9844
z
" id="DejaVuSerif-33"/>
      </defs>
      <g transform="translate(285.282024457 769.118125)scale(0.12 -0.12)">
       <use xlink:href="#DejaVuSerif-35"/>
       <use x="63.623046875" xlink:href="#DejaVuSerif-33"/>
       <use x="127.24609375" xlink:href="#DejaVuSerif-30"/>
      </g>
     </g>
    </g>
    <g id="xtick_17">
     <g id="line2d_124">
      <path clip-path="url(#p34c5563ee1)" d="
M338.283 756
L338.283 477" style="fill:none;stroke:#000000;stroke-dasharray:1.000000,3.000000;stroke-dashoffset:0.0;stroke-width:0.5;"/>
     </g>
     <g id="line2d_125">
      <g>
       <use style="stroke:#000000;stroke-width:0.5;" x="338.282608696" xlink:href="#m93b0483c22" y="756.0"/>
      </g>
     </g>
     <g id="line2d_126">
      <g>
       <use style="stroke:#000000;stroke-width:0.5;" x="338.282608696" xlink:href="#m741efc42ff" y="477.0"/>
      </g>
     </g>
     <g id="text_47">
      <!-- 540 -->
      <g transform="translate(327.738546196 769.118125)scale(0.12 -0.12)">
       <use xlink:href="#DejaVuSerif-35"/>
       <use x="63.623046875" xlink:href="#DejaVuSerif-34"/>
       <use x="127.24609375" xlink:href="#DejaVuSerif-30"/>
      </g>
     </g>
    </g>
    <g id="xtick_18">
     <g id="line2d_127">
      <path clip-path="url(#p34c5563ee1)" d="
M380.739 756
L380.739 477" style="fill:none;stroke:#000000;stroke-dasharray:1.000000,3.000000;stroke-dashoffset:0.0;stroke-width:0.5;"/>
     </g>
     <g id="line2d_128">
      <g>
       <use style="stroke:#000000;stroke-width:0.5;" x="380.739130435" xlink:href="#m93b0483c22" y="756.0"/>
      </g>
     </g>
     <g id="line2d_129">
      <g>
       <use style="stroke:#000000;stroke-width:0.5;" x="380.739130435" xlink:href="#m741efc42ff" y="477.0"/>
      </g>
     </g>
     <g id="text_48">
      <!-- 550 -->
      <g transform="translate(370.195067935 769.118125)scale(0.12 -0.12)">
       <use xlink:href="#DejaVuSerif-35"/>
       <use x="63.623046875" xlink:href="#DejaVuSerif-35"/>
       <use x="127.24609375" xlink:href="#DejaVuSerif-30"/>
      </g>
     </g>
    </g>
    <g id="xtick_19">
     <g id="line2d_130">
      <path clip-path="url(#p34c5563ee1)" d="
M423.196 756
L423.196 477" style="fill:none;stroke:#000000;stroke-dasharray:1.000000,3.000000;stroke-dashoffset:0.0;stroke-width:0.5;"/>
     </g>
     <g id="line2d_131">
      <g>
       <use style="stroke:#000000;stroke-width:0.5;" x="423.195652174" xlink:href="#m93b0483c22" y="756.0"/>
      </g>
     </g>
     <g id="line2d_132">
      <g>
       <use style="stroke:#000000;stroke-width:0.5;" x="423.195652174" xlink:href="#m741efc42ff" y="477.0"/>
      </g>
     </g>
     <g id="text_49">
      <!-- 560 -->
      <g transform="translate(412.651589674 769.118125)scale(0.12 -0.12)">
       <use xlink:href="#DejaVuSerif-35"/>
       <use x="63.623046875" xlink:href="#DejaVuSerif-36"/>
       <use x="127.24609375" xlink:href="#DejaVuSerif-30"/>
      </g>
     </g>
    </g>
    <g id="xtick_20">
     <g id="line2d_133">
      <path clip-path="url(#p34c5563ee1)" d="
M465.652 756
L465.652 477" style="fill:none;stroke:#000000;stroke-dasharray:1.000000,3.000000;stroke-dashoffset:0.0;stroke-width:0.5;"/>
     </g>
     <g id="line2d_134">
      <g>
       <use style="stroke:#000000;stroke-width:0.5;" x="465.652173913" xlink:href="#m93b0483c22" y="756.0"/>
      </g>
     </g>
     <g id="line2d_135">
      <g>
       <use style="stroke:#000000;stroke-width:0.5;" x="465.652173913" xlink:href="#m741efc42ff" y="477.0"/>
      </g>
     </g>
     <g id="text_50">
      <!-- 570 -->
      <defs>
       <path d="
M56.3906 67.9219
L27.875 0
L20.6094 0
L47.7969 64.8906
L14.1094 64.8906
L14.1094 55.9062
L8.40625 55.9062
L8.40625 72.9062
L56.3906 72.9062
z
" id="DejaVuSerif-37"/>
      </defs>
      <g transform="translate(455.108111413 769.118125)scale(0.12 -0.12)">
       <use xlink:href="#DejaVuSerif-35"/>
       <use x="63.623046875" xlink:href="#DejaVuSerif-37"/>
       <use x="127.24609375" xlink:href="#DejaVuSerif-30"/>
      </g>
     </g>
    </g>
    <g id="text_51">
     <!-- $\lambda$ (nm) -->
     <g transform="translate(276.146086957 785.731875)scale(0.12 -0.12)">
      <use transform="translate(0.0 0.015625)" xlink:href="#Cmmi10-b8"/>
      <use transform="translate(58.30078125 0.015625)" xlink:href="#DejaVuSerif-20"/>
      <use transform="translate(90.087890625 0.015625)" xlink:href="#DejaVuSerif-28"/>
      <use transform="translate(129.1015625 0.015625)" xlink:href="#DejaVuSerif-6e"/>
      <use transform="translate(193.505859375 0.015625)" xlink:href="#DejaVuSerif-6d"/>
      <use transform="translate(288.330078125 0.015625)" xlink:href="#DejaVuSerif-29"/>
     </g>
    </g>
   </g>
   <g id="matplotlib.axis_6">
    <g id="ytick_19">
     <g id="line2d_136">
      <path clip-path="url(#p34c5563ee1)" d="
M126 756
L465.652 756" style="fill:none;stroke:#000000;stroke-dasharray:1.000000,3.000000;stroke-dashoffset:0.0;stroke-width:0.5;"/>
     </g>
     <g id="line2d_137">
      <g>
       <use style="stroke:#000000;stroke-width:0.5;" x="126.0" xlink:href="#m728421d6d4" y="756.0"/>
      </g>
     </g>
     <g id="line2d_138">
      <g>
       <use style="stroke:#000000;stroke-width:0.5;" x="465.652173913" xlink:href="#mcb0005524f" y="756.0"/>
      </g>
     </g>
     <g id="text_52">
      <!-- 0 -->
      <g transform="translate(115.953125 759.31125)scale(0.12 -0.12)">
       <use xlink:href="#DejaVuSerif-30"/>
      </g>
     </g>
    </g>
    <g id="ytick_20">
     <g id="line2d_139">
      <path clip-path="url(#p34c5563ee1)" d="
M126 721.125
L465.652 721.125" style="fill:none;stroke:#000000;stroke-dasharray:1.000000,3.000000;stroke-dashoffset:0.0;stroke-width:0.5;"/>
     </g>
     <g id="line2d_140">
      <g>
       <use style="stroke:#000000;stroke-width:0.5;" x="126.0" xlink:href="#m728421d6d4" y="721.125"/>
      </g>
     </g>
     <g id="line2d_141">
      <g>
       <use style="stroke:#000000;stroke-width:0.5;" x="465.652173913" xlink:href="#mcb0005524f" y="721.125"/>
      </g>
     </g>
     <g id="text_53">
      <!-- 200 -->
      <g transform="translate(100.705625 724.43625)scale(0.12 -0.12)">
       <use xlink:href="#DejaVuSerif-32"/>
       <use x="63.623046875" xlink:href="#DejaVuSerif-30"/>
       <use x="127.24609375" xlink:href="#DejaVuSerif-30"/>
      </g>
     </g>
    </g>
    <g id="ytick_21">
     <g id="line2d_142">
      <path clip-path="url(#p34c5563ee1)" d="
M126 686.25
L465.652 686.25" style="fill:none;stroke:#000000;stroke-dasharray:1.000000,3.000000;stroke-dashoffset:0.0;stroke-width:0.5;"/>
     </g>
     <g id="line2d_143">
      <g>
       <use style="stroke:#000000;stroke-width:0.5;" x="126.0" xlink:href="#m728421d6d4" y="686.25"/>
      </g>
     </g>
     <g id="line2d_144">
      <g>
       <use style="stroke:#000000;stroke-width:0.5;" x="465.652173913" xlink:href="#mcb0005524f" y="686.25"/>
      </g>
     </g>
     <g id="text_54">
      <!-- 400 -->
      <g transform="translate(100.26125 689.56125)scale(0.12 -0.12)">
       <use xlink:href="#DejaVuSerif-34"/>
       <use x="63.623046875" xlink:href="#DejaVuSerif-30"/>
       <use x="127.24609375" xlink:href="#DejaVuSerif-30"/>
      </g>
     </g>
    </g>
    <g id="ytick_22">
     <g id="line2d_145">
      <path clip-path="url(#p34c5563ee1)" d="
M126 651.375
L465.652 651.375" style="fill:none;stroke:#000000;stroke-dasharray:1.000000,3.000000;stroke-dashoffset:0.0;stroke-width:0.5;"/>
     </g>
     <g id="line2d_146">
      <g>
       <use style="stroke:#000000;stroke-width:0.5;" x="126.0" xlink:href="#m728421d6d4" y="651.375"/>
      </g>
     </g>
     <g id="line2d_147">
      <g>
       <use style="stroke:#000000;stroke-width:0.5;" x="465.652173913" xlink:href="#mcb0005524f" y="651.375"/>
      </g>
     </g>
     <g id="text_55">
      <!-- 600 -->
      <g transform="translate(100.694375 654.68625)scale(0.12 -0.12)">
       <use xlink:href="#DejaVuSerif-36"/>
       <use x="63.623046875" xlink:href="#DejaVuSerif-30"/>
       <use x="127.24609375" xlink:href="#DejaVuSerif-30"/>
      </g>
     </g>
    </g>
    <g id="ytick_23">
     <g id="line2d_148">
      <path clip-path="url(#p34c5563ee1)" d="
M126 616.5
L465.652 616.5" style="fill:none;stroke:#000000;stroke-dasharray:1.000000,3.000000;stroke-dashoffset:0.0;stroke-width:0.5;"/>
     </g>
     <g id="line2d_149">
      <g>
       <use style="stroke:#000000;stroke-width:0.5;" x="126.0" xlink:href="#m728421d6d4" y="616.5"/>
      </g>
     </g>
     <g id="line2d_150">
      <g>
       <use style="stroke:#000000;stroke-width:0.5;" x="465.652173913" xlink:href="#mcb0005524f" y="616.5"/>
      </g>
     </g>
     <g id="text_56">
      <!-- 800 -->
      <g transform="translate(100.694375 619.81125)scale(0.12 -0.12)">
       <use xlink:href="#DejaVuSerif-38"/>
       <use x="63.623046875" xlink:href="#DejaVuSerif-30"/>
       <use x="127.24609375" xlink:href="#DejaVuSerif-30"/>
      </g>
     </g>
    </g>
    <g id="ytick_24">
     <g id="line2d_151">
      <path clip-path="url(#p34c5563ee1)" d="
M126 581.625
L465.652 581.625" style="fill:none;stroke:#000000;stroke-dasharray:1.000000,3.000000;stroke-dashoffset:0.0;stroke-width:0.5;"/>
     </g>
     <g id="line2d_152">
      <g>
       <use style="stroke:#000000;stroke-width:0.5;" x="126.0" xlink:href="#m728421d6d4" y="581.625"/>
      </g>
     </g>
     <g id="line2d_153">
      <g>
       <use style="stroke:#000000;stroke-width:0.5;" x="465.652173913" xlink:href="#mcb0005524f" y="581.625"/>
      </g>
     </g>
     <g id="text_57">
      <!-- 1000 -->
      <g transform="translate(93.72125 584.93625)scale(0.12 -0.12)">
       <use xlink:href="#DejaVuSerif-31"/>
       <use x="63.623046875" xlink:href="#DejaVuSerif-30"/>
       <use x="127.24609375" xlink:href="#DejaVuSerif-30"/>
       <use x="190.869140625" xlink:href="#DejaVuSerif-30"/>
      </g>
     </g>
    </g>
    <g id="ytick_25">
     <g id="line2d_154">
      <path clip-path="url(#p34c5563ee1)" d="
M126 546.75
L465.652 546.75" style="fill:none;stroke:#000000;stroke-dasharray:1.000000,3.000000;stroke-dashoffset:0.0;stroke-width:0.5;"/>
     </g>
     <g id="line2d_155">
      <g>
       <use style="stroke:#000000;stroke-width:0.5;" x="126.0" xlink:href="#m728421d6d4" y="546.75"/>
      </g>
     </g>
     <g id="line2d_156">
      <g>
       <use style="stroke:#000000;stroke-width:0.5;" x="465.652173913" xlink:href="#mcb0005524f" y="546.75"/>
      </g>
     </g>
     <g id="text_58">
      <!-- 1200 -->
      <g transform="translate(93.72125 550.06125)scale(0.12 -0.12)">
       <use xlink:href="#DejaVuSerif-31"/>
       <use x="63.623046875" xlink:href="#DejaVuSerif-32"/>
       <use x="127.24609375" xlink:href="#DejaVuSerif-30"/>
       <use x="190.869140625" xlink:href="#DejaVuSerif-30"/>
      </g>
     </g>
    </g>
    <g id="ytick_26">
     <g id="line2d_157">
      <path clip-path="url(#p34c5563ee1)" d="
M126 511.875
L465.652 511.875" style="fill:none;stroke:#000000;stroke-dasharray:1.000000,3.000000;stroke-dashoffset:0.0;stroke-width:0.5;"/>
     </g>
     <g id="line2d_158">
      <g>
       <use style="stroke:#000000;stroke-width:0.5;" x="126.0" xlink:href="#m728421d6d4" y="511.875"/>
      </g>
     </g>
     <g id="line2d_159">
      <g>
       <use style="stroke:#000000;stroke-width:0.5;" x="465.652173913" xlink:href="#mcb0005524f" y="511.875"/>
      </g>
     </g>
     <g id="text_59">
      <!-- 1400 -->
      <g transform="translate(93.72125 515.18625)scale(0.12 -0.12)">
       <use xlink:href="#DejaVuSerif-31"/>
       <use x="63.623046875" xlink:href="#DejaVuSerif-34"/>
       <use x="127.24609375" xlink:href="#DejaVuSerif-30"/>
       <use x="190.869140625" xlink:href="#DejaVuSerif-30"/>
      </g>
     </g>
    </g>
    <g id="ytick_27">
     <g id="line2d_160">
      <path clip-path="url(#p34c5563ee1)" d="
M126 477
L465.652 477" style="fill:none;stroke:#000000;stroke-dasharray:1.000000,3.000000;stroke-dashoffset:0.0;stroke-width:0.5;"/>
     </g>
     <g id="line2d_161">
      <g>
       <use style="stroke:#000000;stroke-width:0.5;" x="126.0" xlink:href="#m728421d6d4" y="477.0"/>
      </g>
     </g>
     <g id="line2d_162">
      <g>
       <use style="stroke:#000000;stroke-width:0.5;" x="465.652173913" xlink:href="#mcb0005524f" y="477.0"/>
      </g>
     </g>
     <g id="text_60">
      <!-- 1600 -->
      <g transform="translate(93.72125 480.31125)scale(0.12 -0.12)">
       <use xlink:href="#DejaVuSerif-31"/>
       <use x="63.623046875" xlink:href="#DejaVuSerif-36"/>
       <use x="127.24609375" xlink:href="#DejaVuSerif-30"/>
       <use x="190.869140625" xlink:href="#DejaVuSerif-30"/>
      </g>
     </g>
    </g>
    <g id="text_61">
     <!-- $\alpha$ (a.u.) -->
     <g transform="translate(86.225625 638.22)rotate(-90.0)scale(0.12 -0.12)">
      <use transform="translate(0.0 0.015625)" xlink:href="#Cmmi10-ae"/>
      <use transform="translate(63.916015625 0.015625)" xlink:href="#DejaVuSerif-20"/>
      <use transform="translate(95.703125 0.015625)" xlink:href="#DejaVuSerif-28"/>
      <use transform="translate(134.716796875 0.015625)" xlink:href="#DejaVuSerif-61"/>
      <use transform="translate(194.3359375 0.015625)" xlink:href="#DejaVuSerif-2e"/>
      <use transform="translate(226.123046875 0.015625)" xlink:href="#DejaVuSerif-75"/>
      <use transform="translate(290.52734375 0.015625)" xlink:href="#DejaVuSerif-2e"/>
      <use transform="translate(322.314453125 0.015625)" xlink:href="#DejaVuSerif-29"/>
     </g>
    </g>
   </g>
   <g id="patch_15">
    <path d="
M126 477
L465.652 477" style="fill:none;stroke:#000000;"/>
   </g>
   <g id="patch_16">
    <path d="
M465.652 756
L465.652 477" style="fill:none;stroke:#000000;"/>
   </g>
   <g id="patch_17">
    <path d="
M126 756
L465.652 756" style="fill:none;stroke:#000000;"/>
   </g>
   <g id="patch_18">
    <path d="
M126 756
L126 477" style="fill:none;stroke:#000000;"/>
   </g>
   <g id="text_62">
    <!-- $^1S_0$ -->
    <g transform="translate(282.938086957 472.0)scale(0.144 -0.144)">
     <use transform="translate(0.0 43.3734375)scale(0.7)" xlink:href="#Cmr10-31"/>
     <use transform="translate(67.00625 0.8578125)" xlink:href="#Cmmi10-53"/>
     <use transform="translate(128.285546875 -24.6515625)scale(0.7)" xlink:href="#Cmr10-30"/>
    </g>
   </g>
   <g id="legend_3">
    <g id="patch_19">
     <path d="
M390.34 554.609
L458.452 554.609
L458.452 484.2
L390.34 484.2
L390.34 554.609
z
" style="fill:#ffffff;stroke:#000000;"/>
    </g>
    <g id="line2d_163">
     <path d="
M400.42 495.862
L420.58 495.862" style="fill:none;stroke:#0000ff;stroke-linecap:square;"/>
    </g>
    <g id="line2d_164"/>
    <g id="text_63">
     <!-- $\alpha_s$ -->
     <g transform="translate(436.420173913 500.90175)scale(0.144 -0.144)">
      <use transform="translate(0.0 0.8125)" xlink:href="#Cmmi10-ae"/>
      <use transform="translate(63.916015625 -24.696875)scale(0.7)" xlink:href="#Cmmi10-73"/>
     </g>
    </g>
    <g id="line2d_165">
     <path d="
M400.42 517.892
L420.58 517.892" style="fill:none;stroke:#008000;stroke-linecap:square;"/>
    </g>
    <g id="line2d_166"/>
    <g id="text_64">
     <!-- $\alpha_v$ -->
     <g transform="translate(436.420173913 522.9315)scale(0.144 -0.144)">
      <use transform="translate(0.0 0.8125)" xlink:href="#Cmmi10-ae"/>
      <use transform="translate(63.916015625 -24.696875)scale(0.7)" xlink:href="#Cmmi10-76"/>
     </g>
    </g>
    <g id="line2d_167">
     <path d="
M400.42 539.921
L420.58 539.921" style="fill:none;stroke:#ff0000;stroke-linecap:square;"/>
    </g>
    <g id="line2d_168"/>
    <g id="text_65">
     <!-- $\alpha_t$ -->
     <g transform="translate(436.420173913 544.96125)scale(0.144 -0.144)">
      <use transform="translate(0.0 0.8125)" xlink:href="#Cmmi10-ae"/>
      <use transform="translate(63.916015625 -24.696875)scale(0.7)" xlink:href="#Cmmi10-74"/>
     </g>
    </g>
   </g>
  </g>
 </g>
 <defs>
  <clipPath id="p34c5563ee1">
   <rect height="279.0" width="339.652173913" x="126.0" y="477.0"/>
  </clipPath>
  <clipPath id="p0c87766784">
   <rect height="279.0" width="339.652173913" x="126.0" y="86.4"/>
  </clipPath>
  <clipPath id="pe1dd2dcbed">
   <rect height="279.0" width="339.652173913" x="567.547826087" y="86.4"/>
  </clipPath>
 </defs>
</svg>
