<?xml version="1.0" encoding="utf-8" standalone="no"?>
<!DOCTYPE svg PUBLIC "-//W3C//DTD SVG 1.1//EN"
  "http://www.w3.org/Graphics/SVG/1.1/DTD/svg11.dtd">
<!-- Created with matplotlib (http://matplotlib.org/) -->
<svg height="432pt" version="1.1" viewBox="0 0 576 432" width="576pt" xmlns="http://www.w3.org/2000/svg" xmlns:xlink="http://www.w3.org/1999/xlink">
 <defs>
  <style type="text/css">
*{stroke-linecap:butt;stroke-linejoin:round;}
  </style>
 </defs>
 <g id="figure_1">
  <g id="patch_1">
   <path d="
M0 432
L576 432
L576 0
L0 0
z
" style="fill:#ffffff;"/>
  </g>
  <g id="axes_1">
   <g id="patch_2">
    <path d="
M72 378
L518.4 378
L518.4 43.2
L72 43.2
z
" style="fill:#ffffff;"/>
   </g>
   <g id="line2d_1">
    <path clip-path="url(#p332b41defa)" d="
M99.9 189.664
L105.48 194.436
L111.618 199.381
L117.756 204.035
L123.894 208.421
L130.59 212.929
L137.286 217.171
L144.54 221.494
L151.794 225.557
L159.606 229.67
L167.418 233.533
L175.788 237.42
L184.158 241.069
L193.086 244.725
L202.572 248.364
L212.616 251.969
L222.66 255.342
L233.262 258.674
L244.422 261.954
L256.14 265.17
L268.416 268.313
L281.808 271.505
L295.758 274.594
L310.266 277.578
L325.89 280.558
L342.072 283.416
L359.37 286.244
L377.784 289.023
L397.314 291.74
L417.96 294.385
L439.722 296.949
L463.158 299.483
L488.268 301.969
L489.942 302.127
L489.942 302.127" style="fill:none;stroke:#0000ff;stroke-linecap:square;"/>
   </g>
   <g id="line2d_2">
    <path clip-path="url(#p332b41defa)" d="
M99.9 117.224
L102.132 128.283
L104.364 138.362
L106.596 147.591
L109.386 158.094
L112.176 167.608
L114.966 176.271
L117.756 184.197
L120.546 191.48
L123.336 198.199
L126.126 204.42
L129.474 211.304
L132.822 217.633
L136.17 223.473
L139.518 228.881
L142.866 233.906
L146.772 239.338
L150.678 244.36
L154.584 249.019
L158.49 253.354
L162.954 257.957
L167.418 262.224
L171.882 266.195
L176.904 270.345
L181.926 274.198
L186.948 277.785
L192.528 281.494
L198.108 284.943
L204.246 288.47
L210.384 291.748
L217.08 295.072
L224.334 298.41
L231.588 301.507
L239.4 304.603
L247.77 307.677
L256.698 310.713
L266.184 313.697
L276.228 316.618
L286.83 319.47
L297.99 322.248
L310.266 325.074
L323.658 327.917
L337.608 330.652
L352.674 333.382
L369.414 336.185
L387.27 338.948
L406.8 341.747
L428.562 344.64
L453.114 347.673
L481.014 350.889
L489.942 351.877
L489.942 351.877" style="fill:none;stroke:#008000;stroke-linecap:square;"/>
   </g>
   <g id="line2d_3">
    <path clip-path="url(#p332b41defa)" d="
M99.9 60.7363
L102.132 73.8893
L104.364 85.8684
L106.596 96.8283
L109.386 109.289
L112.176 120.562
L114.966 130.814
L117.756 140.183
L120.546 148.781
L123.336 156.702
L126.126 164.026
L128.916 170.821
L132.264 178.354
L135.612 185.291
L138.96 191.701
L142.308 197.644
L145.656 203.171
L149.562 209.151
L153.468 214.683
L157.374 219.817
L161.28 224.596
L165.186 229.057
L169.65 233.805
L174.114 238.22
L178.578 242.336
L183.6 246.647
L188.622 250.655
L193.644 254.392
L199.224 258.259
L204.804 261.858
L210.942 265.539
L217.08 268.961
L223.776 272.43
L230.472 275.652
L237.726 278.894
L245.538 282.129
L253.35 285.127
L261.72 288.106
L270.648 291.046
L280.134 293.932
L290.178 296.752
L300.78 299.495
L311.94 302.156
L324.216 304.845
L337.05 307.424
L351 309.99
L365.508 312.432
L381.132 314.834
L397.872 317.182
L415.728 319.462
L435.258 321.727
L455.904 323.898
L478.224 326.022
L489.942 327.056
L489.942 327.056" style="fill:none;stroke:#ff0000;stroke-linecap:square;"/>
   </g>
   <g id="line2d_4">
    <path clip-path="url(#p332b41defa)" d="
M99.9 89.967
L102.132 100.9
L104.922 113.366
L107.712 124.683
L110.502 135.01
L113.292 144.478
L116.082 153.195
L118.872 161.25
L121.662 168.72
L125.01 177.001
L128.358 184.625
L131.706 191.67
L135.054 198.202
L138.402 204.277
L141.75 209.943
L145.656 216.093
L149.562 221.798
L153.468 227.108
L157.374 232.064
L161.838 237.339
L166.302 242.243
L170.766 246.816
L175.23 251.091
L180.252 255.58
L185.274 259.766
L190.296 263.68
L195.876 267.741
L201.456 271.53
L207.594 275.418
L213.732 279.042
L220.428 282.727
L227.124 286.162
L234.378 289.63
L242.19 293.104
L250.002 296.336
L258.372 299.561
L267.3 302.759
L276.786 305.916
L286.83 309.02
L297.432 312.06
L308.592 315.031
L320.868 318.061
L333.702 320.996
L347.652 323.952
L362.718 326.908
L378.9 329.848
L396.198 332.762
L415.17 335.729
L435.816 338.729
L458.694 341.827
L484.362 345.074
L489.942 345.754
L489.942 345.754" style="fill:none;stroke:#00bfbf;stroke-linecap:square;"/>
   </g>
   <g id="line2d_5">
    <defs>
     <path d="
M0 3
C0.795609 3 1.55874 2.6839 2.12132 2.12132
C2.6839 1.55874 3 0.795609 3 0
C3 -0.795609 2.6839 -1.55874 2.12132 -2.12132
C1.55874 -2.6839 0.795609 -3 0 -3
C-0.795609 -3 -1.55874 -2.6839 -2.12132 -2.12132
C-2.6839 -1.55874 -3 -0.795609 -3 0
C-3 0.795609 -2.6839 1.55874 -2.12132 2.12132
C-1.55874 2.6839 -0.795609 3 0 3
z
" id="md175be6dbf" style="stroke:#000000;stroke-width:0.5;"/>
    </defs>
    <g clip-path="url(#p332b41defa)">
     <use style="fill:#ff0000;stroke:#000000;stroke-width:0.5;" x="130.032" xlink:href="#md175be6dbf" y="212.563650687"/>
    </g>
   </g>
   <g id="line2d_6">
    <g clip-path="url(#p332b41defa)">
     <use style="fill:#ff0000;stroke:#000000;stroke-width:0.5;" x="170.766" xlink:href="#md175be6dbf" y="235.117437077"/>
    </g>
   </g>
   <g id="line2d_7">
    <g clip-path="url(#p332b41defa)">
     <use style="fill:#ff0000;stroke:#000000;stroke-width:0.5;" x="152.352" xlink:href="#md175be6dbf" y="225.859988304"/>
    </g>
   </g>
   <g id="matplotlib.axis_1">
    <g id="xtick_1">
     <g id="line2d_8">
      <path clip-path="url(#p332b41defa)" d="
M72 378
L72 43.2" style="fill:none;stroke:#000000;stroke-dasharray:1.000000,3.000000;stroke-dashoffset:0.0;stroke-width:0.5;"/>
     </g>
     <g id="line2d_9">
      <defs>
       <path d="
M0 0
L0 -4" id="m93b0483c22" style="stroke:#000000;stroke-width:0.5;"/>
      </defs>
      <g>
       <use style="stroke:#000000;stroke-width:0.5;" x="72.0" xlink:href="#m93b0483c22" y="378.0"/>
      </g>
     </g>
     <g id="line2d_10">
      <defs>
       <path d="
M0 0
L0 4" id="m741efc42ff" style="stroke:#000000;stroke-width:0.5;"/>
      </defs>
      <g>
       <use style="stroke:#000000;stroke-width:0.5;" x="72.0" xlink:href="#m741efc42ff" y="43.2"/>
      </g>
     </g>
     <g id="text_1">
      <!-- 490 -->
      <defs>
       <path d="
M31.7812 3.42188
Q39.2656 3.42188 42.9688 11.625
Q46.6875 19.8281 46.6875 36.375
Q46.6875 52.9844 42.9688 61.1875
Q39.2656 69.3906 31.7812 69.3906
Q24.3125 69.3906 20.5938 61.1875
Q16.8906 52.9844 16.8906 36.375
Q16.8906 19.8281 20.5938 11.625
Q24.3125 3.42188 31.7812 3.42188
M31.7812 -1.42188
Q19.9219 -1.42188 13.25 8.53125
Q6.59375 18.5 6.59375 36.375
Q6.59375 54.2969 13.25 64.25
Q19.9219 74.2188 31.7812 74.2188
Q43.7031 74.2188 50.3438 64.25
Q56.9844 54.2969 56.9844 36.375
Q56.9844 18.5 50.3438 8.53125
Q43.7031 -1.42188 31.7812 -1.42188" id="DejaVuSerif-30"/>
       <path d="
M46.7812 32.6719
Q43.5 29 39.25 27.1875
Q35.0156 25.3906 29.6875 25.3906
Q18.8438 25.3906 12.5625 31.9375
Q6.29688 38.4844 6.29688 49.8125
Q6.29688 60.8906 13.1094 67.5469
Q19.9219 74.2188 31.2969 74.2188
Q43.6562 74.2188 50.2656 65.0156
Q56.8906 55.8125 56.8906 38.7188
Q56.8906 19.5781 49.0156 9.07812
Q41.1562 -1.42188 26.9062 -1.42188
Q23.0469 -1.42188 18.7969 -0.6875
Q14.5469 0.046875 10.1094 1.51562
L10.1094 13.625
L15.5781 13.625
Q16.2188 8.6875 19.3906 6.04688
Q22.5625 3.42188 27.875 3.42188
Q37.3594 3.42188 41.9844 10.5625
Q46.625 17.7188 46.7812 32.6719
M30.9062 69.3906
Q23.9688 69.3906 20.2812 64.3281
Q16.6094 59.2812 16.6094 49.8125
Q16.6094 40.3281 20.2812 35.25
Q23.9688 30.1719 30.9062 30.1719
Q37.8438 30.1719 41.5312 35.0781
Q45.2188 39.9844 45.2188 49.2188
Q45.2188 58.9375 41.5 64.1562
Q37.7969 69.3906 30.9062 69.3906" id="DejaVuSerif-39"/>
       <path d="
M34.9062 24.7031
L34.9062 63.4844
L10.0156 24.7031
z

M56.3906 0
L23.1875 0
L23.1875 5.17188
L34.9062 5.17188
L34.9062 19.4844
L3.07812 19.4844
L3.07812 24.8125
L35.0156 74.2188
L44.6719 74.2188
L44.6719 24.7031
L58.5938 24.7031
L58.5938 19.4844
L44.6719 19.4844
L44.6719 5.17188
L56.3906 5.17188
z
" id="DejaVuSerif-34"/>
      </defs>
      <g transform="translate(61.130625 391.118125)scale(0.12 -0.12)">
       <use xlink:href="#DejaVuSerif-34"/>
       <use x="63.623046875" xlink:href="#DejaVuSerif-39"/>
       <use x="127.24609375" xlink:href="#DejaVuSerif-30"/>
      </g>
     </g>
    </g>
    <g id="xtick_2">
     <g id="line2d_11">
      <path clip-path="url(#p332b41defa)" d="
M127.8 378
L127.8 43.2" style="fill:none;stroke:#000000;stroke-dasharray:1.000000,3.000000;stroke-dashoffset:0.0;stroke-width:0.5;"/>
     </g>
     <g id="line2d_12">
      <g>
       <use style="stroke:#000000;stroke-width:0.5;" x="127.8" xlink:href="#m93b0483c22" y="378.0"/>
      </g>
     </g>
     <g id="line2d_13">
      <g>
       <use style="stroke:#000000;stroke-width:0.5;" x="127.8" xlink:href="#m741efc42ff" y="43.2"/>
      </g>
     </g>
     <g id="text_2">
      <!-- 500 -->
      <defs>
       <path d="
M50.2969 72.9062
L50.2969 64.8906
L16.8906 64.8906
L16.8906 44
Q19.4375 45.75 22.8281 46.625
Q26.2188 47.5156 30.4219 47.5156
Q42.2344 47.5156 49.0625 40.9688
Q55.9062 34.4219 55.9062 23.0938
Q55.9062 11.5312 49 5.04688
Q42.0938 -1.42188 29.5938 -1.42188
Q24.5625 -1.42188 19.2812 -0.1875
Q14.0156 1.03125 8.5 3.51562
L8.5 17.6719
L14.0156 17.6719
Q14.4531 10.75 18.4219 7.07812
Q22.4062 3.42188 29.5938 3.42188
Q37.3125 3.42188 41.4531 8.5
Q45.6094 13.5781 45.6094 23.0938
Q45.6094 32.5625 41.4844 37.6094
Q37.3594 42.6719 29.5938 42.6719
Q25.2031 42.6719 21.8438 41.1094
Q18.5 39.5469 15.9219 36.2812
L11.7188 36.2812
L11.7188 72.9062
z
" id="DejaVuSerif-35"/>
      </defs>
      <g transform="translate(117.2559375 391.118125)scale(0.12 -0.12)">
       <use xlink:href="#DejaVuSerif-35"/>
       <use x="63.623046875" xlink:href="#DejaVuSerif-30"/>
       <use x="127.24609375" xlink:href="#DejaVuSerif-30"/>
      </g>
     </g>
    </g>
    <g id="xtick_3">
     <g id="line2d_14">
      <path clip-path="url(#p332b41defa)" d="
M183.6 378
L183.6 43.2" style="fill:none;stroke:#000000;stroke-dasharray:1.000000,3.000000;stroke-dashoffset:0.0;stroke-width:0.5;"/>
     </g>
     <g id="line2d_15">
      <g>
       <use style="stroke:#000000;stroke-width:0.5;" x="183.6" xlink:href="#m93b0483c22" y="378.0"/>
      </g>
     </g>
     <g id="line2d_16">
      <g>
       <use style="stroke:#000000;stroke-width:0.5;" x="183.6" xlink:href="#m741efc42ff" y="43.2"/>
      </g>
     </g>
     <g id="text_3">
      <!-- 510 -->
      <defs>
       <path d="
M14.2031 0
L14.2031 5.17188
L26.9062 5.17188
L26.9062 65.8281
L12.2031 56.2969
L12.2031 62.7031
L29.9844 74.2188
L36.7188 74.2188
L36.7188 5.17188
L49.4219 5.17188
L49.4219 0
z
" id="DejaVuSerif-31"/>
      </defs>
      <g transform="translate(173.0559375 391.118125)scale(0.12 -0.12)">
       <use xlink:href="#DejaVuSerif-35"/>
       <use x="63.623046875" xlink:href="#DejaVuSerif-31"/>
       <use x="127.24609375" xlink:href="#DejaVuSerif-30"/>
      </g>
     </g>
    </g>
    <g id="xtick_4">
     <g id="line2d_17">
      <path clip-path="url(#p332b41defa)" d="
M239.4 378
L239.4 43.2" style="fill:none;stroke:#000000;stroke-dasharray:1.000000,3.000000;stroke-dashoffset:0.0;stroke-width:0.5;"/>
     </g>
     <g id="line2d_18">
      <g>
       <use style="stroke:#000000;stroke-width:0.5;" x="239.4" xlink:href="#m93b0483c22" y="378.0"/>
      </g>
     </g>
     <g id="line2d_19">
      <g>
       <use style="stroke:#000000;stroke-width:0.5;" x="239.4" xlink:href="#m741efc42ff" y="43.2"/>
      </g>
     </g>
     <g id="text_4">
      <!-- 520 -->
      <defs>
       <path d="
M12.7969 55.5156
L7.32812 55.5156
L7.32812 68.5
Q12.5469 71.2969 17.8438 72.75
Q23.1406 74.2188 28.2188 74.2188
Q39.5938 74.2188 46.1875 68.7031
Q52.7812 63.1875 52.7812 53.7188
Q52.7812 43.0156 37.8438 28.125
Q36.6719 27 36.0781 26.4219
L17.6719 8.01562
L48.0938 8.01562
L48.0938 17
L53.8125 17
L53.8125 0
L6.78125 0
L6.78125 5.32812
L28.9062 27.3906
Q36.2344 34.7188 39.3594 40.8438
Q42.4844 46.9688 42.4844 53.7188
Q42.4844 61.0781 38.6406 65.2344
Q34.8125 69.3906 28.0781 69.3906
Q21.0938 69.3906 17.2812 65.9219
Q13.4844 62.4531 12.7969 55.5156" id="DejaVuSerif-32"/>
      </defs>
      <g transform="translate(228.8559375 391.118125)scale(0.12 -0.12)">
       <use xlink:href="#DejaVuSerif-35"/>
       <use x="63.623046875" xlink:href="#DejaVuSerif-32"/>
       <use x="127.24609375" xlink:href="#DejaVuSerif-30"/>
      </g>
     </g>
    </g>
    <g id="xtick_5">
     <g id="line2d_20">
      <path clip-path="url(#p332b41defa)" d="
M295.2 378
L295.2 43.2" style="fill:none;stroke:#000000;stroke-dasharray:1.000000,3.000000;stroke-dashoffset:0.0;stroke-width:0.5;"/>
     </g>
     <g id="line2d_21">
      <g>
       <use style="stroke:#000000;stroke-width:0.5;" x="295.2" xlink:href="#m93b0483c22" y="378.0"/>
      </g>
     </g>
     <g id="line2d_22">
      <g>
       <use style="stroke:#000000;stroke-width:0.5;" x="295.2" xlink:href="#m741efc42ff" y="43.2"/>
      </g>
     </g>
     <g id="text_5">
      <!-- 530 -->
      <defs>
       <path d="
M9.71875 69.8281
Q15.4375 71.9688 20.6719 73.0938
Q25.9219 74.2188 30.5156 74.2188
Q41.2188 74.2188 47.2188 69.5938
Q53.2188 64.9844 53.2188 56.7812
Q53.2188 50.2031 49.0625 45.7812
Q44.9219 41.3594 37.3125 39.7969
Q46.2969 38.5312 51.25 33.2812
Q56.2031 28.0312 56.2031 19.6719
Q56.2031 9.46875 49.3438 4.01562
Q42.4844 -1.42188 29.5938 -1.42188
Q23.875 -1.42188 18.4219 -0.1875
Q12.9844 1.03125 7.625 3.51562
L7.625 17.6719
L13.0938 17.6719
Q13.5781 10.6406 17.8281 7.03125
Q22.0781 3.42188 29.7812 3.42188
Q37.25 3.42188 41.5781 7.73438
Q45.9062 12.0625 45.9062 19.5781
Q45.9062 28.1719 41.4531 32.5938
Q37.0156 37.0156 28.4219 37.0156
L23.7812 37.0156
L23.7812 42
L26.2188 42
Q34.7656 42 39.0312 45.5312
Q43.3125 49.0781 43.3125 56.2031
Q43.3125 62.5938 39.7969 65.9844
Q36.2812 69.3906 29.6875 69.3906
Q23.0938 69.3906 19.4531 66.2656
Q15.8281 63.1406 15.1875 56.9844
L9.71875 56.9844
z
" id="DejaVuSerif-33"/>
      </defs>
      <g transform="translate(284.6559375 391.118125)scale(0.12 -0.12)">
       <use xlink:href="#DejaVuSerif-35"/>
       <use x="63.623046875" xlink:href="#DejaVuSerif-33"/>
       <use x="127.24609375" xlink:href="#DejaVuSerif-30"/>
      </g>
     </g>
    </g>
    <g id="xtick_6">
     <g id="line2d_23">
      <path clip-path="url(#p332b41defa)" d="
M351 378
L351 43.2" style="fill:none;stroke:#000000;stroke-dasharray:1.000000,3.000000;stroke-dashoffset:0.0;stroke-width:0.5;"/>
     </g>
     <g id="line2d_24">
      <g>
       <use style="stroke:#000000;stroke-width:0.5;" x="351.0" xlink:href="#m93b0483c22" y="378.0"/>
      </g>
     </g>
     <g id="line2d_25">
      <g>
       <use style="stroke:#000000;stroke-width:0.5;" x="351.0" xlink:href="#m741efc42ff" y="43.2"/>
      </g>
     </g>
     <g id="text_6">
      <!-- 540 -->
      <g transform="translate(340.4559375 391.118125)scale(0.12 -0.12)">
       <use xlink:href="#DejaVuSerif-35"/>
       <use x="63.623046875" xlink:href="#DejaVuSerif-34"/>
       <use x="127.24609375" xlink:href="#DejaVuSerif-30"/>
      </g>
     </g>
    </g>
    <g id="xtick_7">
     <g id="line2d_26">
      <path clip-path="url(#p332b41defa)" d="
M406.8 378
L406.8 43.2" style="fill:none;stroke:#000000;stroke-dasharray:1.000000,3.000000;stroke-dashoffset:0.0;stroke-width:0.5;"/>
     </g>
     <g id="line2d_27">
      <g>
       <use style="stroke:#000000;stroke-width:0.5;" x="406.8" xlink:href="#m93b0483c22" y="378.0"/>
      </g>
     </g>
     <g id="line2d_28">
      <g>
       <use style="stroke:#000000;stroke-width:0.5;" x="406.8" xlink:href="#m741efc42ff" y="43.2"/>
      </g>
     </g>
     <g id="text_7">
      <!-- 550 -->
      <g transform="translate(396.2559375 391.118125)scale(0.12 -0.12)">
       <use xlink:href="#DejaVuSerif-35"/>
       <use x="63.623046875" xlink:href="#DejaVuSerif-35"/>
       <use x="127.24609375" xlink:href="#DejaVuSerif-30"/>
      </g>
     </g>
    </g>
    <g id="xtick_8">
     <g id="line2d_29">
      <path clip-path="url(#p332b41defa)" d="
M462.6 378
L462.6 43.2" style="fill:none;stroke:#000000;stroke-dasharray:1.000000,3.000000;stroke-dashoffset:0.0;stroke-width:0.5;"/>
     </g>
     <g id="line2d_30">
      <g>
       <use style="stroke:#000000;stroke-width:0.5;" x="462.6" xlink:href="#m93b0483c22" y="378.0"/>
      </g>
     </g>
     <g id="line2d_31">
      <g>
       <use style="stroke:#000000;stroke-width:0.5;" x="462.6" xlink:href="#m741efc42ff" y="43.2"/>
      </g>
     </g>
     <g id="text_8">
      <!-- 560 -->
      <defs>
       <path d="
M32.7188 3.42188
Q39.5938 3.42188 43.2969 8.46875
Q47.0156 13.5312 47.0156 23
Q47.0156 32.4688 43.2969 37.5156
Q39.5938 42.5781 32.7188 42.5781
Q25.7344 42.5781 22.0625 37.6875
Q18.4062 32.8125 18.4062 23.5781
Q18.4062 13.875 22.1094 8.64062
Q25.8281 3.42188 32.7188 3.42188
M16.7969 40.1406
Q20.125 43.7969 24.3125 45.5938
Q28.5156 47.4062 33.7969 47.4062
Q44.6719 47.4062 51 40.8594
Q57.3281 34.3281 57.3281 23
Q57.3281 11.9219 50.5156 5.25
Q43.7031 -1.42188 32.3281 -1.42188
Q19.9688 -1.42188 13.3281 7.78125
Q6.6875 17 6.6875 34.0781
Q6.6875 53.2188 14.5469 63.7188
Q22.4062 74.2188 36.7188 74.2188
Q40.5781 74.2188 44.8281 73.4844
Q49.0781 72.75 53.5156 71.2969
L53.5156 59.2812
L48 59.2812
Q47.4062 64.2031 44.2344 66.7969
Q41.0625 69.3906 35.6875 69.3906
Q26.2188 69.3906 21.5781 62.2031
Q16.9375 55.0312 16.7969 40.1406" id="DejaVuSerif-36"/>
      </defs>
      <g transform="translate(452.0559375 391.118125)scale(0.12 -0.12)">
       <use xlink:href="#DejaVuSerif-35"/>
       <use x="63.623046875" xlink:href="#DejaVuSerif-36"/>
       <use x="127.24609375" xlink:href="#DejaVuSerif-30"/>
      </g>
     </g>
    </g>
    <g id="xtick_9">
     <g id="line2d_32">
      <path clip-path="url(#p332b41defa)" d="
M518.4 378
L518.4 43.2" style="fill:none;stroke:#000000;stroke-dasharray:1.000000,3.000000;stroke-dashoffset:0.0;stroke-width:0.5;"/>
     </g>
     <g id="line2d_33">
      <g>
       <use style="stroke:#000000;stroke-width:0.5;" x="518.4" xlink:href="#m93b0483c22" y="378.0"/>
      </g>
     </g>
     <g id="line2d_34">
      <g>
       <use style="stroke:#000000;stroke-width:0.5;" x="518.4" xlink:href="#m741efc42ff" y="43.2"/>
      </g>
     </g>
     <g id="text_9">
      <!-- 570 -->
      <defs>
       <path d="
M56.3906 67.9219
L27.875 0
L20.6094 0
L47.7969 64.8906
L14.1094 64.8906
L14.1094 55.9062
L8.40625 55.9062
L8.40625 72.9062
L56.3906 72.9062
z
" id="DejaVuSerif-37"/>
      </defs>
      <g transform="translate(507.8559375 391.118125)scale(0.12 -0.12)">
       <use xlink:href="#DejaVuSerif-35"/>
       <use x="63.623046875" xlink:href="#DejaVuSerif-37"/>
       <use x="127.24609375" xlink:href="#DejaVuSerif-30"/>
      </g>
     </g>
    </g>
    <g id="text_10">
     <!-- $\lambda$ (nm) -->
     <defs>
      <path d="
M7.07812 -15.5781
L7.07812 -10.7969
Q14.5938 -5.60938 17.8906 3.78125
Q21.1875 13.1875 21.1875 30.1719
Q21.1875 47.2188 17.8906 56.6094
Q14.5938 66.0156 7.07812 71.1875
L7.07812 75.9844
Q19 70.6562 25.0469 59.1094
Q31.1094 47.5625 31.1094 30.1719
Q31.1094 12.8438 25.0469 1.29688
Q19 -10.25 7.07812 -15.5781" id="DejaVuSerif-29"/>
      <path d="
M31.8906 -15.5781
Q20.0156 -10.25 13.9531 1.29688
Q7.90625 12.8438 7.90625 30.1719
Q7.90625 47.5625 13.9531 59.1094
Q20.0156 70.6562 31.8906 75.9844
L31.8906 71.1875
Q24.3594 66.0156 21.0938 56.6094
Q17.8281 47.2188 17.8281 30.1719
Q17.8281 13.1875 21.0938 3.78125
Q24.3594 -5.60938 31.8906 -10.7969
z
" id="DejaVuSerif-28"/>
      <path d="
M4.10938 0
L4.10938 5.17188
L12.2031 5.17188
L12.2031 46.6875
L3.60938 46.6875
L3.60938 51.9062
L21.1875 51.9062
L21.1875 42.6719
Q23.6875 47.9531 27.6562 50.6406
Q31.6406 53.3281 36.9219 53.3281
Q45.5156 53.3281 49.5625 48.3906
Q53.6094 43.4531 53.6094 33.0156
L53.6094 5.17188
L61.625 5.17188
L61.625 0
L36.8125 0
L36.8125 5.17188
L44.5781 5.17188
L44.5781 30.1719
Q44.5781 39.7031 42.2344 43.2344
Q39.8906 46.7812 33.9844 46.7812
Q27.7344 46.7812 24.4531 42.2031
Q21.1875 37.6406 21.1875 28.9062
L21.1875 5.17188
L29 5.17188
L29 0
z
" id="DejaVuSerif-6e"/>
      <path d="
M51.8125 41.7969
Q54.3906 47.5156 58.4219 50.4219
Q62.4531 53.3281 67.8281 53.3281
Q75.9844 53.3281 79.9844 48.2656
Q83.9844 43.2188 83.9844 33.0156
L83.9844 5.17188
L92.0938 5.17188
L92.0938 0
L67.1875 0
L67.1875 5.17188
L75 5.17188
L75 31.9844
Q75 39.9375 72.6562 43.3125
Q70.3125 46.6875 64.8906 46.6875
Q58.8906 46.6875 55.7344 42.1406
Q52.5938 37.5938 52.5938 28.9062
L52.5938 5.17188
L60.4062 5.17188
L60.4062 0
L35.7969 0
L35.7969 5.17188
L43.6094 5.17188
L43.6094 32.3281
Q43.6094 40.0938 41.2656 43.3906
Q38.9219 46.6875 33.5 46.6875
Q27.4844 46.6875 24.3281 42.1406
Q21.1875 37.5938 21.1875 28.9062
L21.1875 5.17188
L29 5.17188
L29 0
L4.10938 0
L4.10938 5.17188
L12.2031 5.17188
L12.2031 46.7812
L3.60938 46.7812
L3.60938 51.9062
L21.1875 51.9062
L21.1875 42.6719
Q23.6875 47.8594 27.5312 50.5938
Q31.3906 53.3281 36.2812 53.3281
Q42.3281 53.3281 46.375 50.3125
Q50.4375 47.3125 51.8125 41.7969" id="DejaVuSerif-6d"/>
      <path d="
M5.07812 1.70312
Q5.07812 3.17188 6.39062 4.5
L34.5156 32.0781
L24.6094 59.9062
Q23.4375 63.0938 22.1406 64.9375
Q20.8438 66.7969 18.4062 66.7969
Q17.2812 66.7969 17.2812 68.1094
Q17.3906 68.7031 17.7812 69.0469
Q18.1719 69.3906 18.7969 69.3906
Q29.2969 69.3906 31.5 63.1875
L51.8125 6.5
Q53.125 2.25 54.5 0.78125
Q54.9844 0.046875 54.9844 -0.203125
Q54.9844 -1.125 54.2031 -1.125
L48.7812 -1.125
Q46.2969 -0.390625 44.8281 3.21875
L35.6875 28.8125
L11.5312 0.390625
Q9.71875 -1.3125 8.29688 -1.3125
Q7.03125 -1.3125 6.04688 -0.4375
Q5.07812 0.4375 5.07812 1.70312" id="Cmmi10-b8"/>
      <path id="DejaVuSerif-20"/>
     </defs>
     <g transform="translate(275.52 407.731875)scale(0.12 -0.12)">
      <use transform="translate(0.0 0.015625)" xlink:href="#Cmmi10-b8"/>
      <use transform="translate(58.30078125 0.015625)" xlink:href="#DejaVuSerif-20"/>
      <use transform="translate(90.087890625 0.015625)" xlink:href="#DejaVuSerif-28"/>
      <use transform="translate(129.1015625 0.015625)" xlink:href="#DejaVuSerif-6e"/>
      <use transform="translate(193.505859375 0.015625)" xlink:href="#DejaVuSerif-6d"/>
      <use transform="translate(288.330078125 0.015625)" xlink:href="#DejaVuSerif-29"/>
     </g>
    </g>
   </g>
   <g id="matplotlib.axis_2">
    <g id="ytick_1">
     <g id="line2d_35">
      <path clip-path="url(#p332b41defa)" d="
M72 378
L518.4 378" style="fill:none;stroke:#000000;stroke-dasharray:1.000000,3.000000;stroke-dashoffset:0.0;stroke-width:0.5;"/>
     </g>
     <g id="line2d_36">
      <defs>
       <path d="
M0 0
L4 0" id="m728421d6d4" style="stroke:#000000;stroke-width:0.5;"/>
      </defs>
      <g>
       <use style="stroke:#000000;stroke-width:0.5;" x="72.0" xlink:href="#m728421d6d4" y="378.0"/>
      </g>
     </g>
     <g id="line2d_37">
      <defs>
       <path d="
M0 0
L-4 0" id="mcb0005524f" style="stroke:#000000;stroke-width:0.5;"/>
      </defs>
      <g>
       <use style="stroke:#000000;stroke-width:0.5;" x="518.4" xlink:href="#mcb0005524f" y="378.0"/>
      </g>
     </g>
     <g id="text_11">
      <!-- 0 -->
      <g transform="translate(61.953125 381.31125)scale(0.12 -0.12)">
       <use xlink:href="#DejaVuSerif-30"/>
      </g>
     </g>
    </g>
    <g id="ytick_2">
     <g id="line2d_38">
      <path clip-path="url(#p332b41defa)" d="
M72 311.04
L518.4 311.04" style="fill:none;stroke:#000000;stroke-dasharray:1.000000,3.000000;stroke-dashoffset:0.0;stroke-width:0.5;"/>
     </g>
     <g id="line2d_39">
      <g>
       <use style="stroke:#000000;stroke-width:0.5;" x="72.0" xlink:href="#m728421d6d4" y="311.04"/>
      </g>
     </g>
     <g id="line2d_40">
      <g>
       <use style="stroke:#000000;stroke-width:0.5;" x="518.4" xlink:href="#mcb0005524f" y="311.04"/>
      </g>
     </g>
     <g id="text_12">
      <!-- 500 -->
      <g transform="translate(46.911875 314.35125)scale(0.12 -0.12)">
       <use xlink:href="#DejaVuSerif-35"/>
       <use x="63.623046875" xlink:href="#DejaVuSerif-30"/>
       <use x="127.24609375" xlink:href="#DejaVuSerif-30"/>
      </g>
     </g>
    </g>
    <g id="ytick_3">
     <g id="line2d_41">
      <path clip-path="url(#p332b41defa)" d="
M72 244.08
L518.4 244.08" style="fill:none;stroke:#000000;stroke-dasharray:1.000000,3.000000;stroke-dashoffset:0.0;stroke-width:0.5;"/>
     </g>
     <g id="line2d_42">
      <g>
       <use style="stroke:#000000;stroke-width:0.5;" x="72.0" xlink:href="#m728421d6d4" y="244.08"/>
      </g>
     </g>
     <g id="line2d_43">
      <g>
       <use style="stroke:#000000;stroke-width:0.5;" x="518.4" xlink:href="#mcb0005524f" y="244.08"/>
      </g>
     </g>
     <g id="text_13">
      <!-- 1000 -->
      <g transform="translate(39.72125 247.39125)scale(0.12 -0.12)">
       <use xlink:href="#DejaVuSerif-31"/>
       <use x="63.623046875" xlink:href="#DejaVuSerif-30"/>
       <use x="127.24609375" xlink:href="#DejaVuSerif-30"/>
       <use x="190.869140625" xlink:href="#DejaVuSerif-30"/>
      </g>
     </g>
    </g>
    <g id="ytick_4">
     <g id="line2d_44">
      <path clip-path="url(#p332b41defa)" d="
M72 177.12
L518.4 177.12" style="fill:none;stroke:#000000;stroke-dasharray:1.000000,3.000000;stroke-dashoffset:0.0;stroke-width:0.5;"/>
     </g>
     <g id="line2d_45">
      <g>
       <use style="stroke:#000000;stroke-width:0.5;" x="72.0" xlink:href="#m728421d6d4" y="177.12"/>
      </g>
     </g>
     <g id="line2d_46">
      <g>
       <use style="stroke:#000000;stroke-width:0.5;" x="518.4" xlink:href="#mcb0005524f" y="177.12"/>
      </g>
     </g>
     <g id="text_14">
      <!-- 1500 -->
      <g transform="translate(39.72125 180.43125)scale(0.12 -0.12)">
       <use xlink:href="#DejaVuSerif-31"/>
       <use x="63.623046875" xlink:href="#DejaVuSerif-35"/>
       <use x="127.24609375" xlink:href="#DejaVuSerif-30"/>
       <use x="190.869140625" xlink:href="#DejaVuSerif-30"/>
      </g>
     </g>
    </g>
    <g id="ytick_5">
     <g id="line2d_47">
      <path clip-path="url(#p332b41defa)" d="
M72 110.16
L518.4 110.16" style="fill:none;stroke:#000000;stroke-dasharray:1.000000,3.000000;stroke-dashoffset:0.0;stroke-width:0.5;"/>
     </g>
     <g id="line2d_48">
      <g>
       <use style="stroke:#000000;stroke-width:0.5;" x="72.0" xlink:href="#m728421d6d4" y="110.16"/>
      </g>
     </g>
     <g id="line2d_49">
      <g>
       <use style="stroke:#000000;stroke-width:0.5;" x="518.4" xlink:href="#mcb0005524f" y="110.16"/>
      </g>
     </g>
     <g id="text_15">
      <!-- 2000 -->
      <g transform="translate(39.070625 113.47125)scale(0.12 -0.12)">
       <use xlink:href="#DejaVuSerif-32"/>
       <use x="63.623046875" xlink:href="#DejaVuSerif-30"/>
       <use x="127.24609375" xlink:href="#DejaVuSerif-30"/>
       <use x="190.869140625" xlink:href="#DejaVuSerif-30"/>
      </g>
     </g>
    </g>
    <g id="ytick_6">
     <g id="line2d_50">
      <path clip-path="url(#p332b41defa)" d="
M72 43.2
L518.4 43.2" style="fill:none;stroke:#000000;stroke-dasharray:1.000000,3.000000;stroke-dashoffset:0.0;stroke-width:0.5;"/>
     </g>
     <g id="line2d_51">
      <g>
       <use style="stroke:#000000;stroke-width:0.5;" x="72.0" xlink:href="#m728421d6d4" y="43.2"/>
      </g>
     </g>
     <g id="line2d_52">
      <g>
       <use style="stroke:#000000;stroke-width:0.5;" x="518.4" xlink:href="#mcb0005524f" y="43.2"/>
      </g>
     </g>
     <g id="text_16">
      <!-- 2500 -->
      <g transform="translate(39.070625 46.51125)scale(0.12 -0.12)">
       <use xlink:href="#DejaVuSerif-32"/>
       <use x="63.623046875" xlink:href="#DejaVuSerif-35"/>
       <use x="127.24609375" xlink:href="#DejaVuSerif-30"/>
       <use x="190.869140625" xlink:href="#DejaVuSerif-30"/>
      </g>
     </g>
    </g>
    <g id="text_17">
     <!-- $\alpha$ (a.u.) -->
     <defs>
      <path d="
M20.125 -1.125
Q15.375 -1.125 11.6875 1.125
Q8.01562 3.375 6 7.17188
Q4 10.9844 4 15.8281
Q4 22.6094 7.78125 29.25
Q11.5781 35.8906 17.8438 40.0312
Q24.125 44.1875 31 44.1875
Q36.0781 44.1875 39.9375 41.5312
Q43.7969 38.875 45.7969 34.4531
Q47.7969 30.0312 47.7969 25
L47.9062 18.3125
Q51.3125 23.0469 53.6875 28.1406
Q56.0625 33.25 57.3281 38.7188
Q57.5156 39.3125 58.1094 39.3125
L59.2812 39.3125
Q60.2031 39.3125 60.2031 38.375
Q60.2031 38.2812 60.1094 38.0938
Q58.9375 33.5 57.1719 29.2656
Q55.4219 25.0469 53.0469 21.0938
Q50.6875 17.1406 47.9062 13.9219
Q47.9062 1.51562 50.7812 1.51562
Q52.6406 1.51562 53.8281 2.60938
Q55.0312 3.71875 55.9375 5.32812
Q56.8438 6.9375 57.0781 6.98438
L58.2969 6.98438
Q59.0781 6.98438 59.0781 6
Q59.0781 3.51562 56.2188 1.1875
Q53.375 -1.125 50.5938 -1.125
Q46.9688 -1.125 44.5781 1.21875
Q42.1875 3.5625 41.3125 7.32812
Q36.625 3.32812 31.1562 1.09375
Q25.6875 -1.125 20.125 -1.125
M20.3125 1.51562
Q31 1.51562 40.8281 10.2969
Q40.7656 10.8906 40.6719 11.7344
Q40.5781 12.5938 40.5781 12.7031
L40.5781 23.4844
Q40.5781 41.6094 30.8125 41.6094
Q24.9531 41.6094 20.5469 36.5938
Q16.1562 31.5938 13.9375 24.625
Q11.7188 17.6719 11.7188 11.9219
Q11.7188 7.5625 13.9375 4.53125
Q16.1562 1.51562 20.3125 1.51562" id="Cmmi10-ae"/>
      <path d="
M35.4062 51.9062
L52.2031 51.9062
L52.2031 5.17188
L60.6875 5.17188
L60.6875 0
L43.2188 0
L43.2188 9.1875
Q40.7188 4 36.7656 1.28125
Q32.8125 -1.42188 27.5938 -1.42188
Q18.9531 -1.42188 14.875 3.48438
Q10.7969 8.40625 10.7969 18.8906
L10.7969 46.6875
L2.6875 46.6875
L2.6875 51.9062
L19.8281 51.9062
L19.8281 21.6875
Q19.8281 12.2031 22.1406 8.6875
Q24.4688 5.17188 30.4219 5.17188
Q36.6719 5.17188 39.9375 9.76562
Q43.2188 14.3594 43.2188 23.0938
L43.2188 46.6875
L35.4062 46.6875
z
" id="DejaVuSerif-75"/>
      <path d="
M39.7969 16.3125
L39.7969 27.2969
L28.2188 27.2969
Q21.5312 27.2969 18.25 24.4062
Q14.9844 21.5312 14.9844 15.5781
Q14.9844 10.1562 18.2969 6.98438
Q21.625 3.8125 27.2969 3.8125
Q32.9062 3.8125 36.3438 7.28125
Q39.7969 10.75 39.7969 16.3125
M48.7812 32.4219
L48.7812 5.17188
L56.7812 5.17188
L56.7812 0
L39.7969 0
L39.7969 5.60938
Q36.8125 2 32.9062 0.28125
Q29 -1.42188 23.7812 -1.42188
Q15.1406 -1.42188 10.0625 3.17188
Q4.98438 7.76562 4.98438 15.5781
Q4.98438 23.6406 10.7969 28.0781
Q16.6094 32.5156 27.2031 32.5156
L39.7969 32.5156
L39.7969 36.0781
Q39.7969 42 36.2031 45.2344
Q32.625 48.4844 26.125 48.4844
Q20.75 48.4844 17.5781 46.0469
Q14.4062 43.6094 13.625 38.8125
L8.98438 38.8125
L8.98438 49.3125
Q13.6719 51.3125 18.0938 52.3125
Q22.5156 53.3281 26.7031 53.3281
Q37.5 53.3281 43.1406 47.9688
Q48.7812 42.625 48.7812 32.4219" id="DejaVuSerif-61"/>
      <path d="
M9.42188 5.07812
Q9.42188 7.8125 11.2812 9.71875
Q13.1406 11.625 15.9219 11.625
Q18.6094 11.625 20.5 9.71875
Q22.4062 7.8125 22.4062 5.07812
Q22.4062 2.39062 20.5 0.484375
Q18.6094 -1.42188 15.9219 -1.42188
Q13.1406 -1.42188 11.2812 0.453125
Q9.42188 2.34375 9.42188 5.07812" id="DejaVuSerif-2e"/>
     </defs>
     <g transform="translate(31.575 232.32)rotate(-90.0)scale(0.12 -0.12)">
      <use transform="translate(0.0 0.015625)" xlink:href="#Cmmi10-ae"/>
      <use transform="translate(63.916015625 0.015625)" xlink:href="#DejaVuSerif-20"/>
      <use transform="translate(95.703125 0.015625)" xlink:href="#DejaVuSerif-28"/>
      <use transform="translate(134.716796875 0.015625)" xlink:href="#DejaVuSerif-61"/>
      <use transform="translate(194.3359375 0.015625)" xlink:href="#DejaVuSerif-2e"/>
      <use transform="translate(226.123046875 0.015625)" xlink:href="#DejaVuSerif-75"/>
      <use transform="translate(290.52734375 0.015625)" xlink:href="#DejaVuSerif-2e"/>
      <use transform="translate(322.314453125 0.015625)" xlink:href="#DejaVuSerif-29"/>
     </g>
    </g>
   </g>
   <g id="patch_3">
    <path d="
M72 43.2
L518.4 43.2" style="fill:none;stroke:#000000;"/>
   </g>
   <g id="patch_4">
    <path d="
M518.4 378
L518.4 43.2" style="fill:none;stroke:#000000;"/>
   </g>
   <g id="patch_5">
    <path d="
M72 378
L518.4 378" style="fill:none;stroke:#000000;"/>
   </g>
   <g id="patch_6">
    <path d="
M72 378
L72 43.2" style="fill:none;stroke:#000000;"/>
   </g>
   <g id="text_18">
    <!-- Magic wavelength -->
    <defs>
     <path d="
M24.7031 0
L5.60938 46.6875
L-0.296875 46.6875
L-0.296875 51.9062
L23.5781 51.9062
L23.5781 46.6875
L15.2812 46.6875
L29.8906 10.9844
L44.4844 46.6875
L36.7188 46.6875
L36.7188 51.9062
L56.2031 51.9062
L56.2031 46.6875
L50.3906 46.6875
L31.2969 0
z
" id="DejaVuSerif-76"/>
     <path d="
M48 51.9062
L61.2812 11.375
L73 46.6875
L65.4844 46.6875
L65.4844 51.9062
L84.2812 51.9062
L84.2812 46.6875
L78.5156 46.6875
L63.0938 0
L55.6094 0
L42.8281 38.8125
L29.9844 0
L22.7969 0
L7.42188 46.6875
L1.60938 46.6875
L1.60938 51.9062
L25.0938 51.9062
L25.0938 46.6875
L16.7031 46.6875
L28.3281 11.375
L41.7031 51.9062
z
" id="DejaVuSerif-77"/>
     <path d="
M52.4844 46.6875
L52.4844 1.125
Q52.4844 -10.0625 46.3281 -16.1406
Q40.1875 -22.2188 28.8125 -22.2188
Q23.6875 -22.2188 19 -21.2812
Q14.3125 -20.3594 10.0156 -18.5
L10.0156 -7.625
L14.7031 -7.625
Q15.5781 -12.7031 18.8438 -15.0469
Q22.125 -17.3906 28.2188 -17.3906
Q36.1406 -17.3906 39.8125 -12.9219
Q43.5 -8.45312 43.5 1.125
L43.5 8.10938
Q40.875 3.21875 36.7969 0.890625
Q32.7188 -1.42188 26.7031 -1.42188
Q17.1406 -1.42188 11.0625 6.17188
Q4.98438 13.7656 4.98438 25.9844
Q4.98438 38.1875 11.0312 45.75
Q17.0938 53.3281 26.7031 53.3281
Q32.7188 53.3281 36.7969 51
Q40.875 48.6875 43.5 43.7969
L43.5 51.9062
L61.0781 51.9062
L61.0781 46.6875
z

M43.5 28.5156
Q43.5 37.8438 39.9062 42.7656
Q36.3281 47.7031 29.5 47.7031
Q22.5625 47.7031 19.0156 42.2344
Q15.4844 36.7656 15.4844 25.9844
Q15.4844 15.2344 19.0156 9.71875
Q22.5625 4.20312 29.5 4.20312
Q36.3281 4.20312 39.9062 9.10938
Q43.5 14.0156 43.5 23.3906
z
" id="DejaVuSerif-67"/>
     <path d="
M51.4219 15.5781
Q49.5156 7.28125 44.0938 2.92188
Q38.6719 -1.42188 30.0781 -1.42188
Q18.75 -1.42188 11.8594 6.07812
Q4.98438 13.5781 4.98438 25.9844
Q4.98438 38.4219 11.8594 45.875
Q18.75 53.3281 30.0781 53.3281
Q35.0156 53.3281 39.8906 52.1719
Q44.7812 51.0312 49.7031 48.6875
L49.7031 35.4062
L44.4844 35.4062
Q43.4531 42.2344 40.0156 45.3594
Q36.5781 48.4844 30.1719 48.4844
Q22.9062 48.4844 19.1875 42.8438
Q15.4844 37.2031 15.4844 25.9844
Q15.4844 14.75 19.1719 9.07812
Q22.8594 3.42188 30.1719 3.42188
Q35.9844 3.42188 39.4531 6.4375
Q42.9219 9.46875 44.1875 15.5781
z
" id="DejaVuSerif-63"/>
     <path d="
M54.2031 25
L15.4844 25
L15.4844 24.6094
Q15.4844 14.1094 19.4375 8.76562
Q23.3906 3.42188 31.1094 3.42188
Q37.0156 3.42188 40.7969 6.51562
Q44.5781 9.625 46.0938 15.7188
L53.3281 15.7188
Q51.1719 7.17188 45.375 2.875
Q39.5938 -1.42188 30.1719 -1.42188
Q18.7969 -1.42188 11.8906 6.07812
Q4.98438 13.5781 4.98438 25.9844
Q4.98438 38.2812 11.7656 45.7969
Q18.5625 53.3281 29.5938 53.3281
Q41.3594 53.3281 47.6562 46.0625
Q53.9531 38.8125 54.2031 25
M43.6094 30.1719
Q43.3125 39.2656 39.7656 43.875
Q36.2344 48.4844 29.5938 48.4844
Q23.3906 48.4844 19.8281 43.8438
Q16.2656 39.2031 15.4844 30.1719
z
" id="DejaVuSerif-65"/>
     <path d="
M5.51562 0
L5.51562 5.17188
L14.7969 5.17188
L14.7969 67.6719
L4.98438 67.6719
L4.98438 72.9062
L26.2188 72.9062
L51.8125 21
L77.3906 72.9062
L97.3125 72.9062
L97.3125 67.6719
L87.5938 67.6719
L87.5938 5.17188
L96.9219 5.17188
L96.9219 0
L68.4062 0
L68.4062 5.17188
L77.6875 5.17188
L77.6875 61.5312
L52.6875 10.6875
L45.7969 10.6875
L20.7969 61.5312
L20.7969 5.17188
L30.0781 5.17188
L30.0781 0
z
" id="DejaVuSerif-4d"/>
     <path d="
M9.71875 68.0156
Q9.71875 70.2656 11.3438 71.9219
Q12.9844 73.5781 15.2812 73.5781
Q17.5312 73.5781 19.1562 71.9219
Q20.7969 70.2656 20.7969 68.0156
Q20.7969 65.7188 19.1875 64.1094
Q17.5781 62.5 15.2812 62.5
Q12.9844 62.5 11.3438 64.1094
Q9.71875 65.7188 9.71875 68.0156
M21.1875 5.17188
L29.6875 5.17188
L29.6875 0
L3.60938 0
L3.60938 5.17188
L12.2031 5.17188
L12.2031 46.6875
L3.60938 46.6875
L3.60938 51.9062
L21.1875 51.9062
z
" id="DejaVuSerif-69"/>
     <path d="
M10.7969 46.6875
L2.875 46.6875
L2.875 51.9062
L10.7969 51.9062
L10.7969 68.0156
L19.8281 68.0156
L19.8281 51.9062
L36.7188 51.9062
L36.7188 46.6875
L19.8281 46.6875
L19.8281 13.7188
Q19.8281 7.125 21.0938 5.26562
Q22.3594 3.42188 25.7812 3.42188
Q29.2969 3.42188 30.9062 5.48438
Q32.5156 7.5625 32.625 12.2031
L39.4062 12.2031
Q39.0156 5.125 35.5469 1.84375
Q32.0781 -1.42188 25 -1.42188
Q17.2344 -1.42188 14.0156 2.01562
Q10.7969 5.46875 10.7969 13.7188
z
" id="DejaVuSerif-74"/>
     <path d="
M4.10938 0
L4.10938 5.17188
L12.2031 5.17188
L12.2031 70.7969
L3.60938 70.7969
L3.60938 75.9844
L21.1875 75.9844
L21.1875 42.6719
Q23.6875 47.9531 27.6562 50.6406
Q31.6406 53.3281 36.9219 53.3281
Q45.5156 53.3281 49.5625 48.3906
Q53.6094 43.4531 53.6094 33.0156
L53.6094 5.17188
L61.625 5.17188
L61.625 0
L36.8125 0
L36.8125 5.17188
L44.5781 5.17188
L44.5781 30.1719
Q44.5781 39.7031 42.25 43.1875
Q39.9375 46.6875 33.9844 46.6875
Q27.7344 46.6875 24.4531 42.1406
Q21.1875 37.5938 21.1875 28.9062
L21.1875 5.17188
L29 5.17188
L29 0
z
" id="DejaVuSerif-68"/>
     <path d="
M20.5156 5.17188
L29 5.17188
L29 0
L2.875 0
L2.875 5.17188
L11.5312 5.17188
L11.5312 70.7969
L2.875 70.7969
L2.875 75.9844
L20.5156 75.9844
z
" id="DejaVuSerif-6c"/>
    </defs>
    <g transform="translate(228.376125 38.2)scale(0.144 -0.144)">
     <use xlink:href="#DejaVuSerif-4d"/>
     <use x="102.392578125" xlink:href="#DejaVuSerif-61"/>
     <use x="162.01171875" xlink:href="#DejaVuSerif-67"/>
     <use x="226.025390625" xlink:href="#DejaVuSerif-69"/>
     <use x="258.0078125" xlink:href="#DejaVuSerif-63"/>
     <use x="314.013671875" xlink:href="#DejaVuSerif-20"/>
     <use x="345.80078125" xlink:href="#DejaVuSerif-77"/>
     <use x="431.396484375" xlink:href="#DejaVuSerif-61"/>
     <use x="491.015625" xlink:href="#DejaVuSerif-76"/>
     <use x="547.509765625" xlink:href="#DejaVuSerif-65"/>
     <use x="606.689453125" xlink:href="#DejaVuSerif-6c"/>
     <use x="638.671875" xlink:href="#DejaVuSerif-65"/>
     <use x="697.8515625" xlink:href="#DejaVuSerif-6e"/>
     <use x="762.255859375" xlink:href="#DejaVuSerif-67"/>
     <use x="826.26953125" xlink:href="#DejaVuSerif-74"/>
     <use x="866.455078125" xlink:href="#DejaVuSerif-68"/>
    </g>
   </g>
   <g id="legend_1">
    <g id="patch_7">
     <path d="
M324.864 151.488
L511.2 151.488
L511.2 50.4
L324.864 50.4
L324.864 151.488
z
" style="fill:#ffffff;stroke:#000000;"/>
    </g>
    <g id="line2d_53">
     <path d="
M334.944 64.08
L355.104 64.08" style="fill:none;stroke:#0000ff;stroke-linecap:square;"/>
    </g>
    <g id="line2d_54"/>
    <g id="text_19">
     <!-- $^1S_0$ -->
     <defs>
      <path d="
M9.28125 0
L9.28125 3.51562
Q21.7812 3.51562 21.7812 6.6875
L21.7812 59.1875
Q16.6094 56.6875 8.6875 56.6875
L8.6875 60.2031
Q20.9531 60.2031 27.2031 66.6094
L28.6094 66.6094
Q28.9531 66.6094 29.2656 66.3281
Q29.5938 66.0625 29.5938 65.7188
L29.5938 6.6875
Q29.5938 3.51562 42.0938 3.51562
L42.0938 0
z
" id="Cmr10-31"/>
      <path d="
M6.10938 -2.20312
Q5.8125 -2.20312 5.5625 -1.85938
Q5.32812 -1.51562 5.32812 -1.21875
L11.0781 22.125
Q11.2812 22.7031 11.9219 22.7031
L13.0938 22.7031
Q13.4844 22.7031 13.7031 22.4062
Q13.9219 22.125 13.9219 21.6875
Q13.0938 18.2656 13.0938 15.5781
Q13.0938 8.34375 18.0625 4.82812
Q23.0469 1.3125 30.6094 1.3125
Q33.8906 1.3125 37.0625 2.92188
Q40.2344 4.54688 42.5938 7.125
Q44.9688 9.71875 46.375 12.9062
Q47.7969 16.1094 47.7969 19.3906
Q47.7969 22.9062 45.9375 25.6562
Q44.0938 28.4219 40.8281 29.2031
L28.6094 32.4219
Q23.6875 33.7344 20.75 37.7188
Q17.8281 41.7031 17.8281 46.6875
Q17.8281 52.6875 21.3906 58.25
Q24.9531 63.8125 30.6875 67.1562
Q36.4219 70.5156 42.3906 70.5156
Q46.9688 70.5156 50.7969 68.8281
Q54.6406 67.1406 56.6875 63.4844
L62.4062 70.2188
Q62.9844 70.5156 63.0938 70.5156
L63.7188 70.5156
Q64.1094 70.5156 64.3438 70.1719
Q64.5938 69.8281 64.5938 69.4844
L58.7969 46.2969
Q58.6406 45.6094 58.0156 45.6094
L56.7812 45.6094
Q55.9062 45.6094 55.9062 46.6875
Q56.3906 49.8594 56.3906 52.2031
Q56.3906 56.8438 54.7969 60.2812
Q53.2188 63.7188 50.0156 65.5
Q46.8281 67.2812 42.0938 67.2812
Q38.0938 67.2812 34.125 64.9844
Q30.1719 62.7031 27.7344 58.8906
Q25.2969 55.0781 25.2969 50.9844
Q25.2969 47.75 27.1719 45.2656
Q29.0469 42.7812 32.1719 41.8906
L44.3906 38.7188
Q47.7031 37.8438 50.1719 35.625
Q52.6406 33.4062 53.9062 30.3438
Q55.1719 27.2969 55.1719 23.6875
Q55.1719 18.9531 53.1719 14.3281
Q51.1719 9.71875 47.5781 5.90625
Q44 2.09375 39.4531 -0.046875
Q34.9062 -2.20312 30.1719 -2.20312
Q18.2656 -2.20312 13.0938 4.78125
L7.51562 -1.90625
Q6.9375 -2.20312 6.78125 -2.20312
z
" id="Cmmi10-53"/>
      <path d="
M25 -2.20312
Q12.75 -2.20312 8.32812 7.875
Q3.90625 17.9688 3.90625 31.8906
Q3.90625 40.5781 5.48438 48.2344
Q7.07812 55.9062 11.7812 61.25
Q16.5 66.6094 25 66.6094
Q31.5938 66.6094 35.7812 63.375
Q39.9844 60.1562 42.1875 55.0469
Q44.3906 49.9531 45.1875 44.1094
Q46 38.2812 46 31.8906
Q46 23.2969 44.4062 15.7969
Q42.8281 8.29688 38.1875 3.04688
Q33.5469 -2.20312 25 -2.20312
M25 0.390625
Q30.5625 0.390625 33.2969 6.09375
Q36.0312 11.8125 36.6719 18.75
Q37.3125 25.6875 37.3125 33.5
Q37.3125 41.0156 36.6719 47.3594
Q36.0312 53.7188 33.3125 58.8594
Q30.6094 64.0156 25 64.0156
Q19.3438 64.0156 16.6094 58.8281
Q13.875 53.6562 13.2344 47.3281
Q12.5938 41.0156 12.5938 33.5
Q12.5938 27.9375 12.8594 23
Q13.1406 18.0625 14.3125 12.8125
Q15.4844 7.5625 18.0938 3.96875
Q20.7031 0.390625 25 0.390625" id="Cmr10-30"/>
     </defs>
     <g transform="translate(370.944 69.12)scale(0.144 -0.144)">
      <use transform="translate(0.0 43.3734375)scale(0.7)" xlink:href="#Cmr10-31"/>
      <use transform="translate(67.00625 0.8578125)" xlink:href="#Cmmi10-53"/>
      <use transform="translate(128.285546875 -24.6515625)scale(0.7)" xlink:href="#Cmr10-30"/>
     </g>
    </g>
    <g id="line2d_55">
     <path d="
M334.944 88.272
L355.104 88.272" style="fill:none;stroke:#008000;stroke-linecap:square;"/>
    </g>
    <g id="line2d_56"/>
    <g id="text_20">
     <!-- $^3P_1, m_J = 0, \xi = \pm 1$ -->
     <defs>
      <path d="
M9.51562 7.71875
Q11.8594 4.29688 15.8125 2.64062
Q19.7812 0.984375 24.3125 0.984375
Q30.125 0.984375 32.5625 5.9375
Q35.0156 10.8906 35.0156 17.1875
Q35.0156 20.0156 34.5 22.8438
Q33.9844 25.6875 32.7656 28.125
Q31.5469 30.5625 29.4219 32.0312
Q27.2969 33.5 24.2188 33.5
L17.5781 33.5
Q16.7031 33.5 16.7031 34.4219
L16.7031 35.2969
Q16.7031 36.0781 17.5781 36.0781
L23.0938 36.5312
Q26.6094 36.5312 28.9219 39.1562
Q31.25 41.7969 32.3281 45.5781
Q33.4062 49.3594 33.4062 52.7812
Q33.4062 57.5625 31.1562 60.6406
Q28.9062 63.7188 24.3125 63.7188
Q20.5156 63.7188 17.0469 62.2812
Q13.5781 60.8438 11.5312 57.9062
Q11.7188 57.9531 11.8594 57.9844
Q12.0156 58.0156 12.2031 58.0156
Q14.4531 58.0156 15.9688 56.4531
Q17.4844 54.8906 17.4844 52.6875
Q17.4844 50.5312 15.9688 48.9688
Q14.4531 47.4062 12.2031 47.4062
Q10.0156 47.4062 8.45312 48.9688
Q6.89062 50.5312 6.89062 52.6875
Q6.89062 56.9844 9.46875 60.1562
Q12.0625 63.3281 16.1406 64.9688
Q20.2188 66.6094 24.3125 66.6094
Q27.3438 66.6094 30.7031 65.7031
Q34.0781 64.7969 36.8125 63.1094
Q39.5469 61.4219 41.2812 58.7812
Q43.0156 56.1562 43.0156 52.7812
Q43.0156 48.5781 41.1406 45.0156
Q39.2656 41.4531 35.9844 38.8594
Q32.7188 36.2812 28.8125 35.0156
Q33.1562 34.1875 37.0625 31.7344
Q40.9688 29.2969 43.3281 25.4844
Q45.7031 21.6875 45.7031 17.2812
Q45.7031 11.7656 42.6719 7.29688
Q39.6562 2.82812 34.7188 0.3125
Q29.7812 -2.20312 24.3125 -2.20312
Q19.625 -2.20312 14.9062 -0.40625
Q10.2031 1.375 7.20312 4.9375
Q4.20312 8.5 4.20312 13.4844
Q4.20312 15.9688 5.85938 17.625
Q7.51562 19.2812 10.0156 19.2812
Q11.625 19.2812 12.9688 18.5312
Q14.3125 17.7812 15.0625 16.4062
Q15.8281 15.0469 15.8281 13.4844
Q15.8281 11.0312 14.1094 9.375
Q12.4062 7.71875 10.0156 7.71875
z
" id="Cmr10-33"/>
      <path d="
M7.71875 1.70312
Q7.71875 2.29688 7.8125 2.59375
L15.2812 32.4219
Q16.0156 35.2031 16.0156 37.3125
Q16.0156 41.6094 13.0938 41.6094
Q9.96875 41.6094 8.45312 37.8594
Q6.9375 34.125 5.51562 28.4219
Q5.51562 28.125 5.21875 27.9531
Q4.9375 27.7812 4.6875 27.7812
L3.51562 27.7812
Q3.17188 27.7812 2.92188 28.1406
Q2.6875 28.5156 2.6875 28.8125
Q3.76562 33.1562 4.76562 36.1719
Q5.76562 39.2031 7.89062 41.6875
Q10.0156 44.1875 13.1875 44.1875
Q16.9375 44.1875 19.8125 41.8125
Q22.7031 39.4531 22.7031 35.7969
Q25.6875 39.7031 29.6875 41.9375
Q33.6875 44.1875 38.1875 44.1875
Q42.9219 44.1875 46.3594 41.7656
Q49.8125 39.3594 49.8125 34.9062
Q52.875 39.2656 57 41.7188
Q61.1406 44.1875 66.0156 44.1875
Q71.1875 44.1875 74.3281 41.375
Q77.4844 38.5781 77.4844 33.4062
Q77.4844 29.2969 75.6562 23.4844
Q73.8281 17.6719 71.0938 10.5
Q69.6719 7.03125 69.6719 4.5
Q69.6719 1.51562 72.0156 1.51562
Q75.9219 1.51562 78.5156 5.70312
Q81.1094 9.90625 82.1719 14.7031
Q82.4688 15.2812 83.0156 15.2812
L84.1875 15.2812
Q84.5781 15.2812 84.8438 15.0156
Q85.1094 14.75 85.1094 14.4062
Q85.1094 14.3125 85.0156 14.1094
Q83.6406 8.45312 80.25 3.65625
Q76.8594 -1.125 71.7812 -1.125
Q68.2656 -1.125 65.7656 1.29688
Q63.2812 3.71875 63.2812 7.17188
Q63.2812 8.9375 64.1094 11.0781
Q66.9375 18.6094 68.8125 24.5156
Q70.7031 30.4219 70.7031 34.9062
Q70.7031 37.7031 69.5781 39.6562
Q68.4531 41.6094 65.8281 41.6094
Q60.3594 41.6094 56.3438 38.25
Q52.3438 34.9062 49.4219 29.3906
Q49.2188 28.4219 49.125 27.875
L42.6719 2.20312
Q42.3281 0.828125 41.125 -0.140625
Q39.9375 -1.125 38.4844 -1.125
Q37.3125 -1.125 36.4062 -0.34375
Q35.5 0.4375 35.5 1.70312
Q35.5 2.29688 35.5938 2.59375
L42 28.0781
Q43.0156 32.1719 43.0156 34.9062
Q43.0156 37.7031 41.8594 39.6562
Q40.7188 41.6094 37.9844 41.6094
Q34.3281 41.6094 31.25 39.9844
Q28.1719 38.375 25.875 35.7188
Q23.5781 33.0625 21.6875 29.3906
L14.8906 2.20312
Q14.5469 0.828125 13.3438 -0.140625
Q12.1562 -1.125 10.6875 -1.125
Q9.46875 -1.125 8.59375 -0.34375
Q7.71875 0.4375 7.71875 1.70312" id="Cmmi10-6d"/>
      <path d="
M10.8906 6
Q11.8594 3.21875 14.5 1.79688
Q17.1406 0.390625 20.2188 0.390625
Q23.3438 0.390625 26.25 2.5625
Q29.1562 4.73438 31.1719 8
Q33.2031 11.2812 33.9844 14.5
L45.7969 61.8125
Q45.9062 62.2031 45.9219 62.3906
Q45.9531 62.5938 46 62.7969
Q46 63.875 45.2188 64.1094
Q42.5781 64.7969 34.5156 64.7969
Q33.5 64.7969 33.5 66.1094
Q33.6875 66.8906 33.8125 67.3281
Q33.9375 67.7812 34.25 68.0469
Q34.5781 68.3125 35.2031 68.3125
L62.3125 68.3125
Q63.2812 68.3125 63.2812 67
Q62.8906 64.7969 62.0156 64.7969
Q58.5 64.7969 56.6875 64.25
Q54.8906 63.7188 54.2031 61.375
L42.3906 14.1094
Q41.2656 9.46875 37.8125 5.73438
Q34.375 2 29.6406 -0.09375
Q24.9062 -2.20312 20.125 -2.20312
Q14.8438 -2.20312 10.8594 0.71875
Q6.89062 3.65625 6.89062 8.6875
Q6.89062 12.0156 8.6875 14.4062
Q10.5 16.7969 13.8125 16.7969
Q15.7188 16.7969 17.0156 15.625
Q18.3125 14.4531 18.3125 12.5938
Q18.3125 9.90625 16.3125 7.90625
Q14.3125 5.90625 11.625 5.90625
Q11.0781 5.90625 10.8906 6" id="Cmmi10-4a"/>
      <path d="
M4.89062 0
Q3.90625 0 3.90625 1.3125
Q3.95312 1.5625 4.09375 2.17188
Q4.25 2.78125 4.51562 3.14062
Q4.78125 3.51562 5.17188 3.51562
Q11.2812 3.51562 13.7188 4.20312
Q14.9844 4.64062 15.5781 6.89062
L29.2969 61.8125
Q29.5 62.7969 29.5 63.1875
Q29.5 64.2656 28.3281 64.4062
Q26.4219 64.7969 21.0938 64.7969
Q20.125 64.7969 20.125 66.1094
Q20.1719 66.3594 20.3125 66.9688
Q20.4531 67.5781 20.7188 67.9375
Q21 68.3125 21.3906 68.3125
L55.9062 68.3125
Q60.6406 68.3125 65.0781 66.625
Q69.5312 64.9375 72.3594 61.4688
Q75.2031 58.0156 75.2031 53.0781
Q75.2031 46.7344 70.7344 41.75
Q66.2656 36.7656 59.5938 33.9844
Q52.9375 31.2031 46.6875 31.2031
L30.4219 31.2031
L24.3125 6.5
Q24.125 5.51562 24.125 5.07812
Q24.125 4.6875 24.2344 4.42188
Q24.3594 4.15625 24.5781 4.07812
Q24.8125 4 25.2969 3.90625
Q27.2031 3.51562 32.5156 3.51562
Q33.5 3.51562 33.5 2.20312
Q33.1562 0.78125 32.9531 0.390625
Q32.7656 0 31.7812 0
z

M30.9062 34.1875
L44.9219 34.1875
Q54.6406 34.1875 59.7188 39.4062
Q62.3125 42 63.9375 46.875
Q65.5781 51.7656 65.5781 55.7188
Q65.5781 60.6406 61.8125 62.7188
Q58.0625 64.7969 52.4844 64.7969
L42.9219 64.7969
Q40.1875 64.7969 39.2969 64.3281
Q38.4219 63.875 37.7031 61.375
z
" id="Cmmi10-50"/>
      <path d="
M16.3125 -15.5781
Q16.4531 -14.4062 17.6719 -14.4062
Q17.7812 -14.4062 19.5625 -15.375
Q21.3438 -16.3594 23.4844 -17.1406
Q25.6406 -17.9219 27.7812 -17.9219
Q29.6406 -17.9219 30.9062 -16.3281
Q32.1719 -14.75 32.1719 -12.8906
Q32.1719 -10.25 29.3906 -9.1875
L12.4062 -2.59375
Q8.01562 -0.875 5.15625 2.51562
Q2.29688 5.90625 2.29688 10.2031
Q2.29688 14.0625 4.34375 18.2344
Q6.39062 22.4062 9.60938 25.7969
Q12.8438 29.2031 16.5 31.2969
Q13.5781 33.0625 11.9375 35.8125
Q10.2969 38.5781 10.2969 41.8906
Q10.2969 45.4062 11.7344 48.4375
Q13.1875 51.4688 15.6719 53.9531
Q18.1719 56.4531 21.2344 58.1719
Q24.3125 59.9062 27.4844 60.7969
Q27 62.8438 27 64.5
Q27 69.9219 29.1094 69.9219
Q29.6406 69.9219 30.0312 69.5312
Q30.4219 69.1406 30.4219 68.6094
Q30.4219 68.1094 30.1562 66.4531
Q29.8906 64.7969 29.8906 64.4062
Q29.8906 62.7031 30.3281 61.375
Q32.9062 61.9219 35.2969 61.9219
Q44.4844 61.9219 44.4844 59.0781
Q44.4844 55.7188 34.2812 55.7188
Q31.1562 55.7188 29.2031 57.8125
Q26.3125 56.3438 23.875 53.6562
Q21.4375 50.9844 20.0625 47.6875
Q18.7031 44.3906 18.7031 41.0156
Q18.7031 36.3281 21.3906 33.5
Q24.9531 34.7188 28.5156 34.7188
Q37.7031 34.7188 37.7031 31.8906
Q37.7031 28.5156 27.4844 28.5156
Q23.3438 28.5156 19.6719 29.7812
Q15.2344 27.3906 11.5156 22.5
Q7.8125 17.625 7.8125 13.0938
Q7.8125 10.1562 9.9375 7.9375
Q12.0625 5.71875 15.1875 4.39062
L32.9062 -2.48438
Q35.2031 -3.375 36.6406 -5.29688
Q38.0938 -7.23438 38.0938 -9.71875
Q38.0938 -13.8125 34.9375 -17.1562
Q31.7812 -20.5156 27.6875 -20.5156
Q26.4219 -20.5156 23.5312 -19.8281
Q20.6562 -19.1406 18.4844 -18.0156
Q16.3125 -16.8906 16.3125 -15.5781
M24.4219 31.5938
Q25.7344 31.1094 27.6875 31.1094
Q32.5156 31.1094 34.625 31.6875
Q32.7188 32.0781 28.4219 32.0781
Q26.7031 32.0781 24.4219 31.5938
M32.0781 58.8906
Q32.9531 58.2969 34.5156 58.2969
Q39.3125 58.2969 41.4062 58.8906
z
" id="Cmmi10-bb"/>
      <path d="
M7.51562 13.2812
Q6.6875 13.2812 6.14062 13.9062
Q5.60938 14.5469 5.60938 15.2812
Q5.60938 16.1094 6.14062 16.6875
Q6.6875 17.2812 7.51562 17.2812
L70.3125 17.2812
Q71.0469 17.2812 71.5781 16.6875
Q72.125 16.1094 72.125 15.2812
Q72.125 14.5469 71.5781 13.9062
Q71.0469 13.2812 70.3125 13.2812
z

M7.51562 32.7188
Q6.6875 32.7188 6.14062 33.2969
Q5.60938 33.8906 5.60938 34.7188
Q5.60938 35.4531 6.14062 36.0781
Q6.6875 36.7188 7.51562 36.7188
L70.3125 36.7188
Q71.0469 36.7188 71.5781 36.0781
Q72.125 35.4531 72.125 34.7188
Q72.125 33.8906 71.5781 33.2969
Q71.0469 32.7188 70.3125 32.7188
z
" id="Cmr10-3d"/>
      <path d="
M9.90625 -18.0156
Q9.90625 -17.5781 10.2969 -17.1875
Q13.9219 -13.7188 15.9219 -9.17188
Q17.9219 -4.64062 17.9219 0.390625
L17.9219 1.60938
Q16.3125 0 13.9219 0
Q11.625 0 10.0156 1.60938
Q8.40625 3.21875 8.40625 5.51562
Q8.40625 7.85938 10.0156 9.42188
Q11.625 10.9844 13.9219 10.9844
Q17.4844 10.9844 19 7.6875
Q20.5156 4.39062 20.5156 0.390625
Q20.5156 -5.17188 18.2812 -10.1719
Q16.0625 -15.1875 12.0156 -19.1875
Q11.625 -19.3906 11.375 -19.3906
Q10.8906 -19.3906 10.3906 -18.9375
Q9.90625 -18.5 9.90625 -18.0156" id="Cmmi10-3b"/>
      <path d="
M7.51562 0
Q6.6875 0 6.14062 0.578125
Q5.60938 1.17188 5.60938 2
Q5.60938 2.73438 6.14062 3.35938
Q6.6875 4 7.51562 4
L36.9219 4
L36.9219 31.2969
L7.51562 31.2969
Q6.6875 31.2969 6.14062 31.9219
Q5.60938 32.5625 5.60938 33.2969
Q5.60938 34.0312 6.14062 34.6562
Q6.6875 35.2969 7.51562 35.2969
L36.9219 35.2969
L36.9219 64.7969
Q36.9219 65.5781 37.5 66.0938
Q38.0938 66.6094 38.9219 66.6094
Q39.5938 66.6094 40.25 66.0938
Q40.9219 65.5781 40.9219 64.7969
L40.9219 35.2969
L70.3125 35.2969
Q71.0469 35.2969 71.5781 34.6562
Q72.125 34.0312 72.125 33.2969
Q72.125 32.5625 71.5781 31.9219
Q71.0469 31.2969 70.3125 31.2969
L40.9219 31.2969
L40.9219 4
L70.3125 4
Q71.0469 4 71.5781 3.35938
Q72.125 2.73438 72.125 2
Q72.125 1.17188 71.5781 0.578125
Q71.0469 0 70.3125 0
z
" id="Cmsy10-a7"/>
     </defs>
     <g transform="translate(370.944 93.312)scale(0.144 -0.144)">
      <use transform="translate(0.0 43.3734375)scale(0.7)" xlink:href="#Cmr10-33"/>
      <use transform="translate(67.00625 0.8578125)" xlink:href="#Cmmi10-50"/>
      <use transform="translate(131.215234375 -24.6515625)scale(0.7)" xlink:href="#Cmr10-31"/>
      <use transform="translate(181.215234375 0.8578125)" xlink:href="#Cmmi10-3b"/>
      <use transform="translate(210.883203125 0.8578125)" xlink:href="#Cmmi10-6d"/>
      <use transform="translate(298.676171875 -24.6515625)scale(0.7)" xlink:href="#Cmmi10-4a"/>
      <use transform="translate(371.6546875 0.8578125)" xlink:href="#Cmr10-3d"/>
      <use transform="translate(455.71328125 0.8578125)" xlink:href="#Cmr10-30"/>
      <use transform="translate(505.71328125 0.8578125)" xlink:href="#Cmmi10-3b"/>
      <use transform="translate(535.38125 0.8578125)" xlink:href="#Cmmi10-bb"/>
      <use transform="translate(596.641015625 0.8578125)" xlink:href="#Cmr10-3d"/>
      <use transform="translate(698.258203125 0.8578125)" xlink:href="#Cmsy10-a7"/>
      <use transform="translate(782.316796875 0.8578125)" xlink:href="#Cmr10-31"/>
     </g>
    </g>
    <g id="line2d_57">
     <path d="
M334.944 112.464
L355.104 112.464" style="fill:none;stroke:#ff0000;stroke-linecap:square;"/>
    </g>
    <g id="line2d_58"/>
    <g id="text_21">
     <!-- $^3P_1, m_J =  \pm 1, \xi = \pm 1$ -->
     <g transform="translate(370.944 117.504)scale(0.144 -0.144)">
      <use transform="translate(0.0 43.3734375)scale(0.7)" xlink:href="#Cmr10-33"/>
      <use transform="translate(67.00625 0.8578125)" xlink:href="#Cmmi10-50"/>
      <use transform="translate(131.215234375 -24.6515625)scale(0.7)" xlink:href="#Cmr10-31"/>
      <use transform="translate(181.215234375 0.8578125)" xlink:href="#Cmmi10-3b"/>
      <use transform="translate(210.883203125 0.8578125)" xlink:href="#Cmmi10-6d"/>
      <use transform="translate(298.676171875 -24.6515625)scale(0.7)" xlink:href="#Cmmi10-4a"/>
      <use transform="translate(371.6546875 0.8578125)" xlink:href="#Cmr10-3d"/>
      <use transform="translate(473.271875 0.8578125)" xlink:href="#Cmsy10-a7"/>
      <use transform="translate(557.33046875 0.8578125)" xlink:href="#Cmr10-31"/>
      <use transform="translate(607.33046875 0.8578125)" xlink:href="#Cmmi10-3b"/>
      <use transform="translate(636.9984375 0.8578125)" xlink:href="#Cmmi10-bb"/>
      <use transform="translate(698.258203125 0.8578125)" xlink:href="#Cmr10-3d"/>
      <use transform="translate(799.875390625 0.8578125)" xlink:href="#Cmsy10-a7"/>
      <use transform="translate(883.933984375 0.8578125)" xlink:href="#Cmr10-31"/>
     </g>
    </g>
    <g id="line2d_59">
     <path d="
M334.944 136.656
L355.104 136.656" style="fill:none;stroke:#00bfbf;stroke-linecap:square;"/>
    </g>
    <g id="line2d_60"/>
    <g id="text_22">
     <!-- $^3P_1, m_J = \pm 1, \xi = \mp 1$ -->
     <defs>
      <path d="
M36.9219 -14.7969
L36.9219 14.7031
L7.51562 14.7031
Q6.6875 14.7031 6.14062 15.3281
Q5.60938 15.9688 5.60938 16.7031
Q5.60938 17.4375 6.14062 18.0625
Q6.6875 18.7031 7.51562 18.7031
L36.9219 18.7031
L36.9219 46
L7.51562 46
Q6.6875 46 6.14062 46.625
Q5.60938 47.2656 5.60938 48
Q5.60938 48.8281 6.14062 49.4062
Q6.6875 50 7.51562 50
L70.3125 50
Q71.0469 50 71.5781 49.4062
Q72.125 48.8281 72.125 48
Q72.125 47.2656 71.5781 46.625
Q71.0469 46 70.3125 46
L40.9219 46
L40.9219 18.7031
L70.3125 18.7031
Q71.0469 18.7031 71.5781 18.0625
Q72.125 17.4375 72.125 16.7031
Q72.125 15.9688 71.5781 15.3281
Q71.0469 14.7031 70.3125 14.7031
L40.9219 14.7031
L40.9219 -14.7969
Q40.9219 -15.5312 40.25 -16.0625
Q39.5938 -16.6094 38.9219 -16.6094
Q38.0938 -16.6094 37.5 -16.0938
Q36.9219 -15.5781 36.9219 -14.7969" id="Cmsy10-a8"/>
     </defs>
     <g transform="translate(370.944 141.696)scale(0.144 -0.144)">
      <use transform="translate(0.0 43.3734375)scale(0.7)" xlink:href="#Cmr10-33"/>
      <use transform="translate(67.00625 0.8578125)" xlink:href="#Cmmi10-50"/>
      <use transform="translate(131.215234375 -24.6515625)scale(0.7)" xlink:href="#Cmr10-31"/>
      <use transform="translate(181.215234375 0.8578125)" xlink:href="#Cmmi10-3b"/>
      <use transform="translate(210.883203125 0.8578125)" xlink:href="#Cmmi10-6d"/>
      <use transform="translate(298.676171875 -24.6515625)scale(0.7)" xlink:href="#Cmmi10-4a"/>
      <use transform="translate(371.6546875 0.8578125)" xlink:href="#Cmr10-3d"/>
      <use transform="translate(473.271875 0.8578125)" xlink:href="#Cmsy10-a7"/>
      <use transform="translate(557.33046875 0.8578125)" xlink:href="#Cmr10-31"/>
      <use transform="translate(607.33046875 0.8578125)" xlink:href="#Cmmi10-3b"/>
      <use transform="translate(636.9984375 0.8578125)" xlink:href="#Cmmi10-bb"/>
      <use transform="translate(698.258203125 0.8578125)" xlink:href="#Cmr10-3d"/>
      <use transform="translate(799.875390625 0.8578125)" xlink:href="#Cmsy10-a8"/>
      <use transform="translate(883.933984375 0.8578125)" xlink:href="#Cmr10-31"/>
     </g>
    </g>
   </g>
  </g>
 </g>
 <defs>
  <clipPath id="p332b41defa">
   <rect height="334.8" width="446.4" x="72.0" y="43.2"/>
  </clipPath>
 </defs>
</svg>
